<svg xmlns="http://www.w3.org/2000/svg" width="19" height="19" viewBox="0 0 19 19" fill="none">
  <g clip-path="url(#clip0_5885_78610)">
    <path d="M9.5 0C5.57175 0 2.375 3.21892 2.375 7.17646C2.375 12.7997 8.83025 18.6057 9.10496 18.8496C9.21354 18.9468 9.35412 19.0006 9.49985 19.0007C9.64558 19.0009 9.78626 18.9474 9.89504 18.8504C10.1697 18.6057 16.625 12.7997 16.625 7.17646C16.625 3.21892 13.4283 0 9.5 0ZM9.5 11.0833C7.31738 11.0833 5.54167 9.30762 5.54167 7.125C5.54167 4.94237 7.31738 3.16667 9.5 3.16667C11.6826 3.16667 13.4583 4.94237 13.4583 7.125C13.4583 9.30762 11.6826 11.0833 9.5 11.0833Z" fill="#C6A567"/>
  </g>
  <defs>
    <clipPath id="clip0_5885_78610">
      <rect width="19" height="19" fill="white"/>
    </clipPath>
  </defs>
</svg>