<svg width="19" height="19" viewBox="0 0 19 19" fill="none" xmlns="http://www.w3.org/2000/svg">
<g id="Frame">
<g id="Group">
<path id="Vector" d="M9.94706 1.34071L13.3 5.81131C13.5763 6.17969 13.3134 6.70542 12.8529 6.70542H6.14706C5.68657 6.70542 5.42368 6.17969 5.7 5.81131L9.05294 1.34071C9.27645 1.04268 9.72355 1.04268 9.94706 1.34071ZM9.94706 17.6584C9.72351 17.9564 9.27645 17.9564 9.05294 17.6584L5.7 13.1878C5.42372 12.8194 5.68657 12.2937 6.14706 12.2937H12.8529C13.3134 12.2937 13.5763 12.8194 13.3 13.1878L9.94706 17.6584ZM0.55883 10.0584C0.250191 10.0584 0 9.80818 0 9.49954C0 9.1909 0.250191 8.94071 0.55883 8.94071H18.4412C18.7498 8.94071 19 9.1909 19 9.49954C19 9.80818 18.7498 10.0584 18.4412 10.0584H0.55883Z" fill="#C6A567"/>
</g>
</g>
</svg>
