<svg width="25" height="17" viewBox="0 0 25 17" fill="none" xmlns="http://www.w3.org/2000/svg">
<path id="Vector" d="M20.3333 5.89542C20.8833 4.56212 21.75 3.24489 22.9083 1.97585C23.275 1.57425 23.325 0.995956 23.025 0.546171C22.7917 0.192766 22.4083 0 21.9917 0C21.875 0 21.7583 0.00803185 21.6417 0.0481911C19.1917 0.738935 13.4667 3.18867 13.3083 11.0439C13.25 14.0719 15.55 16.6742 18.5417 16.9714C20.2 17.1321 21.85 16.61 23.075 15.5498C23.6809 15.0202 24.1651 14.3743 24.4966 13.6537C24.8281 12.933 24.9996 12.1535 25 11.3651C25 8.71461 23.05 6.3934 20.3333 5.89542ZM5.24167 16.9714C6.89167 17.1321 8.54167 16.61 9.76667 15.5498C10.3726 15.0202 10.8568 14.3744 11.1884 13.6537C11.5199 12.933 11.6913 12.1535 11.6917 11.3651C11.6917 8.71461 9.74167 6.3934 7.025 5.89542C7.575 4.56212 8.44167 3.24489 9.6 1.97585C9.96667 1.57425 10.0167 0.995956 9.71667 0.546171C9.48333 0.192766 9.1 0 8.68333 0C8.56667 0 8.45 0.00803185 8.33333 0.0481911C5.88333 0.738935 0.158335 3.18867 0 11.0439V11.1563C0 14.1362 2.275 16.6742 5.24167 16.9714Z" fill="#DAB571"/>
</svg>
