<svg width="38" height="38" viewBox="0 0 38 38" fill="none" xmlns="http://www.w3.org/2000/svg">
<path d="M19.0351 37.1344H18.9528C8.81725 37.1344 0.570517 28.8854 0.570517 18.7467V18.6644C0.570517 8.52562 8.81725 0.276571 18.9528 0.276571H19.0351C29.1706 0.276571 37.4174 8.52562 37.4174 18.6644V18.7467C37.4174 28.8854 29.1706 37.1344 19.0351 37.1344Z" stroke="white" stroke-width="0.553143"/>
<path d="M12.4142 14.4856C12.0828 14.1779 11.918 13.7971 11.918 13.3439C11.918 12.8908 12.0836 12.4932 12.4142 12.1846C12.7455 11.8769 13.1721 11.7227 13.6947 11.7227C14.2174 11.7227 14.6272 11.8769 14.9577 12.1846C15.2891 12.4923 15.4539 12.8793 15.4539 13.3439C15.4539 13.8085 15.2882 14.1779 14.9577 14.4856C14.6263 14.7933 14.2059 14.9475 13.6947 14.9475C13.1836 14.9475 12.7455 14.7933 12.4142 14.4856ZM15.1754 16.2505V25.6836H12.1956V16.2505H15.1754Z" fill="white"/>
<path d="M25.0933 17.1829C25.7428 17.8882 26.0672 18.8562 26.0672 20.0887V25.5175H23.2372V20.4713C23.2372 19.8497 23.0759 19.3666 22.7542 19.0228C22.4325 18.679 21.9989 18.5062 21.456 18.5062C20.9131 18.5062 20.4795 18.6781 20.1578 19.0228C19.8361 19.3666 19.6748 19.8497 19.6748 20.4713V25.5175H16.8281V16.2246H19.6748V17.4571C19.963 17.0463 20.3517 16.7218 20.84 16.4829C21.3282 16.244 21.8773 16.125 22.4881 16.125C23.5756 16.125 24.4446 16.4776 25.0933 17.1829Z" fill="white"/>
</svg>
