<svg xmlns="http://www.w3.org/2000/svg" width="14" height="14" viewBox="0 0 14 14" fill="none">
  <g clip-path="url(#clip0_5536_69030)">
    <path d="M11.8125 1.75H11.375V1.3125C11.375 1.19647 11.3289 1.08519 11.2469 1.00314C11.1648 0.921094 11.0535 0.875 10.9375 0.875C10.8215 0.875 10.7102 0.921094 10.6281 1.00314C10.5461 1.08519 10.5 1.19647 10.5 1.3125V1.75H3.5V1.3125C3.5 1.19647 3.45391 1.08519 3.37186 1.00314C3.28981 0.921094 3.17853 0.875 3.0625 0.875C2.94647 0.875 2.83519 0.921094 2.75314 1.00314C2.67109 1.08519 2.625 1.19647 2.625 1.3125V1.75H2.1875C1.8394 1.75 1.50556 1.88828 1.25942 2.13442C1.01328 2.38056 0.875 2.7144 0.875 3.0625V11.8125C0.875 12.1606 1.01328 12.4944 1.25942 12.7406C1.50556 12.9867 1.8394 13.125 2.1875 13.125H11.8125C12.1606 13.125 12.4944 12.9867 12.7406 12.7406C12.9867 12.4944 13.125 12.1606 13.125 11.8125V3.0625C13.125 2.7144 12.9867 2.38056 12.7406 2.13442C12.4944 1.88828 12.1606 1.75 11.8125 1.75ZM12.25 11.8125C12.25 11.9285 12.2039 12.0398 12.1219 12.1219C12.0398 12.2039 11.9285 12.25 11.8125 12.25H2.1875C2.07147 12.25 1.96019 12.2039 1.87814 12.1219C1.79609 12.0398 1.75 11.9285 1.75 11.8125V5.25H12.25V11.8125ZM12.25 4.375H1.75V3.0625C1.75 2.94647 1.79609 2.83519 1.87814 2.75314C1.96019 2.67109 2.07147 2.625 2.1875 2.625H11.8125C11.9285 2.625 12.0398 2.67109 12.1219 2.75314C12.2039 2.83519 12.25 2.94647 12.25 3.0625V4.375ZM9.1875 10.5C9.1875 10.384 9.23359 10.2727 9.31564 10.1906C9.39769 10.1086 9.50897 10.0625 9.625 10.0625H10.5C10.616 10.0625 10.7273 10.1086 10.8094 10.1906C10.8914 10.2727 10.9375 10.384 10.9375 10.5C10.9375 10.616 10.8914 10.7273 10.8094 10.8094C10.7273 10.8914 10.616 10.9375 10.5 10.9375H9.625C9.50897 10.9375 9.39769 10.8914 9.31564 10.8094C9.23359 10.7273 9.1875 10.616 9.1875 10.5ZM6.125 7C6.125 6.88397 6.17109 6.77269 6.25314 6.69064C6.33519 6.60859 6.44647 6.5625 6.5625 6.5625H7.4375C7.55353 6.5625 7.66481 6.60859 7.74686 6.69064C7.82891 6.77269 7.875 6.88397 7.875 7C7.875 7.11603 7.82891 7.22731 7.74686 7.30936C7.66481 7.39141 7.55353 7.4375 7.4375 7.4375H6.5625C6.44647 7.4375 6.33519 7.39141 6.25314 7.30936C6.17109 7.22731 6.125 7.11603 6.125 7ZM9.1875 7C9.1875 6.88397 9.23359 6.77269 9.31564 6.69064C9.39769 6.60859 9.50897 6.5625 9.625 6.5625H10.5C10.616 6.5625 10.7273 6.60859 10.8094 6.69064C10.8914 6.77269 10.9375 6.88397 10.9375 7C10.9375 7.11603 10.8914 7.22731 10.8094 7.30936C10.7273 7.39141 10.616 7.4375 10.5 7.4375H9.625C9.50897 7.4375 9.39769 7.39141 9.31564 7.30936C9.23359 7.22731 9.1875 7.11603 9.1875 7ZM6.125 8.75C6.125 8.63397 6.17109 8.52269 6.25314 8.44064C6.33519 8.35859 6.44647 8.3125 6.5625 8.3125H7.4375C7.55353 8.3125 7.66481 8.35859 7.74686 8.44064C7.82891 8.52269 7.875 8.63397 7.875 8.75C7.875 8.86603 7.82891 8.97731 7.74686 9.05936C7.66481 9.14141 7.55353 9.1875 7.4375 9.1875H6.5625C6.44647 9.1875 6.33519 9.14141 6.25314 9.05936C6.17109 8.97731 6.125 8.86603 6.125 8.75ZM9.1875 8.75C9.1875 8.63397 9.23359 8.52269 9.31564 8.44064C9.39769 8.35859 9.50897 8.3125 9.625 8.3125H10.5C10.616 8.3125 10.7273 8.35859 10.8094 8.44064C10.8914 8.52269 10.9375 8.63397 10.9375 8.75C10.9375 8.86603 10.8914 8.97731 10.8094 9.05936C10.7273 9.14141 10.616 9.1875 10.5 9.1875H9.625C9.50897 9.1875 9.39769 9.14141 9.31564 9.05936C9.23359 8.97731 9.1875 8.86603 9.1875 8.75ZM3.0625 8.75C3.0625 8.63397 3.10859 8.52269 3.19064 8.44064C3.27269 8.35859 3.38397 8.3125 3.5 8.3125H4.375C4.49103 8.3125 4.60231 8.35859 4.68436 8.44064C4.76641 8.52269 4.8125 8.63397 4.8125 8.75C4.8125 8.86603 4.76641 8.97731 4.68436 9.05936C4.60231 9.14141 4.49103 9.1875 4.375 9.1875H3.5C3.38397 9.1875 3.27269 9.14141 3.19064 9.05936C3.10859 8.97731 3.0625 8.86603 3.0625 8.75ZM3.0625 10.5C3.0625 10.384 3.10859 10.2727 3.19064 10.1906C3.27269 10.1086 3.38397 10.0625 3.5 10.0625H4.375C4.49103 10.0625 4.60231 10.1086 4.68436 10.1906C4.76641 10.2727 4.8125 10.384 4.8125 10.5C4.8125 10.616 4.76641 10.7273 4.68436 10.8094C4.60231 10.8914 4.49103 10.9375 4.375 10.9375H3.5C3.38397 10.9375 3.27269 10.8914 3.19064 10.8094C3.10859 10.7273 3.0625 10.616 3.0625 10.5ZM3.0625 7C3.0625 6.88397 3.10859 6.77269 3.19064 6.69064C3.27269 6.60859 3.38397 6.5625 3.5 6.5625H4.375C4.49103 6.5625 4.60231 6.60859 4.68436 6.69064C4.76641 6.77269 4.8125 6.88397 4.8125 7C4.8125 7.11603 4.76641 7.22731 4.68436 7.30936C4.60231 7.39141 4.49103 7.4375 4.375 7.4375H3.5C3.38397 7.4375 3.27269 7.39141 3.19064 7.30936C3.10859 7.22731 3.0625 7.11603 3.0625 7ZM6.125 10.5C6.125 10.384 6.17109 10.2727 6.25314 10.1906C6.33519 10.1086 6.44647 10.0625 6.5625 10.0625H7.4375C7.55353 10.0625 7.66481 10.1086 7.74686 10.1906C7.82891 10.2727 7.875 10.384 7.875 10.5C7.875 10.616 7.82891 10.7273 7.74686 10.8094C7.66481 10.8914 7.55353 10.9375 7.4375 10.9375H6.5625C6.44647 10.9375 6.33519 10.8914 6.25314 10.8094C6.17109 10.7273 6.125 10.616 6.125 10.5Z" fill="#484F57"/>
  </g>
  <defs>
    <clipPath id="clip0_5536_69030">
      <rect width="14" height="14" fill="white"/>
    </clipPath>
  </defs>
</svg>