<svg width="32" height="33" viewBox="0 0 32 33" fill="none" xmlns="http://www.w3.org/2000/svg">
<g id="Frame" clip-path="url(#clip0_4987_60776)">
<g id="Group">
<path id="Vector" d="M4.99475 5.89475H15.5999V7.49314C8.74952 7.69713 3.08997 13.1115 2.63198 19.989L1.94398 29.4977C1.9168 29.8814 1.9687 30.2666 2.09647 30.6294C2.22424 30.9922 2.42516 31.3249 2.68677 31.6069C2.94919 31.8882 3.26658 32.1126 3.61928 32.2662C3.97198 32.4197 4.35247 32.4992 4.73716 32.4997H27.2625C27.6472 32.4992 28.0277 32.4197 28.3804 32.2662C28.7331 32.1126 29.0505 31.8882 29.3129 31.6069C29.5745 31.3249 29.7753 30.9922 29.903 30.6294C30.0307 30.2666 30.0826 29.8814 30.0553 29.4977L29.3677 19.9918C28.9097 13.1115 23.2502 7.69753 16.3998 7.49314V5.89475H27.005C29.7589 5.89475 31.9997 3.65397 31.9997 0.899996C31.9997 0.793911 31.9576 0.69217 31.8825 0.617156C31.8075 0.542142 31.7058 0.5 31.5997 0.5H0.399996C0.293911 0.5 0.19217 0.542142 0.117156 0.617156C0.0421424 0.69217 0 0.793911 0 0.899996C0 3.65397 2.24078 5.89475 4.99475 5.89475ZM28.5697 20.0466L29.2573 29.5557C29.2784 29.8299 29.2421 30.1054 29.1508 30.3648C29.0595 30.6242 28.9151 30.8616 28.7269 31.0621C28.5405 31.2642 28.3141 31.4252 28.0621 31.535C27.81 31.6448 27.5379 31.7009 27.2629 31.6997H4.73676C4.46178 31.7009 4.18956 31.6449 3.93744 31.5351C3.68531 31.4253 3.45882 31.2642 3.27237 31.0621C3.08417 30.8616 2.93981 30.6242 2.84849 30.3648C2.75717 30.1054 2.72089 29.8299 2.74197 29.5557L3.42957 20.0442C3.86916 13.4495 9.39071 8.28393 15.9999 8.28393C22.609 8.28393 28.1305 13.4495 28.5697 20.0466ZM31.1809 1.29999C30.9785 3.42597 29.1829 5.09476 27.005 5.09476H4.99475C2.81677 5.09476 1.02119 3.42597 0.818792 1.29999H31.1809Z" fill="#FE4127"/>
<path id="Vector_2" d="M7.50195 20.3807C7.50195 25.0667 11.3139 28.8787 15.9999 28.8787C20.6858 28.8787 24.4978 25.0667 24.4978 20.3807C24.4978 15.6948 20.6858 11.8828 15.9999 11.8828C11.3139 11.8828 7.50195 15.6948 7.50195 20.3807ZM23.6978 20.3807C23.6978 24.6255 20.2446 28.0787 15.9999 28.0787C11.7551 28.0787 8.30195 24.6255 8.30195 20.3807C8.30195 16.136 11.7551 12.6828 15.9999 12.6828C20.2446 12.6828 23.6978 16.136 23.6978 20.3807Z" fill="#FE4127"/>
<path id="Vector_3" d="M15.6004 14.5801V15.7437C15.6004 15.8498 15.6426 15.9515 15.7176 16.0265C15.7926 16.1015 15.8943 16.1437 16.0004 16.1437C16.1065 16.1437 16.2082 16.1015 16.2833 16.0265C16.3583 15.9515 16.4004 15.8498 16.4004 15.7437V14.5797C16.4004 14.4736 16.3583 14.3719 16.2833 14.2968C16.2082 14.2218 16.1065 14.1797 16.0004 14.1797C15.8943 14.1797 15.7926 14.2218 15.7176 14.2968C15.6426 14.3719 15.6004 14.474 15.6004 14.5801ZM12.1797 15.9969C12.1428 15.9587 12.0986 15.9282 12.0498 15.9072C12.001 15.8863 11.9485 15.8752 11.8954 15.8748C11.8423 15.8743 11.7896 15.8844 11.7405 15.9045C11.6913 15.9247 11.6467 15.9544 11.6091 15.9919C11.5715 16.0295 11.5418 16.0741 11.5217 16.1233C11.5016 16.1724 11.4915 16.2251 11.492 16.2782C11.4924 16.3313 11.5035 16.3838 11.5244 16.4326C11.5454 16.4814 11.5759 16.5256 11.6141 16.5625L12.4368 17.3853C12.4739 17.4225 12.518 17.4521 12.5665 17.4723C12.615 17.4925 12.6671 17.5029 12.7196 17.5029C12.7722 17.5029 12.8243 17.4925 12.8728 17.4723C12.9213 17.4521 12.9654 17.4225 13.0024 17.3853C13.0774 17.3102 13.1196 17.2085 13.1196 17.1025C13.1196 16.9964 13.0774 16.8947 13.0024 16.8197L12.1797 15.9969ZM11.7605 20.3832C11.7605 20.2771 11.7183 20.1754 11.6433 20.1004C11.5683 20.0254 11.4665 19.9832 11.3605 19.9832H10.1969C10.0908 19.9832 9.98904 20.0254 9.91403 20.1004C9.83902 20.1754 9.79688 20.2771 9.79688 20.3832C9.79688 20.4893 9.83902 20.5911 9.91403 20.6661C9.98904 20.7411 10.0908 20.7832 10.1969 20.7832H11.3609C11.4669 20.7832 11.5687 20.7411 11.6437 20.6661C11.7187 20.5911 11.7605 20.4893 11.7605 20.3832ZM12.4368 23.3812L11.6141 24.204C11.5759 24.2409 11.5454 24.285 11.5244 24.3338C11.5035 24.3826 11.4924 24.4351 11.492 24.4882C11.4915 24.5413 11.5016 24.594 11.5217 24.6432C11.5418 24.6923 11.5715 24.737 11.6091 24.7745C11.6467 24.8121 11.6913 24.8418 11.7405 24.8619C11.7896 24.882 11.8423 24.8921 11.8954 24.8917C11.9485 24.8912 12.001 24.8802 12.0498 24.8592C12.0986 24.8383 12.1428 24.8078 12.1797 24.7696L13.0024 23.9468C13.0406 23.9099 13.0711 23.8658 13.0921 23.817C13.113 23.7682 13.1241 23.7157 13.1245 23.6626C13.125 23.6094 13.1149 23.5568 13.0948 23.5076C13.0747 23.4585 13.045 23.4138 13.0074 23.3762C12.9698 23.3387 12.9252 23.309 12.876 23.2889C12.8269 23.2688 12.7742 23.2586 12.7211 23.2591C12.668 23.2596 12.6155 23.2706 12.5667 23.2916C12.5179 23.3125 12.4737 23.343 12.4368 23.3812ZM16.0004 24.6228C15.8943 24.6228 15.7926 24.6649 15.7176 24.7399C15.6426 24.815 15.6004 24.9167 15.6004 25.0228V26.1868C15.6004 26.2929 15.6426 26.3946 15.7176 26.4696C15.7926 26.5446 15.8943 26.5868 16.0004 26.5868C16.1065 26.5868 16.2082 26.5446 16.2833 26.4696C16.3583 26.3946 16.4004 26.2929 16.4004 26.1868V25.0228C16.4004 24.9167 16.3583 24.815 16.2833 24.7399C16.2082 24.6649 16.1065 24.6228 16.0004 24.6228ZM19.8212 24.7696C19.8582 24.8069 19.9023 24.8364 19.9508 24.8566C19.9994 24.8768 20.0514 24.8872 20.104 24.8872C20.1565 24.8872 20.2086 24.8768 20.2571 24.8566C20.3057 24.8364 20.3497 24.8069 20.3868 24.7696C20.4618 24.6946 20.5039 24.5929 20.5039 24.4868C20.5039 24.3807 20.4618 24.279 20.3868 24.204L19.564 23.3812C19.5271 23.343 19.4829 23.3125 19.4341 23.2916C19.3853 23.2706 19.3329 23.2596 19.2797 23.2591C19.2266 23.2586 19.174 23.2688 19.1248 23.2889C19.0756 23.309 19.031 23.3387 18.9934 23.3762C18.9559 23.4138 18.9262 23.4585 18.9061 23.5076C18.8859 23.5568 18.8758 23.6094 18.8763 23.6626C18.8768 23.7157 18.8878 23.7682 18.9087 23.817C18.9297 23.8658 18.9602 23.9099 18.9984 23.9468L19.8212 24.7696ZM20.2404 20.3832C20.2404 20.4893 20.2825 20.5911 20.3575 20.6661C20.4325 20.7411 20.5343 20.7832 20.6404 20.7832H21.804C21.91 20.7832 22.0118 20.7411 22.0868 20.6661C22.1618 20.5911 22.204 20.4893 22.204 20.3832C22.204 20.2771 22.1618 20.1754 22.0868 20.1004C22.0118 20.0254 21.91 19.9832 21.804 19.9832H20.64C20.5339 19.9832 20.4321 20.0254 20.3571 20.1004C20.2821 20.1754 20.2404 20.2771 20.2404 20.3832ZM19.2812 17.5025C19.3337 17.5025 19.3857 17.4922 19.4343 17.4721C19.4828 17.452 19.5269 17.4225 19.564 17.3853L20.3868 16.5625C20.425 16.5256 20.4555 16.4814 20.4764 16.4326C20.4974 16.3838 20.5084 16.3313 20.5089 16.2782C20.5093 16.2251 20.4992 16.1724 20.4791 16.1233C20.459 16.0741 20.4293 16.0295 20.3917 15.9919C20.3542 15.9544 20.3095 15.9247 20.2604 15.9045C20.2112 15.8844 20.1585 15.8743 20.1054 15.8748C20.0523 15.8752 19.9998 15.8863 19.951 15.9072C19.9022 15.9282 19.8581 15.9587 19.8212 15.9969L18.9984 16.8197C18.9425 16.8756 18.9044 16.9469 18.889 17.0244C18.8735 17.102 18.8815 17.1824 18.9117 17.2555C18.942 17.3286 18.9932 17.3911 19.059 17.435C19.1248 17.479 19.2021 17.5024 19.2812 17.5025ZM15.7176 20.666C15.7547 20.7033 15.7987 20.7329 15.8473 20.7531C15.8958 20.7732 15.9479 20.7836 16.0004 20.7836C16.053 20.7836 16.105 20.7732 16.1536 20.7531C16.2021 20.7329 16.2462 20.7033 16.2832 20.666L17.9364 19.0128C17.9746 18.9759 18.0051 18.9318 18.026 18.883C18.047 18.8342 18.058 18.7817 18.0585 18.7286C18.059 18.6755 18.0488 18.6228 18.0287 18.5737C18.0086 18.5245 17.9789 18.4798 17.9414 18.4423C17.9038 18.4047 17.8591 18.375 17.81 18.3549C17.7608 18.3348 17.7082 18.3247 17.655 18.3251C17.6019 18.3256 17.5494 18.3366 17.5006 18.3576C17.4518 18.3786 17.4077 18.409 17.3708 18.4472L15.7176 20.1C15.6426 20.175 15.6005 20.2768 15.6005 20.3828C15.6005 20.4889 15.6426 20.591 15.7176 20.666Z" fill="#FE4127"/>
</g>
</g>
<defs>
<clipPath id="clip0_4987_60776">
<rect width="32" height="32" fill="white" transform="translate(0 0.5)"/>
</clipPath>
</defs>
</svg>
