<svg width="24" height="24" viewBox="0 0 24 24" fill="none" xmlns="http://www.w3.org/2000/svg">
<g id="Frame">
<g id="Group">
<path id="Vector" d="M16.315 23.7756H7.71344C7.56624 23.7756 7.44678 23.6562 7.44678 23.509V0.571354C7.44678 0.424154 7.56624 0.304688 7.71344 0.304688H16.315C16.4622 0.304688 16.5817 0.424154 16.5817 0.571354V23.509C16.5817 23.6562 16.4622 23.7756 16.315 23.7756ZM7.98011 23.2423H16.0484V0.838021H7.98011V23.2423Z" fill="#DAB571"/>
<path id="Vector_2" d="M9.53766 23.7756C9.39046 23.7756 9.271 23.6562 9.271 23.509V0.571354C9.271 0.424154 9.39046 0.304688 9.53766 0.304688C9.68486 0.304688 9.80433 0.424154 9.80433 0.571354V23.509C9.80433 23.6562 9.68486 23.7756 9.53766 23.7756Z" fill="#DAB571"/>
<path id="Vector_3" d="M11.3297 3.11725H9.53766C9.39046 3.11725 9.271 2.99779 9.271 2.85059C9.271 2.70339 9.39046 2.58392 9.53766 2.58392H11.3297C11.4769 2.58392 11.5963 2.70339 11.5963 2.85059C11.5963 2.99779 11.4769 3.11725 11.3297 3.11725ZM10.4337 4.64899H9.53766C9.39046 4.64899 9.271 4.52952 9.271 4.38232C9.271 4.23512 9.39046 4.11565 9.53766 4.11565H10.4337C10.5809 4.11565 10.7003 4.23512 10.7003 4.38232C10.7003 4.52952 10.5809 4.64899 10.4337 4.64899ZM11.3297 6.18019H9.53766C9.39046 6.18019 9.271 6.06072 9.271 5.91352C9.271 5.76632 9.39046 5.64685 9.53766 5.64685H11.3297C11.4769 5.64685 11.5963 5.76632 11.5963 5.91352C11.5963 6.06072 11.4769 6.18019 11.3297 6.18019ZM10.4337 7.71139H9.53766C9.39046 7.71139 9.271 7.59192 9.271 7.44472C9.271 7.29752 9.39046 7.17805 9.53766 7.17805H10.4337C10.5809 7.17805 10.7003 7.29752 10.7003 7.44472C10.7003 7.59192 10.5809 7.71139 10.4337 7.71139ZM11.3297 9.24259H9.53766C9.39046 9.24259 9.271 9.12312 9.271 8.97592C9.271 8.82872 9.39046 8.70925 9.53766 8.70925H11.3297C11.4769 8.70925 11.5963 8.82872 11.5963 8.97592C11.5963 9.12312 11.4769 9.24259 11.3297 9.24259ZM10.4337 10.7743H9.53766C9.39046 10.7743 9.271 10.6549 9.271 10.5077C9.271 10.3605 9.39046 10.241 9.53766 10.241H10.4337C10.5809 10.241 10.7003 10.3605 10.7003 10.5077C10.7003 10.6549 10.5809 10.7743 10.4337 10.7743ZM11.3297 12.3055H9.53766C9.39046 12.3055 9.271 12.1861 9.271 12.0389C9.271 11.8917 9.39046 11.7722 9.53766 11.7722H11.3297C11.4769 11.7722 11.5963 11.8917 11.5963 12.0389C11.5963 12.1861 11.4769 12.3055 11.3297 12.3055ZM10.4337 13.8367H9.53766C9.39046 13.8367 9.271 13.7173 9.271 13.5701C9.271 13.4229 9.39046 13.3034 9.53766 13.3034H10.4337C10.5809 13.3034 10.7003 13.4229 10.7003 13.5701C10.7003 13.7173 10.5809 13.8367 10.4337 13.8367ZM11.3297 15.3685H9.53766C9.39046 15.3685 9.271 15.249 9.271 15.1018C9.271 14.9546 9.39046 14.8351 9.53766 14.8351H11.3297C11.4769 14.8351 11.5963 14.9546 11.5963 15.1018C11.5963 15.249 11.4769 15.3685 11.3297 15.3685ZM10.4337 16.8997H9.53766C9.39046 16.8997 9.271 16.7802 9.271 16.633C9.271 16.4858 9.39046 16.3663 9.53766 16.3663H10.4337C10.5809 16.3663 10.7003 16.4858 10.7003 16.633C10.7003 16.7802 10.5809 16.8997 10.4337 16.8997ZM11.3297 18.4309H9.53766C9.39046 18.4309 9.271 18.3114 9.271 18.1642C9.271 18.017 9.39046 17.8975 9.53766 17.8975H11.3297C11.4769 17.8975 11.5963 18.017 11.5963 18.1642C11.5963 18.3114 11.4769 18.4309 11.3297 18.4309ZM10.4337 19.9621H9.53766C9.39046 19.9621 9.271 19.8426 9.271 19.6954C9.271 19.5482 9.39046 19.4287 9.53766 19.4287H10.4337C10.5809 19.4287 10.7003 19.5482 10.7003 19.6954C10.7003 19.8426 10.5809 19.9621 10.4337 19.9621ZM11.3297 21.4938H9.53766C9.39046 21.4938 9.271 21.3743 9.271 21.2271C9.271 21.0799 9.39046 20.9605 9.53766 20.9605H11.3297C11.4769 20.9605 11.5963 21.0799 11.5963 21.2271C11.5963 21.3743 11.4769 21.4938 11.3297 21.4938ZM19.3899 21.5855C19.2427 21.5855 19.1233 21.4661 19.1233 21.3189V2.75885C19.1233 2.61165 19.2427 2.49219 19.3899 2.49219C19.5371 2.49219 19.6566 2.61165 19.6566 2.75885V21.3189C19.6566 21.4661 19.5371 21.5855 19.3899 21.5855Z" fill="#DAB571"/>
<path id="Vector_4" d="M20.6132 5.14339C20.5209 5.14339 20.4313 5.09539 20.3822 5.01005L19.3902 3.29219L18.3982 5.01005C18.3246 5.13752 18.1614 5.18125 18.034 5.10765C17.9065 5.03405 17.8628 4.87085 17.9364 4.74339L19.1593 2.62552C19.2068 2.54285 19.2948 2.49219 19.3902 2.49219C19.4857 2.49219 19.5737 2.54285 19.6212 2.62552L20.8441 4.74339C20.8675 4.78393 20.8798 4.82991 20.8798 4.8767C20.8797 4.9235 20.8674 4.96947 20.844 5.01C20.8206 5.05052 20.787 5.08418 20.7465 5.1076C20.7059 5.13101 20.66 5.14335 20.6132 5.14339ZM4.63825 21.5855C4.49105 21.5855 4.37158 21.4661 4.37158 21.3189V2.75885C4.37158 2.61165 4.49105 2.49219 4.63825 2.49219C4.78545 2.49219 4.90492 2.61165 4.90492 2.75885V21.3189C4.90492 21.4661 4.78545 21.5855 4.63825 21.5855Z" fill="#DAB571"/>
<path id="Vector_5" d="M4.63804 21.5887C4.54258 21.5887 4.45458 21.538 4.40711 21.4554L3.18418 19.3375C3.11058 19.21 3.15431 19.0468 3.28178 18.9732C3.40924 18.8996 3.57244 18.9434 3.64604 19.0708L4.63804 20.7887L5.63004 19.0708C5.70364 18.9434 5.86684 18.8996 5.99431 18.9732C6.12178 19.0468 6.16551 19.21 6.09191 19.3375L4.86898 21.4554C4.84563 21.496 4.81199 21.5297 4.77143 21.5531C4.73088 21.5765 4.68487 21.5888 4.63804 21.5887Z" fill="#DAB571"/>
</g>
</g>
</svg>
