<svg width="32" height="33" viewBox="0 0 32 33" fill="none" xmlns="http://www.w3.org/2000/svg">
<g id="Frame" clip-path="url(#clip0_4502_63907)">
<g id="Group">
<path id="Vector" d="M16.0006 0.875C7.38577 0.875 0.376953 7.88381 0.376953 16.4987C0.376953 25.1136 7.38577 32.1224 16.0006 32.1224C24.6155 32.1224 31.6243 25.1136 31.6243 16.4987C31.6243 7.88381 24.6155 0.875 16.0006 0.875ZM16.0006 31.4067C7.78033 31.4067 1.09258 24.719 1.09258 16.4987C1.09258 8.27838 7.78033 1.59062 16.0006 1.59062C24.221 1.59062 30.9087 8.27838 30.9087 16.4987C30.9087 24.719 24.221 31.4067 16.0006 31.4067Z" fill="#DAB571"/>
<path id="Vector_2" d="M16.8646 4.13155C7.81474 3.51824 1.30418 12.4218 4.35193 20.7537C4.89305 22.2327 6.30568 23.2264 7.86712 23.2264H24.1323C25.6844 23.2264 27.0872 22.2597 27.6232 20.8209C30.5037 13.0872 25.1076 4.69168 16.8646 4.13155ZM26.9526 20.5712C26.5205 21.7314 25.3871 22.5108 24.1323 22.5108H7.86712C6.6048 22.5108 5.46224 21.7059 5.02399 20.5079C2.16918 12.7016 8.2418 4.26355 16.8162 4.84549C24.5749 5.37268 29.6697 13.2752 26.9526 20.5712Z" fill="#DAB571"/>
<g id="Group_2">
<path id="Vector_3" d="M16.0008 8.85194C16.0478 8.85195 16.0943 8.8427 16.1377 8.82472C16.1811 8.80674 16.2206 8.78038 16.2538 8.74715C16.287 8.71393 16.3134 8.67448 16.3314 8.63106C16.3493 8.58765 16.3586 8.54112 16.3586 8.49412V6.42031C16.3586 6.22269 16.1985 6.0625 16.0008 6.0625C15.8031 6.0625 15.643 6.22262 15.643 6.42031V8.49419C15.643 8.54117 15.6522 8.5877 15.6702 8.63111C15.6882 8.67452 15.7145 8.71396 15.7478 8.74718C15.781 8.7804 15.8204 8.80675 15.8638 8.82472C15.9073 8.8427 15.9538 8.85195 16.0008 8.85194ZM23.261 9.27944L21.7945 10.7459C21.7613 10.7791 21.7349 10.8185 21.7169 10.8619C21.699 10.9053 21.6897 10.9519 21.6897 10.9988C21.6897 11.0458 21.699 11.0924 21.7169 11.1358C21.7349 11.1792 21.7613 11.2186 21.7945 11.2518C21.8277 11.285 21.8672 11.3114 21.9106 11.3294C21.954 11.3474 22.0005 11.3566 22.0475 11.3566C22.0945 11.3566 22.141 11.3474 22.1844 11.3294C22.2278 11.3114 22.2672 11.285 22.3005 11.2518L23.767 9.78538C23.8002 9.75216 23.8265 9.71272 23.8445 9.66932C23.8625 9.62591 23.8718 9.57939 23.8718 9.53241C23.8718 9.48542 23.8625 9.4389 23.8445 9.3955C23.8265 9.35209 23.8002 9.31265 23.767 9.27944C23.7337 9.24619 23.6943 9.21982 23.6509 9.20183C23.6075 9.18384 23.561 9.17458 23.514 9.17458C23.467 9.17458 23.4205 9.18384 23.3771 9.20183C23.3337 9.21982 23.2942 9.24619 23.261 9.27944ZM24.5522 17.4035H26.6261C26.8237 17.4035 26.9839 17.2434 26.9839 17.0457C26.9839 16.848 26.8238 16.6879 26.6261 16.6879H24.5522C24.3546 16.6879 24.1944 16.848 24.1944 17.0457C24.1944 17.2434 24.3545 17.4035 24.5522 17.4035ZM7.4492 16.6879H5.37539C5.17777 16.6879 5.01758 16.8481 5.01758 17.0457C5.01758 17.2434 5.1777 17.4036 5.37539 17.4036H7.44927C7.64689 17.4036 7.80708 17.2434 7.80708 17.0457C7.80708 16.8481 7.64689 16.6879 7.4492 16.6879ZM8.74039 9.27944C8.70717 9.24621 8.66774 9.21985 8.62433 9.20187C8.58093 9.18388 8.5344 9.17463 8.48742 9.17463C8.44044 9.17463 8.39392 9.18388 8.35051 9.20187C8.30711 9.21985 8.26767 9.24621 8.23445 9.27944C8.20123 9.31265 8.17487 9.35209 8.15688 9.3955C8.1389 9.4389 8.12964 9.48542 8.12964 9.53241C8.12964 9.57939 8.1389 9.62591 8.15688 9.66932C8.17487 9.71272 8.20123 9.75216 8.23445 9.78538L9.70089 11.2518C9.73411 11.285 9.77354 11.3114 9.81695 11.3294C9.86035 11.3474 9.90688 11.3566 9.95386 11.3566C10.0008 11.3566 10.0474 11.3474 10.0908 11.3294C10.1342 11.3114 10.1736 11.285 10.2068 11.2518C10.2401 11.2186 10.2664 11.1792 10.2844 11.1358C10.3024 11.0924 10.3116 11.0458 10.3116 10.9988C10.3116 10.9519 10.3024 10.9053 10.2844 10.8619C10.2664 10.8185 10.2401 10.7791 10.2068 10.7459L8.74039 9.27944ZM23.2073 12.5059L18.2531 13.9419C18.0632 13.9969 17.954 14.1954 18.009 14.3852C18.0639 14.5749 18.2626 14.6839 18.4523 14.6293L22.218 13.5377L19.6378 16.4454C19.5769 16.5167 19.5464 16.6091 19.5528 16.7026C19.5593 16.7962 19.6022 16.8835 19.6723 16.9457C19.7425 17.0079 19.8343 17.0401 19.9279 17.0354C20.0216 17.0307 20.1096 16.9894 20.1731 16.9204L23.5746 13.0871C23.6262 13.0291 23.6574 12.9559 23.6637 12.8786C23.67 12.8013 23.651 12.724 23.6095 12.6584C23.5681 12.5928 23.5064 12.5425 23.4339 12.515C23.3614 12.4875 23.2818 12.4843 23.2073 12.5059ZM16.0008 14.5884C14.3918 14.5884 13.0826 15.8976 13.0826 17.5066C13.0826 19.1156 14.3918 20.4246 16.0008 20.4246C17.6098 20.4246 18.9188 19.1156 18.9188 17.5066C18.9188 15.8976 17.6098 14.5884 16.0008 14.5884ZM16.0008 19.709C14.7862 19.709 13.7982 18.721 13.7982 17.5066C13.7982 16.292 14.7862 15.304 16.0008 15.304C17.2152 15.304 18.2032 16.292 18.2032 17.5066C18.2032 18.721 17.2152 19.709 16.0008 19.709Z" fill="#DAB571"/>
</g>
<path id="Vector_4" d="M18.9574 24.5547H13.043C11.8293 24.5547 10.8418 25.5421 10.8418 26.7559C10.8418 27.9696 11.8294 28.9571 13.043 28.9571H18.9574C20.1711 28.9571 21.1585 27.9696 21.1585 26.7559C21.1585 25.5422 20.171 24.5547 18.9574 24.5547ZM18.9574 28.2415H13.043C12.2238 28.2415 11.5574 27.5751 11.5574 26.7558C11.5574 25.9367 12.2238 25.2703 13.043 25.2703H18.9574C19.7765 25.2703 20.4429 25.9367 20.4429 26.7558C20.4429 27.5751 19.7765 28.2415 18.9574 28.2415Z" fill="#DAB571"/>
</g>
</g>
<defs>
<clipPath id="clip0_4502_63907">
<rect width="32" height="32" fill="white" transform="translate(0 0.5)"/>
</clipPath>
</defs>
</svg>
