<svg xmlns="http://www.w3.org/2000/svg" width="14" height="15" viewBox="0 0 14 15" fill="none">
<path d="M11.8125 2.25H11.375V1.8125C11.375 1.69647 11.3289 1.58519 11.2469 1.50314C11.1648 1.42109 11.0535 1.375 10.9375 1.375C10.8215 1.375 10.7102 1.42109 10.6281 1.50314C10.5461 1.58519 10.5 1.69647 10.5 1.8125V2.25H3.5V1.8125C3.5 1.69647 3.45391 1.58519 3.37186 1.50314C3.28981 1.42109 3.17853 1.375 3.0625 1.375C2.94647 1.375 2.83519 1.42109 2.75314 1.50314C2.67109 1.58519 2.625 1.69647 2.625 1.8125V2.25H2.1875C1.8394 2.25 1.50556 2.38828 1.25942 2.63442C1.01328 2.88056 0.875 3.2144 0.875 3.5625V12.3125C0.875 12.6606 1.01328 12.9944 1.25942 13.2406C1.50556 13.4867 1.8394 13.625 2.1875 13.625H11.8125C12.1606 13.625 12.4944 13.4867 12.7406 13.2406C12.9867 12.9944 13.125 12.6606 13.125 12.3125V3.5625C13.125 3.2144 12.9867 2.88056 12.7406 2.63442C12.4944 2.38828 12.1606 2.25 11.8125 2.25ZM12.25 12.3125C12.25 12.4285 12.2039 12.5398 12.1219 12.6219C12.0398 12.7039 11.9285 12.75 11.8125 12.75H2.1875C2.07147 12.75 1.96019 12.7039 1.87814 12.6219C1.79609 12.5398 1.75 12.4285 1.75 12.3125V5.75H12.25V12.3125ZM12.25 4.875H1.75V3.5625C1.75 3.44647 1.79609 3.33519 1.87814 3.25314C1.96019 3.17109 2.07147 3.125 2.1875 3.125H11.8125C11.9285 3.125 12.0398 3.17109 12.1219 3.25314C12.2039 3.33519 12.25 3.44647 12.25 3.5625V4.875ZM9.1875 11C9.1875 10.884 9.23359 10.7727 9.31564 10.6906C9.39769 10.6086 9.50897 10.5625 9.625 10.5625H10.5C10.616 10.5625 10.7273 10.6086 10.8094 10.6906C10.8914 10.7727 10.9375 10.884 10.9375 11C10.9375 11.116 10.8914 11.2273 10.8094 11.3094C10.7273 11.3914 10.616 11.4375 10.5 11.4375H9.625C9.50897 11.4375 9.39769 11.3914 9.31564 11.3094C9.23359 11.2273 9.1875 11.116 9.1875 11ZM6.125 7.5C6.125 7.38397 6.17109 7.27269 6.25314 7.19064C6.33519 7.10859 6.44647 7.0625 6.5625 7.0625H7.4375C7.55353 7.0625 7.66481 7.10859 7.74686 7.19064C7.82891 7.27269 7.875 7.38397 7.875 7.5C7.875 7.61603 7.82891 7.72731 7.74686 7.80936C7.66481 7.89141 7.55353 7.9375 7.4375 7.9375H6.5625C6.44647 7.9375 6.33519 7.89141 6.25314 7.80936C6.17109 7.72731 6.125 7.61603 6.125 7.5ZM9.1875 7.5C9.1875 7.38397 9.23359 7.27269 9.31564 7.19064C9.39769 7.10859 9.50897 7.0625 9.625 7.0625H10.5C10.616 7.0625 10.7273 7.10859 10.8094 7.19064C10.8914 7.27269 10.9375 7.38397 10.9375 7.5C10.9375 7.61603 10.8914 7.72731 10.8094 7.80936C10.7273 7.89141 10.616 7.9375 10.5 7.9375H9.625C9.50897 7.9375 9.39769 7.89141 9.31564 7.80936C9.23359 7.72731 9.1875 7.61603 9.1875 7.5ZM6.125 9.25C6.125 9.13397 6.17109 9.02269 6.25314 8.94064C6.33519 8.85859 6.44647 8.8125 6.5625 8.8125H7.4375C7.55353 8.8125 7.66481 8.85859 7.74686 8.94064C7.82891 9.02269 7.875 9.13397 7.875 9.25C7.875 9.36603 7.82891 9.47731 7.74686 9.55936C7.66481 9.64141 7.55353 9.6875 7.4375 9.6875H6.5625C6.44647 9.6875 6.33519 9.64141 6.25314 9.55936C6.17109 9.47731 6.125 9.36603 6.125 9.25ZM9.1875 9.25C9.1875 9.13397 9.23359 9.02269 9.31564 8.94064C9.39769 8.85859 9.50897 8.8125 9.625 8.8125H10.5C10.616 8.8125 10.7273 8.85859 10.8094 8.94064C10.8914 9.02269 10.9375 9.13397 10.9375 9.25C10.9375 9.36603 10.8914 9.47731 10.8094 9.55936C10.7273 9.64141 10.616 9.6875 10.5 9.6875H9.625C9.50897 9.6875 9.39769 9.64141 9.31564 9.55936C9.23359 9.47731 9.1875 9.36603 9.1875 9.25ZM3.0625 9.25C3.0625 9.13397 3.10859 9.02269 3.19064 8.94064C3.27269 8.85859 3.38397 8.8125 3.5 8.8125H4.375C4.49103 8.8125 4.60231 8.85859 4.68436 8.94064C4.76641 9.02269 4.8125 9.13397 4.8125 9.25C4.8125 9.36603 4.76641 9.47731 4.68436 9.55936C4.60231 9.64141 4.49103 9.6875 4.375 9.6875H3.5C3.38397 9.6875 3.27269 9.64141 3.19064 9.55936C3.10859 9.47731 3.0625 9.36603 3.0625 9.25ZM3.0625 11C3.0625 10.884 3.10859 10.7727 3.19064 10.6906C3.27269 10.6086 3.38397 10.5625 3.5 10.5625H4.375C4.49103 10.5625 4.60231 10.6086 4.68436 10.6906C4.76641 10.7727 4.8125 10.884 4.8125 11C4.8125 11.116 4.76641 11.2273 4.68436 11.3094C4.60231 11.3914 4.49103 11.4375 4.375 11.4375H3.5C3.38397 11.4375 3.27269 11.3914 3.19064 11.3094C3.10859 11.2273 3.0625 11.116 3.0625 11ZM3.0625 7.5C3.0625 7.38397 3.10859 7.27269 3.19064 7.19064C3.27269 7.10859 3.38397 7.0625 3.5 7.0625H4.375C4.49103 7.0625 4.60231 7.10859 4.68436 7.19064C4.76641 7.27269 4.8125 7.38397 4.8125 7.5C4.8125 7.61603 4.76641 7.72731 4.68436 7.80936C4.60231 7.89141 4.49103 7.9375 4.375 7.9375H3.5C3.38397 7.9375 3.27269 7.89141 3.19064 7.80936C3.10859 7.72731 3.0625 7.61603 3.0625 7.5ZM6.125 11C6.125 10.884 6.17109 10.7727 6.25314 10.6906C6.33519 10.6086 6.44647 10.5625 6.5625 10.5625H7.4375C7.55353 10.5625 7.66481 10.6086 7.74686 10.6906C7.82891 10.7727 7.875 10.884 7.875 11C7.875 11.116 7.82891 11.2273 7.74686 11.3094C7.66481 11.3914 7.55353 11.4375 7.4375 11.4375H6.5625C6.44647 11.4375 6.33519 11.3914 6.25314 11.3094C6.17109 11.2273 6.125 11.116 6.125 11Z" fill="white"/>
</svg>