<svg width="28" height="28" viewBox="0 0 28 28" fill="none" xmlns="http://www.w3.org/2000/svg">
<circle cx="14" cy="14" r="14" fill="#484F57"/>
<path d="M12.25 12.25V10.6168C12.25 9.96339 12.25 9.63645 12.3772 9.38688C12.489 9.16736 12.6674 8.98901 12.8869 8.87716C13.1364 8.75 13.4634 8.75 14.1168 8.75H17.3834C18.0368 8.75 18.3634 8.75 18.6129 8.87716C18.8325 8.98901 19.0111 9.16736 19.123 9.38688C19.2501 9.63645 19.2501 9.96314 19.2501 10.6165V13.8832C19.2501 14.5366 19.2501 14.8633 19.123 15.1129C19.0111 15.3324 18.8323 15.5111 18.6128 15.623C18.3634 15.75 18.0373 15.75 17.3851 15.75H15.75M12.25 12.25H10.6168C9.96339 12.25 9.63645 12.25 9.38688 12.3772C9.16736 12.489 8.98901 12.6674 8.87716 12.8869C8.75 13.1364 8.75 13.4634 8.75 14.1168V17.3834C8.75 18.0368 8.75 18.3634 8.87716 18.6129C8.98901 18.8325 9.16736 19.0111 9.38688 19.123C9.6362 19.25 9.96275 19.25 10.6149 19.25H13.8854C14.5375 19.25 14.8636 19.25 15.1129 19.123C15.3325 19.0111 15.5111 18.8323 15.623 18.6128C15.75 18.3634 15.75 18.0373 15.75 17.3851V15.75M12.25 12.25H13.8834C14.5368 12.25 14.8634 12.25 15.1129 12.3772C15.3325 12.489 15.5111 12.6674 15.623 12.8869C15.75 13.1362 15.75 13.4628 15.75 14.1149L15.75 15.75" stroke="white" stroke-width="1.3" stroke-linecap="round" stroke-linejoin="round"/>
</svg>
