<svg xmlns="http://www.w3.org/2000/svg" width="56" height="56" viewBox="0 0 56 56" fill="none">
  <rect width="56" height="56" rx="28" fill="#DAB571"/>
  <path d="M23.8801 25.8078L24.6449 24.9605C25.2767 24.2604 25.5999 23.3592 25.5496 22.4186C25.5029 21.4779 25.0936 20.6127 24.3935 19.9808L23.101 18.8104C22.4512 18.2216 21.6111 17.8984 20.7387 17.8984C19.7442 17.8984 18.7891 18.3221 18.1214 19.0581L17.353 19.9054C17.2561 20.0131 17.1592 20.1316 17.073 20.2608L17.0371 20.3003C16.3155 20.9214 15.7015 22.4258 16.057 24.2711C17.7049 32.8519 24.9321 39.3897 33.6385 40.1724C34.7802 40.2765 35.8536 40.0396 36.6686 39.5405C36.9953 39.3502 37.2826 39.1205 37.5303 38.8476L38.2986 38.0003C39.6019 36.557 39.4906 34.3239 38.0473 33.0206L36.7548 31.8502C36.105 31.2614 35.2648 30.9383 34.3924 30.9383C33.3979 30.9383 32.4429 31.3619 31.7787 32.0979L31.0104 32.9452C30.6837 33.3078 30.4395 33.7243 30.2852 34.1838L30.2169 34.3885L30.0159 34.3095C26.5944 32.9596 23.8083 30.3997 22.1676 27.1075L22.0599 26.8884L22.2932 26.8166C22.8964 26.6335 23.4493 26.2853 23.8801 25.8078Z" fill="white"/>
  <path d="M28.1836 15.6386C28.1836 16.0909 28.5498 16.4607 29.0058 16.4607C34.7681 16.4607 39.4534 21.146 39.4534 26.9084C39.4534 27.3608 39.8232 27.7306 40.2756 27.7306C40.728 27.7306 41.0978 27.3644 41.0978 26.9084C41.0978 20.2413 35.6729 14.8164 29.0058 14.8164C28.5534 14.8164 28.1836 15.1862 28.1836 15.6386Z" fill="white"/>
  <path d="M28.0527 19.6624C28.0527 20.1147 28.4189 20.4845 28.8749 20.4845C32.4903 20.4845 35.4343 23.4249 35.4343 27.0439C35.4343 27.4963 35.8041 27.8661 36.2565 27.8661C36.7088 27.8661 37.0786 27.4999 37.0786 27.0439C37.0786 22.5202 33.3986 18.8438 28.8749 18.8438C28.4225 18.8402 28.0527 19.21 28.0527 19.6624Z" fill="white"/>
</svg>