<svg xmlns="http://www.w3.org/2000/svg" width="56" height="56" viewBox="0 0 56 56" fill="none">
  <rect width="56" height="56" rx="28" fill="#DAB571"/>
  <path d="M42.7598 24.105C42.4381 22.6205 41.8864 21.1844 41.117 19.8714C40.652 19.0777 40.1075 18.3314 39.4973 17.6426C36.2843 14.0161 31.3629 12.1655 26.5564 12.5447C24.7139 12.69 22.8926 13.1539 21.2175 13.9375C17.3066 15.7689 14.264 19.2643 13.1002 23.4374C11.8749 27.8283 12.9812 32.6469 15.803 36.2109C16.1832 36.6909 16.5845 37.1548 17.0494 37.5562C17.6424 38.0695 17.9409 38.6191 17.8996 39.4058C17.8562 40.2418 17.8421 41.0849 17.8986 41.9189C17.9702 42.996 18.5218 43.2985 19.493 42.8588C20.4995 42.402 21.5049 41.9431 22.5033 41.4691C22.934 41.2654 23.3515 41.2291 23.8174 41.3481C24.725 41.5811 25.6407 41.7918 26.5877 41.7898C26.5917 41.7898 26.5968 41.7908 26.6008 41.7908C27.571 41.7908 28.4907 41.8887 29.4679 41.7848C30.4381 41.6819 31.3982 41.4893 32.333 41.2099C36.4154 39.9937 39.9774 37.0681 41.7967 33.1965C43.1238 30.3728 43.4183 27.1355 42.7608 24.105H42.7598ZM29.7281 12.7111C29.7281 12.7111 29.7291 12.7121 29.7301 12.7121C29.7281 12.7121 29.7271 12.7121 29.7251 12.7132C29.7251 12.7121 29.7271 12.7111 29.7281 12.7111ZM37.0659 23.7581C36.0544 25.3989 35.0479 27.0427 34.0444 28.6886C33.517 29.5539 33.0491 30.4615 32.4601 31.2824C31.8248 32.1658 30.8264 32.4775 29.6111 31.7564C28.7459 31.2431 28.0087 30.5482 27.1504 30.0208C26.6613 29.7193 26.2337 29.3189 25.7658 28.981C25.193 28.5676 24.9247 28.6341 24.363 29.0547C23.8416 29.4429 23.3303 29.8433 22.818 30.2416C21.8327 31.0061 20.8676 31.7987 19.8329 32.4976C19.4577 32.7508 19.0523 32.8798 18.6802 32.541C18.2959 32.191 18.421 31.7806 18.666 31.4004C18.6973 31.352 18.7276 31.3046 18.7588 31.2572C19.5283 30.0631 20.2988 28.8701 21.0703 27.6771C21.8034 26.5425 22.4922 25.3717 23.2789 24.2724C23.8719 23.4424 24.9146 23.0421 25.8949 23.3819C26.4455 23.5735 26.9134 23.982 27.3834 24.3158C27.925 24.7 28.4615 25.0943 28.9566 25.5381C29.6969 26.0252 30.4542 26.9792 31.3901 26.2531C32.8766 25.0994 34.3752 23.9608 35.8738 22.8232C36.4154 22.4118 36.8833 22.4521 37.1445 22.912C37.317 23.2135 37.2363 23.4818 37.0659 23.7581Z" fill="white"/>
  <path d="M37.0681 23.7581C36.0565 25.3989 35.0501 27.0427 34.0466 28.6886C33.5192 29.5539 33.0513 30.4615 32.4623 31.2824C31.827 32.1658 30.8285 32.4775 29.6133 31.7564C28.748 31.2431 28.0108 30.5482 27.1526 30.0208C26.6635 29.7193 26.2359 29.3189 25.768 28.981C25.1951 28.5676 24.9269 28.6341 24.3652 29.0547C23.8438 29.4429 23.3325 29.8433 22.8202 30.2417C21.8349 31.0061 20.8698 31.7988 19.835 32.4976C19.4599 32.7508 19.0545 32.8798 18.6823 32.541C18.2981 32.1911 18.4232 31.7806 18.6682 31.4004C18.6995 31.352 18.7297 31.3046 18.761 31.2572C19.5305 30.0631 20.301 28.8701 21.0725 27.6771C21.8056 26.5425 22.4944 25.3717 23.281 24.2724C23.874 23.4424 24.9168 23.0421 25.8971 23.3819C26.4477 23.5735 26.9156 23.982 27.3856 24.3158C27.9271 24.7 28.4636 25.0943 28.9588 25.5381C29.699 26.0252 30.4564 26.9792 31.3923 26.2531C32.8788 25.0994 34.3774 23.9608 35.876 22.8232C36.4176 22.4118 36.8855 22.4521 37.1467 22.912C37.3192 23.2135 37.2385 23.4818 37.0681 23.7581Z" fill="#DAB571"/>
</svg>