<svg width="60" height="60" viewBox="0 0 60 60" fill="none" xmlns="http://www.w3.org/2000/svg">
<g clip-path="url(#clip0_4504_64987)">
<path d="M19.5814 42.6297C19.3882 42.631 19.1991 42.574 19.0388 42.4662L1.51679 30.7893C1.38496 30.6993 1.27726 30.5783 1.20315 30.4369C1.12905 30.2956 1.09082 30.1382 1.09182 29.9786C1.09161 29.8175 1.13082 29.6588 1.20604 29.5163C1.28125 29.3739 1.39018 29.252 1.52333 29.1613L19.0453 17.4909C19.1921 17.3907 19.3635 17.3325 19.541 17.3228C19.7185 17.313 19.8953 17.352 20.0522 17.4355C20.2091 17.519 20.3402 17.6439 20.4312 17.7965C20.5222 17.9492 20.5698 18.1239 20.5687 18.3016V41.649C20.5692 41.8262 20.5214 42.0002 20.4304 42.1523C20.3394 42.3044 20.2086 42.4287 20.0522 42.512C19.9079 42.5909 19.7458 42.6314 19.5814 42.6297ZM3.83126 29.9786L18.6007 39.8183V20.1388L3.83126 29.9786ZM40.6339 42.6297C40.3738 42.6297 40.1244 42.5264 39.9405 42.3424C39.7566 42.1585 39.6532 41.9091 39.6532 41.649V18.3016C39.6521 18.1239 39.6997 17.9492 39.7907 17.7965C39.8817 17.6439 40.0128 17.519 40.1697 17.4355C40.3266 17.352 40.5034 17.313 40.6809 17.3228C40.8584 17.3325 41.0298 17.3907 41.1766 17.4909L58.6986 29.1613C58.8329 29.2512 58.9431 29.3728 59.0195 29.5153C59.0959 29.6578 59.1361 29.8169 59.1366 29.9786C59.1356 30.1392 59.0951 30.2972 59.0187 30.4386C58.9424 30.5799 58.8324 30.7004 58.6986 30.7893L41.1766 42.4662C41.0163 42.574 40.8271 42.631 40.6339 42.6297ZM41.6277 20.1388V39.8183L56.3841 29.9786L41.6277 20.1388ZM30.1077 52.6329C29.8476 52.6329 29.5981 52.5296 29.4142 52.3457C29.2303 52.1617 29.127 51.9123 29.127 51.6522V8.30493C29.127 8.04483 29.2303 7.79538 29.4142 7.61146C29.5981 7.42754 29.8476 7.32422 30.1077 7.32422C30.3678 7.32422 30.6172 7.42754 30.8011 7.61146C30.9851 7.79538 31.0884 8.04483 31.0884 8.30493V51.6522C31.0884 51.9123 30.9851 52.1617 30.8011 52.3457C30.6172 52.5296 30.3678 52.6329 30.1077 52.6329Z" fill="#C6A567" stroke="#C6A567" stroke-width="0.495802"/>
</g>
<defs>
<clipPath id="clip0_4504_64987">
<rect width="59.4963" height="59.4963" fill="white" transform="translate(0.4375 0.25)"/>
</clipPath>
</defs>
</svg>
