<svg width="60" height="60" viewBox="0 0 60 60" fill="none" xmlns="http://www.w3.org/2000/svg">
<path fill-rule="evenodd" clip-rule="evenodd" d="M42.5808 7.6875H17.7907V10.1665H42.5808V7.6875ZM50.0178 10.1665C50.6753 10.1665 51.3058 10.4277 51.7707 10.8926C52.2357 11.3575 52.4968 11.988 52.4968 12.6455V47.3517C52.4968 48.0091 52.2357 48.6397 51.7707 49.1046C51.3058 49.5695 50.6753 49.8307 50.0178 49.8307H10.3537C9.69618 49.8307 9.06563 49.5695 8.60073 49.1046C8.13582 48.6397 7.87464 48.0091 7.87464 47.3517V12.6455C7.87464 11.988 8.13582 11.3575 8.60073 10.8926C9.06563 10.4277 9.69618 10.1665 10.3537 10.1665V7.6875C9.0387 7.6875 7.77761 8.20986 6.8478 9.13967C5.91799 10.0695 5.39563 11.3306 5.39563 12.6455V47.3517C5.39563 48.6666 5.91799 49.9277 6.8478 50.8575C7.77761 51.7873 9.0387 52.3097 10.3537 52.3097H50.0178C51.3328 52.3097 52.5939 51.7873 53.5237 50.8575C54.4535 49.9277 54.9758 48.6666 54.9758 47.3517V12.6455C54.9758 11.3306 54.4535 10.0695 53.5237 9.13967C52.5939 8.20986 51.3328 7.6875 50.0178 7.6875V10.1665Z" fill="#C6A567"/>
<path d="M45.0593 6.44654C45.0593 6.1178 45.1899 5.80253 45.4224 5.57007C45.6548 5.33762 45.9701 5.20703 46.2989 5.20703C46.6276 5.20703 46.9429 5.33762 47.1753 5.57007C47.4078 5.80253 47.5384 6.1178 47.5384 6.44654V11.4046C47.5384 11.7333 47.4078 12.0486 47.1753 12.281C46.9429 12.5135 46.6276 12.6441 46.2989 12.6441C45.9701 12.6441 45.6548 12.5135 45.4224 12.281C45.1899 12.0486 45.0593 11.7333 45.0593 11.4046V6.44654ZM12.8322 6.44654C12.8322 6.1178 12.9628 5.80253 13.1953 5.57007C13.4277 5.33762 13.743 5.20703 14.0717 5.20703C14.4005 5.20703 14.7157 5.33762 14.9482 5.57007C15.1806 5.80253 15.3112 6.1178 15.3112 6.44654V11.4046C15.3112 11.7333 15.1806 12.0486 14.9482 12.281C14.7157 12.5135 14.4005 12.6441 14.0717 12.6441C13.743 12.6441 13.4277 12.5135 13.1953 12.281C12.9628 12.0486 12.8322 11.7333 12.8322 11.4046V6.44654Z" fill="#C6A567"/>
<path fill-rule="evenodd" clip-rule="evenodd" d="M52.4973 20.0806H7.87512V17.6016H52.4973V20.0806ZM17.7912 27.5176H12.8331V29.9966H17.7912V27.5176ZM12.8331 25.0386C12.1757 25.0386 11.5451 25.2998 11.0802 25.7647C10.6153 26.2296 10.3541 26.8601 10.3541 27.5176V29.9966C10.3541 30.6541 10.6153 31.2846 11.0802 31.7495C11.5451 32.2144 12.1757 32.4756 12.8331 32.4756H17.7912C18.4486 32.4756 19.0792 32.2144 19.5441 31.7495C20.009 31.2846 20.2702 30.6541 20.2702 29.9966V27.5176C20.2702 26.8601 20.009 26.2296 19.5441 25.7647C19.0792 25.2998 18.4486 25.0386 17.7912 25.0386H12.8331ZM32.6652 27.5176H27.7072V29.9966H32.6652V27.5176ZM27.7072 25.0386C27.0497 25.0386 26.4192 25.2998 25.9543 25.7647C25.4894 26.2296 25.2282 26.8601 25.2282 27.5176V29.9966C25.2282 30.6541 25.4894 31.2846 25.9543 31.7495C26.4192 32.2144 27.0497 32.4756 27.7072 32.4756H32.6652C33.3227 32.4756 33.9532 32.2144 34.4182 31.7495C34.8831 31.2846 35.1442 30.6541 35.1442 29.9966V27.5176C35.1442 26.8601 34.8831 26.2296 34.4182 25.7647C33.9532 25.2998 33.3227 25.0386 32.6652 25.0386H27.7072ZM47.5393 27.5176H42.5813V29.9966H47.5393V27.5176ZM42.5813 25.0386C41.9238 25.0386 41.2932 25.2998 40.8283 25.7647C40.3634 26.2296 40.1023 26.8601 40.1023 27.5176V29.9966C40.1023 30.6541 40.3634 31.2846 40.8283 31.7495C41.2932 32.2144 41.9238 32.4756 42.5813 32.4756H47.5393C48.1968 32.4756 48.8273 32.2144 49.2922 31.7495C49.7571 31.2846 50.0183 30.6541 50.0183 29.9966V27.5176C50.0183 26.8601 49.7571 26.2296 49.2922 25.7647C48.8273 25.2998 48.1968 25.0386 47.5393 25.0386H42.5813ZM17.7912 39.9127H12.8331V42.3917H17.7912V39.9127ZM12.8331 37.4336C12.1757 37.4336 11.5451 37.6948 11.0802 38.1597C10.6153 38.6246 10.3541 39.2552 10.3541 39.9127V42.3917C10.3541 43.0491 10.6153 43.6797 11.0802 44.1446C11.5451 44.6095 12.1757 44.8707 12.8331 44.8707H17.7912C18.4486 44.8707 19.0792 44.6095 19.5441 44.1446C20.009 43.6797 20.2702 43.0491 20.2702 42.3917V39.9127C20.2702 39.2552 20.009 38.6246 19.5441 38.1597C19.0792 37.6948 18.4486 37.4336 17.7912 37.4336H12.8331ZM32.6652 39.9127H27.7072V42.3917H32.6652V39.9127ZM27.7072 37.4336C27.0497 37.4336 26.4192 37.6948 25.9543 38.1597C25.4894 38.6246 25.2282 39.2552 25.2282 39.9127V42.3917C25.2282 43.0491 25.4894 43.6797 25.9543 44.1446C26.4192 44.6095 27.0497 44.8707 27.7072 44.8707H32.6652C33.3227 44.8707 33.9532 44.6095 34.4182 44.1446C34.8831 43.6797 35.1442 43.0491 35.1442 42.3917V39.9127C35.1442 39.2552 34.8831 38.6246 34.4182 38.1597C33.9532 37.6948 33.3227 37.4336 32.6652 37.4336H27.7072ZM47.5393 39.9127H42.5813V42.3917H47.5393V39.9127ZM42.5813 37.4336C41.9238 37.4336 41.2932 37.6948 40.8283 38.1597C40.3634 38.6246 40.1023 39.2552 40.1023 39.9127V42.3917C40.1023 43.0491 40.3634 43.6797 40.8283 44.1446C41.2932 44.6095 41.9238 44.8707 42.5813 44.8707H47.5393C48.1968 44.8707 48.8273 44.6095 49.2922 44.1446C49.7571 43.6797 50.0183 43.0491 50.0183 42.3917V39.9127C50.0183 39.2552 49.7571 38.6246 49.2922 38.1597C48.8273 37.6948 48.1968 37.4336 47.5393 37.4336H42.5813Z" fill="#C6A567"/>
</svg>
