<svg width="60" height="60" viewBox="0 0 60 60" fill="none" xmlns="http://www.w3.org/2000/svg">
<path d="M5.44531 24.1602V56.9073C5.44531 57.1538 5.54326 57.3903 5.71759 57.5646C5.89193 57.739 6.12839 57.8369 6.37494 57.8369H53.1204C53.367 57.8369 53.6034 57.739 53.7777 57.5646C53.9521 57.3903 54.05 57.1538 54.05 56.9073V25.761C54.05 25.5942 54.0051 25.4305 53.92 25.2871C53.835 25.1437 53.7129 25.0257 53.5666 24.9457L45.1498 20.3329V14.9355C45.1498 14.6889 45.0518 14.4524 44.8775 14.2781C44.7031 14.1038 44.4667 14.0058 44.2201 14.0058H34.8337V10.3068C34.8337 10.0603 34.7357 9.82383 34.5614 9.64949C34.3871 9.47515 34.1506 9.3772 33.904 9.3772H25.7475V3.01947C25.7475 2.77292 25.6495 2.53646 25.4752 2.36213C25.3009 2.18779 25.0644 2.08984 24.8179 2.08984C24.5713 2.08984 24.3348 2.18779 24.1605 2.36213C23.9862 2.53646 23.8882 2.77292 23.8882 3.01947V9.3772H15.7326C15.486 9.3772 15.2496 9.47515 15.0752 9.64949C14.9009 9.82383 14.803 10.0603 14.803 10.3068V18.482L5.92872 23.3449C5.63124 23.5085 5.44531 23.8209 5.44531 24.1602ZM52.1898 26.3113V55.9776H45.1498V22.4534L52.1898 26.3123V26.3113ZM43.2905 15.8651V55.9776H34.8337V15.8651H43.2905ZM16.6613 11.2365H32.9744V55.9776H16.6622V11.2355L16.6613 11.2365ZM7.30457 24.7114L14.802 20.6025V55.9776H7.30457V24.7114Z" fill="#C6A567" stroke="#C6A567" stroke-width="0.495802"/>
<path d="M29.6418 15.1875H19.9941C19.7475 15.1875 19.5111 15.2854 19.3367 15.4598C19.1624 15.6341 19.0645 15.8706 19.0645 16.1171C19.0645 16.3637 19.1624 16.6001 19.3367 16.7745C19.5111 16.9488 19.7475 17.0468 19.9941 17.0468H29.6418C29.8883 17.0468 30.1248 16.9488 30.2991 16.7745C30.4735 16.6001 30.5714 16.3637 30.5714 16.1171C30.5714 15.8706 30.4735 15.6341 30.2991 15.4598C30.1248 15.2854 29.8883 15.1875 29.6418 15.1875ZM29.6418 20.7513H19.9941C19.7475 20.7513 19.5111 20.8493 19.3367 21.0236C19.1624 21.198 19.0645 21.4344 19.0645 21.681C19.0645 21.9275 19.1624 22.164 19.3367 22.3383C19.5111 22.5126 19.7475 22.6106 19.9941 22.6106H29.6418C29.8883 22.6106 30.1248 22.5126 30.2991 22.3383C30.4735 22.164 30.5714 21.9275 30.5714 21.681C30.5714 21.4344 30.4735 21.198 30.2991 21.0236C30.1248 20.8493 29.8883 20.7513 29.6418 20.7513ZM29.6418 26.3133H19.9941C19.7475 26.3133 19.5111 26.4112 19.3367 26.5856C19.1624 26.7599 19.0645 26.9964 19.0645 27.2429C19.0645 27.4895 19.1624 27.7259 19.3367 27.9003C19.5111 28.0746 19.7475 28.1726 19.9941 28.1726H29.6418C29.8883 28.1726 30.1248 28.0746 30.2991 27.9003C30.4735 27.7259 30.5714 27.4895 30.5714 27.2429C30.5714 26.9964 30.4735 26.7599 30.2991 26.5856C30.1248 26.4112 29.8883 26.3133 29.6418 26.3133ZM29.6418 31.8771H19.9941C19.7475 31.8771 19.5111 31.9751 19.3367 32.1494C19.1624 32.3238 19.0645 32.5602 19.0645 32.8068C19.0645 33.0533 19.1624 33.2898 19.3367 33.4641C19.5111 33.6384 19.7475 33.7364 19.9941 33.7364H29.6418C29.8883 33.7364 30.1248 33.6384 30.2991 33.4641C30.4735 33.2898 30.5714 33.0533 30.5714 32.8068C30.5714 32.5602 30.4735 32.3238 30.2991 32.1494C30.1248 31.9751 29.8883 31.8771 29.6418 31.8771ZM29.6418 37.4391H19.9941C19.7475 37.4391 19.5111 37.537 19.3367 37.7114C19.1624 37.8857 19.0645 38.1222 19.0645 38.3687C19.0645 38.6153 19.1624 38.8517 19.3367 39.0261C19.5111 39.2004 19.7475 39.2984 19.9941 39.2984H29.6418C29.8883 39.2984 30.1248 39.2004 30.2991 39.0261C30.4735 38.8517 30.5714 38.6153 30.5714 38.3687C30.5714 38.1222 30.4735 37.8857 30.2991 37.7114C30.1248 37.537 29.8883 37.4391 29.6418 37.4391ZM29.6418 43.0011H19.9941C19.7475 43.0011 19.5111 43.099 19.3367 43.2734C19.1624 43.4477 19.0645 43.6841 19.0645 43.9307C19.0645 44.1773 19.1624 44.4137 19.3367 44.588C19.5111 44.7624 19.7475 44.8603 19.9941 44.8603H29.6418C29.8883 44.8603 30.1248 44.7624 30.2991 44.588C30.4735 44.4137 30.5714 44.1773 30.5714 43.9307C30.5714 43.6841 30.4735 43.4477 30.2991 43.2734C30.1248 43.099 29.8883 43.0011 29.6418 43.0011ZM29.6418 48.5649H19.9941C19.7475 48.5649 19.5111 48.6628 19.3367 48.8372C19.1624 49.0115 19.0645 49.248 19.0645 49.4945C19.0645 49.7411 19.1624 49.9775 19.3367 50.1519C19.5111 50.3262 19.7475 50.4242 19.9941 50.4242H29.6418C29.8883 50.4242 30.1248 50.3262 30.2991 50.1519C30.4735 49.9775 30.5714 49.7411 30.5714 49.4945C30.5714 49.248 30.4735 49.0115 30.2991 48.8372C30.1248 48.6628 29.8883 48.5649 29.6418 48.5649ZM37.6282 22.6106H40.4961C40.7427 22.6106 40.9791 22.5126 41.1535 22.3383C41.3278 22.164 41.4257 21.9275 41.4257 21.681C41.4257 21.4344 41.3278 21.198 41.1535 21.0236C40.9791 20.8493 40.7427 20.7513 40.4961 20.7513H37.6282C37.3817 20.7513 37.1452 20.8493 36.9709 21.0236C36.7965 21.198 36.6986 21.4344 36.6986 21.681C36.6986 21.9275 36.7965 22.164 36.9709 22.3383C37.1452 22.5126 37.3817 22.6106 37.6282 22.6106ZM37.6282 28.1726H40.4961C40.7427 28.1726 40.9791 28.0746 41.1535 27.9003C41.3278 27.7259 41.4257 27.4895 41.4257 27.2429C41.4257 26.9964 41.3278 26.7599 41.1535 26.5856C40.9791 26.4112 40.7427 26.3133 40.4961 26.3133H37.6282C37.3817 26.3133 37.1452 26.4112 36.9709 26.5856C36.7965 26.7599 36.6986 26.9964 36.6986 27.2429C36.6986 27.4895 36.7965 27.7259 36.9709 27.9003C37.1452 28.0746 37.3817 28.1726 37.6282 28.1726ZM37.6282 33.7364H40.4961C40.7427 33.7364 40.9791 33.6384 41.1535 33.4641C41.3278 33.2898 41.4257 33.0533 41.4257 32.8068C41.4257 32.5602 41.3278 32.3238 41.1535 32.1494C40.9791 31.9751 40.7427 31.8771 40.4961 31.8771H37.6282C37.3817 31.8771 37.1452 31.9751 36.9709 32.1494C36.7965 32.3238 36.6986 32.5602 36.6986 32.8068C36.6986 33.0533 36.7965 33.2898 36.9709 33.4641C37.1452 33.6384 37.3817 33.7364 37.6282 33.7364ZM37.6282 39.2984H40.4961C40.7427 39.2984 40.9791 39.2004 41.1535 39.0261C41.3278 38.8517 41.4257 38.6153 41.4257 38.3687C41.4257 38.1222 41.3278 37.8857 41.1535 37.7114C40.9791 37.537 40.7427 37.4391 40.4961 37.4391H37.6282C37.3817 37.4391 37.1452 37.537 36.9709 37.7114C36.7965 37.8857 36.6986 38.1222 36.6986 38.3687C36.6986 38.6153 36.7965 38.8517 36.9709 39.0261C37.1452 39.2004 37.3817 39.2984 37.6282 39.2984ZM37.6282 44.8603H40.4961C40.7427 44.8603 40.9791 44.7624 41.1535 44.588C41.3278 44.4137 41.4257 44.1773 41.4257 43.9307C41.4257 43.6841 41.3278 43.4477 41.1535 43.2734C40.9791 43.099 40.7427 43.0011 40.4961 43.0011H37.6282C37.3817 43.0011 37.1452 43.099 36.9709 43.2734C36.7965 43.4477 36.6986 43.6841 36.6986 43.9307C36.6986 44.1773 36.7965 44.4137 36.9709 44.588C37.1452 44.7624 37.3817 44.8603 37.6282 44.8603ZM37.6282 50.4242H40.4961C40.7427 50.4242 40.9791 50.3262 41.1535 50.1519C41.3278 49.9775 41.4257 49.7411 41.4257 49.4945C41.4257 49.248 41.3278 49.0115 41.1535 48.8372C40.9791 48.6628 40.7427 48.5649 40.4961 48.5649H37.6282C37.3817 48.5649 37.1452 48.6628 36.9709 48.8372C36.7965 49.0115 36.6986 49.248 36.6986 49.4945C36.6986 49.7411 36.7965 49.9775 36.9709 50.1519C37.1452 50.3262 37.3817 50.4242 37.6282 50.4242Z" fill="#C6A567" stroke="#C6A567" stroke-width="0.495802"/>
</svg>
