<svg width="60" height="60" viewBox="0 0 60 60" fill="none" xmlns="http://www.w3.org/2000/svg">
<g id="Frame">
<g id="Group">
<path id="Vector" d="M29.7478 13.1797C27.8216 13.1797 25.9387 13.7509 24.3371 14.821C22.7356 15.8911 21.4873 17.4121 20.7502 19.1917C20.0131 20.9713 19.8202 22.9295 20.196 24.8186C20.5718 26.7078 21.4993 28.4431 22.8613 29.8051C24.2234 31.1672 25.9587 32.0947 27.8478 32.4705C29.737 32.8463 31.6952 32.6534 33.4748 31.9163C35.2543 31.1792 36.7753 29.9309 37.8455 28.3293C38.9156 26.7278 39.4868 24.8448 39.4868 22.9187C39.484 20.3366 38.457 17.8611 36.6312 16.0353C34.8054 14.2095 32.3299 13.1825 29.7478 13.1797ZM29.7478 30.8869C28.1719 30.8869 26.6313 30.4196 25.3209 29.544C24.0105 28.6685 22.9892 27.424 22.3861 25.968C21.783 24.512 21.6252 22.9098 21.9327 21.3641C22.2401 19.8184 22.999 18.3986 24.1134 17.2843C25.2278 16.1699 26.6476 15.411 28.1933 15.1035C29.739 14.7961 31.3411 14.9539 32.7971 15.557C34.2531 16.1601 35.4976 17.1814 36.3732 18.4917C37.2487 19.8021 37.7161 21.3427 37.7161 22.9187C37.7137 25.0312 36.8735 27.0566 35.3796 28.5505C33.8858 30.0443 31.8604 30.8846 29.7478 30.8869Z" fill="#C6A567" stroke="#C6A567" stroke-width="0.495802"/>
<path id="Vector_2" d="M29.7477 1.66797C24.1142 1.6743 18.7132 3.91502 14.7297 7.89855C10.7461 11.8821 8.50541 17.2831 8.49908 22.9166C8.49908 38.1705 28.2931 57.2801 29.136 58.0858C29.3007 58.2433 29.5198 58.3312 29.7477 58.3312C29.9757 58.3312 30.1948 58.2433 30.3595 58.0858C31.2024 57.2801 50.9964 38.1705 50.9964 22.9166C50.9901 17.2831 48.7494 11.8821 44.7658 7.89855C40.7823 3.91502 35.3813 1.6743 29.7477 1.66797ZM29.7477 56.2009C26.3781 52.8206 10.2698 35.9704 10.2698 22.9166C10.2698 17.7508 12.3219 12.7965 15.9748 9.14365C19.6276 5.49082 24.5819 3.43869 29.7477 3.43869C34.9136 3.43869 39.8679 5.49082 43.5207 9.14365C47.1736 12.7965 49.2257 17.7508 49.2257 22.9166C49.2257 35.9642 33.1174 52.8188 29.7477 56.2009Z" fill="#C6A567" stroke="#C6A567" stroke-width="0.495802"/>
</g>
</g>
</svg>
