<svg xmlns="http://www.w3.org/2000/svg" width="20" height="21" viewBox="0 0 20 21" fill="none">
  <g clip-path="url(#clip0_4504_65517)">
    <path d="M15.8054 12.8893C15.396 12.4629 14.9021 12.235 14.3787 12.235C13.8595 12.235 13.3614 12.4587 12.9351 12.8851L11.6012 14.2147C11.4914 14.1556 11.3817 14.1007 11.2762 14.0459C11.1242 13.9699 10.9807 13.8981 10.8583 13.8222C9.6088 13.0286 8.47332 11.9944 7.38426 10.6563C6.85662 9.98936 6.50204 9.42795 6.24455 8.8581C6.59069 8.54151 6.9115 8.21226 7.22386 7.89568C7.34205 7.77749 7.46024 7.65507 7.57843 7.53688C8.46487 6.65044 8.46487 5.50229 7.57843 4.61585L6.42606 3.46348C6.29521 3.33263 6.16013 3.19755 6.0335 3.06248C5.78023 2.80077 5.5143 2.53061 5.23992 2.27734C4.83047 1.87211 4.34082 1.65684 3.82584 1.65684C3.31086 1.65684 2.81277 1.87211 2.39066 2.27734L2.38221 2.28579L0.947028 3.73364C0.406722 4.27394 0.0985794 4.93244 0.0310412 5.69647C-0.0702661 6.92904 0.292752 8.07719 0.571347 8.82855C1.25517 10.6732 2.27669 12.3827 3.80052 14.2147C5.64937 16.4224 7.87391 18.1657 10.415 19.3941C11.3859 19.8542 12.6818 20.3987 14.1296 20.4915C14.2183 20.4958 14.3111 20.5 14.3956 20.5C15.3707 20.5 16.1896 20.1496 16.8312 19.4531C16.8354 19.4447 16.8438 19.4405 16.8481 19.432C17.0676 19.1661 17.3208 18.9255 17.5868 18.668C17.7683 18.495 17.954 18.3134 18.1355 18.1235C18.5534 17.6887 18.7729 17.1822 18.7729 16.663C18.7729 16.1396 18.5492 15.6372 18.1228 15.2151L15.8054 12.8893ZM17.3166 17.3341C17.3124 17.3341 17.3124 17.3384 17.3166 17.3341C17.152 17.5114 16.9831 17.6718 16.8016 17.8491C16.5272 18.1108 16.2487 18.3852 15.9869 18.6933C15.5606 19.1492 15.0583 19.3645 14.3998 19.3645C14.3365 19.3645 14.2689 19.3645 14.2056 19.3603C12.9519 19.2801 11.7869 18.7904 10.9131 18.3725C8.52397 17.2159 6.42606 15.5739 4.68273 13.4929C3.24333 11.758 2.28091 10.154 1.64352 8.43176C1.25095 7.3807 1.10743 6.5618 1.17075 5.78933C1.21296 5.29546 1.40291 4.88601 1.75327 4.53565L3.19267 3.09624C3.39951 2.90207 3.61901 2.79654 3.83429 2.79654C4.10022 2.79654 4.3155 2.95695 4.45057 3.09202L4.46324 3.10469C4.72072 3.34529 4.96555 3.59434 5.22304 3.86027C5.3539 3.99535 5.48897 4.13042 5.62405 4.26972L6.77642 5.42209C7.22386 5.86953 7.22386 6.2832 6.77642 6.73064C6.65401 6.85306 6.53581 6.97547 6.4134 7.09366C6.05883 7.45668 5.72113 7.79437 5.3539 8.12362C5.34545 8.13206 5.33701 8.13628 5.33279 8.14472C4.96977 8.50774 5.03731 8.86232 5.11329 9.10292L5.12595 9.14091C5.42565 9.86695 5.84777 10.5508 6.48938 11.3655L6.4936 11.3697C7.65864 12.8049 8.88699 13.9235 10.242 14.7804C10.415 14.8901 10.5923 14.9787 10.7612 15.0632C10.9131 15.1391 11.0567 15.2109 11.1791 15.2869C11.1959 15.2953 11.2128 15.308 11.2297 15.3164C11.3732 15.3882 11.5083 15.422 11.6476 15.422C11.998 15.422 12.2175 15.2025 12.2892 15.1307L13.7329 13.6871C13.8764 13.5436 14.1043 13.3705 14.3702 13.3705C14.632 13.3705 14.8472 13.5351 14.9781 13.6786L14.9865 13.6871L17.3124 16.0129C17.7472 16.4435 17.7472 16.8867 17.3166 17.3341ZM10.8076 5.25747C11.9135 5.4432 12.9182 5.96662 13.7202 6.76863C14.5222 7.57065 15.0414 8.57528 15.2314 9.68122C15.2778 9.95981 15.5184 10.154 15.7928 10.154C15.8265 10.154 15.8561 10.1498 15.8899 10.1455C16.2022 10.0949 16.4091 9.79941 16.3584 9.48705C16.1305 8.14895 15.4973 6.92904 14.5306 5.9624C13.564 4.99576 12.3441 4.36259 11.006 4.13464C10.6936 4.08399 10.4024 4.29083 10.3475 4.59897C10.2926 4.90711 10.4952 5.20681 10.8076 5.25747ZM19.9759 9.32242C19.6002 7.11899 18.5618 5.11395 16.9662 3.51836C15.3707 1.92277 13.3656 0.884369 11.1622 0.508688C10.854 0.453813 10.5628 0.66487 10.5079 0.973013C10.4572 1.28538 10.6641 1.57664 10.9764 1.63151C12.9435 1.96498 14.7375 2.89785 16.1642 4.32037C17.591 5.74712 18.5196 7.5411 18.8531 9.50815C18.8995 9.78675 19.1401 9.98092 19.4145 9.98092C19.4483 9.98092 19.4778 9.9767 19.5116 9.97248C19.8197 9.92604 20.0308 9.63056 19.9759 9.32242Z" fill="#C6A567"/>
  </g>
  <defs>
    <clipPath id="clip0_4504_65517">
      <rect width="20" height="20" fill="white" transform="translate(0 0.5)"/>
    </clipPath>
  </defs>
</svg>