<svg xmlns="http://www.w3.org/2000/svg" width="20" height="21" viewBox="0 0 20 21" fill="none">
  <path d="M18.125 3H1.87501C0.841067 3 0 3.84107 0 4.87501V16.125C0 17.159 0.841067 18 1.87501 18H18.125C19.1589 18 20 17.159 20 16.125V4.87501C20 3.84107 19.1589 3 18.125 3ZM18.125 4.24999C18.2099 4.24999 18.2907 4.26761 18.3645 4.29838L10 11.548L1.63542 4.29838C1.71128 4.26657 1.79271 4.25013 1.87497 4.24999H18.125ZM18.125 16.75H1.87501C1.53017 16.75 1.24999 16.4699 1.24999 16.125V5.61901L9.59045 12.8474C9.70826 12.9493 9.85413 13 10 13C10.1459 13 10.2917 12.9494 10.4096 12.8474L18.75 5.61901V16.125C18.75 16.4699 18.4698 16.75 18.125 16.75Z" fill="#C6A567"/>
</svg>