<svg width="39" height="38" viewBox="0 0 39 38" fill="none" xmlns="http://www.w3.org/2000/svg">
<path d="M19.6962 37.1344H19.6139C9.47838 37.1344 1.23165 28.8854 1.23165 18.7467V18.6644C1.23165 8.52562 9.47838 0.276571 19.6139 0.276571H19.6962C29.8318 0.276571 38.0785 8.52562 38.0785 18.6644V18.7467C38.0785 28.8854 29.8318 37.1344 19.6962 37.1344Z" stroke="#EDEDEE" stroke-width="0.553143"/>
<path d="M13.0753 14.4856C12.7439 14.1779 12.5791 13.7971 12.5791 13.3439C12.5791 12.8908 12.7448 12.4932 13.0753 12.1846C13.4067 11.8769 13.8332 11.7227 14.3559 11.7227C14.8785 11.7227 15.2883 11.8769 15.6188 12.1846C15.9502 12.4923 16.115 12.8793 16.115 13.3439C16.115 13.8085 15.9493 14.1779 15.6188 14.4856C15.2874 14.7933 14.867 14.9475 14.3559 14.9475C13.8447 14.9475 13.4067 14.7933 13.0753 14.4856ZM15.8365 16.2505V25.6836H12.8567V16.2505H15.8365Z" fill="#EDEDEE"/>
<path d="M25.7544 17.1829C26.404 17.8882 26.7283 18.8562 26.7283 20.0887V25.5175H23.8983V20.4713C23.8983 19.8497 23.7371 19.3666 23.4154 19.0228C23.0937 18.679 22.6601 18.5062 22.1172 18.5062C21.5743 18.5062 21.1406 18.6781 20.8189 19.0228C20.4972 19.3666 20.336 19.8497 20.336 20.4713V25.5175H17.4893V16.2246H20.336V17.4571C20.6242 17.0463 21.0128 16.7218 21.5011 16.4829C21.9894 16.244 22.5384 16.125 23.1492 16.125C24.2368 16.125 25.1058 16.4776 25.7544 17.1829Z" fill="#EDEDEE"/>
</svg>
