<svg width="122" height="138" viewBox="0 0 122 138" fill="none" xmlns="http://www.w3.org/2000/svg">
<path d="M0.122443 124.65C0.23073 124.702 0.360668 124.659 0.412646 124.55C0.464624 124.442 0.421317 124.312 0.31303 124.26C-2.14293 123.078 -4.339 121.436 -6.21021 119.387C-10.1302 115.095 -12.0794 109.637 -11.8412 103.564L-11.7502 103.482C-11.6636 103.4 -11.6549 103.265 -11.7372 103.174C-11.7805 103.127 -11.8368 103.105 -11.8975 103.105C-11.9495 103.105 -12.0014 103.122 -12.0448 103.161L-12.2007 103.304L-12.27 103.382V103.473C-12.5386 109.672 -10.5547 115.277 -6.53507 119.682C-4.62488 121.774 -2.3855 123.446 0.118107 124.654L0.122443 124.65Z" fill="#CEC8DD" fill-opacity="0.51"/>
<path d="M121.784 84.698L102.535 63.6339L102.379 63.7768L102.487 63.5819L44.7657 0.41125L-138.145 167.564V168.149L44.7354 1.02632L121.173 84.6676L-41.3576 233.195L-70.972 259.977H-70.214L-41.0673 233.515L121.784 84.698Z" fill="#CEC8DD" fill-opacity="0.51"/>
<path d="M109.151 95.9135C109.272 95.9222 109.372 95.8269 109.376 95.7056L110.485 72.4281C110.49 72.3068 110.399 72.2072 110.277 72.2029H110.269C110.152 72.2029 110.056 72.2938 110.052 72.4108L108.943 95.6883C108.939 95.8096 109.03 95.9092 109.151 95.9135Z" fill="#CEC8DD" fill-opacity="0.51"/>
<path d="M104.667 100.003C104.788 100.016 104.892 99.9247 104.901 99.8077L105.646 91.6342C105.655 91.5173 105.568 91.409 105.451 91.4003C105.442 91.4003 105.438 91.4003 105.429 91.4003C105.317 91.4003 105.226 91.4826 105.213 91.5952L104.468 99.7688C104.459 99.8857 104.546 99.994 104.663 100.003H104.667Z" fill="#CEC8DD" fill-opacity="0.51"/>
<path d="M105.272 91.758C105.354 91.8446 105.488 91.8533 105.579 91.771C105.666 91.6887 105.675 91.5544 105.592 91.4635L83.6966 67.5059C83.6532 67.4583 83.5969 67.4366 83.5363 67.4366C83.4843 67.4366 83.4323 67.454 83.389 67.493C83.3024 67.5753 83.2937 67.7095 83.376 67.8005L105.272 91.758Z" fill="#CEC8DD" fill-opacity="0.51"/>
<path d="M71.4863 78.9624L83.6838 67.8131C83.7704 67.7308 83.7791 67.5966 83.6968 67.5056C83.6535 67.4579 83.5972 67.4363 83.5365 67.4363C83.4846 67.4363 83.4326 67.4536 83.3893 67.4926L71.1917 78.6419C71.1051 78.7242 71.0965 78.8585 71.1788 78.9494C71.2611 79.0361 71.3953 79.0447 71.4863 78.9624Z" fill="#CEC8DD" fill-opacity="0.51"/>
<path d="M84.3684 93.3791C84.4507 93.4657 84.585 93.4744 84.676 93.3921C84.7626 93.3098 84.7713 93.1755 84.689 93.0846L20.6391 22.9965C20.5958 22.9489 20.5395 22.9272 20.4788 22.9272C20.4268 22.9272 20.3748 22.9446 20.3315 22.9835C20.2449 23.0658 20.2362 23.2001 20.3185 23.2911L84.3684 93.3791Z" fill="#CEC8DD" fill-opacity="0.51"/>
<path d="M69.7077 107.076L84.6731 93.3968C84.7597 93.3145 84.7684 93.1802 84.6861 93.0893C84.6427 93.0416 84.5864 93.02 84.5258 93.02C84.4738 93.02 84.4218 93.0373 84.3785 93.0763L69.4132 106.755C69.3265 106.837 69.3179 106.972 69.4002 107.063C69.4782 107.149 69.6167 107.158 69.7077 107.076Z" fill="#CEC8DD" fill-opacity="0.51"/>
<path d="M-40.7429 207.806L62.009 113.908C62.0956 113.826 62.1043 113.691 62.022 113.6C61.9787 113.553 61.9224 113.531 61.8617 113.531C61.8097 113.531 61.7578 113.548 61.7144 113.587L-41.0374 207.486C-41.1241 207.568 -41.1328 207.702 -41.0505 207.793C-40.9682 207.88 -40.8339 207.888 -40.7429 207.806Z" fill="#CEC8DD" fill-opacity="0.51"/>
<path d="M90.8615 112.629C90.9827 112.629 91.078 112.534 91.0824 112.417L91.4072 93.3537C91.4072 93.2324 91.3119 93.1372 91.195 93.1328C91.078 93.1328 90.9784 93.2281 90.9784 93.3451L90.6535 112.408C90.6535 112.529 90.7488 112.625 90.8658 112.629H90.8615Z" fill="#CEC8DD" fill-opacity="0.51"/>
<path d="M82.9653 119.843C83.0866 119.852 83.1862 119.761 83.1949 119.64L87.6996 47.7237C87.7083 47.6024 87.6173 47.5028 87.496 47.4941C87.4917 47.4941 87.4874 47.4941 87.483 47.4941C87.3704 47.4941 87.2751 47.5807 87.2665 47.6977L82.7617 119.614C82.7531 119.735 82.844 119.835 82.9653 119.843Z" fill="#CEC8DD" fill-opacity="0.51"/>
<path d="M99.6974 66.521L102.413 64.0391C102.5 63.9568 102.509 63.8225 102.426 63.7315C102.383 63.6839 102.327 63.6622 102.266 63.6622C102.214 63.6622 102.162 63.6795 102.119 63.7185L99.4029 66.2005C99.3163 66.2828 99.3076 66.4171 99.3899 66.508C99.4722 66.5946 99.6065 66.6033 99.6974 66.521Z" fill="#CEC8DD" fill-opacity="0.51"/>
<path d="M99.3948 66.508C99.4771 66.5946 99.6114 66.6033 99.7023 66.521C99.789 66.4387 99.7977 66.3044 99.7154 66.2135L87.3273 52.6559C87.2839 52.6082 87.2276 52.5866 87.167 52.5866C87.115 52.5866 87.063 52.6039 87.0197 52.6429C86.9331 52.7252 86.9244 52.8594 87.0067 52.9504L99.3948 66.508Z" fill="#CEC8DD" fill-opacity="0.51"/>
<path d="M53.9875 83.4155L87.3098 52.9651C87.3964 52.8828 87.4051 52.7485 87.3228 52.6575C87.2795 52.6099 87.2231 52.5882 87.1625 52.5882C87.1105 52.5882 87.0586 52.6056 87.0152 52.6446L53.693 83.095C53.6064 83.1773 53.5977 83.3116 53.68 83.4026C53.7623 83.4892 53.8966 83.4978 53.9875 83.4155Z" fill="#CEC8DD" fill-opacity="0.51"/>
<path d="M65.4065 67.7671L87.2893 47.7729C87.3759 47.6906 87.3846 47.5563 87.3023 47.4654C87.2589 47.4177 87.2026 47.396 87.142 47.396C87.09 47.396 87.038 47.4134 86.9947 47.4523L65.112 67.4466C65.0253 67.5289 65.0167 67.6632 65.099 67.7541C65.1813 67.8407 65.3155 67.8494 65.4065 67.7671Z" fill="#CEC8DD" fill-opacity="0.51"/>
<path d="M65.8218 107.934C65.9431 107.934 66.0384 107.834 66.034 107.713L65.1158 42.1814C65.1158 42.0644 65.0161 41.9692 64.8992 41.9692C64.7779 41.9692 64.6826 42.0688 64.6869 42.1901L65.6052 107.721C65.6052 107.838 65.7048 107.934 65.8218 107.934Z" fill="#CEC8DD" fill-opacity="0.51"/>
<path d="M65.0511 42.3491L74.5588 33.6645C74.6454 33.5822 74.6541 33.4479 74.5718 33.3569C74.5285 33.3093 74.4722 33.2876 74.4115 33.2876C74.3596 33.2876 74.3076 33.305 74.2643 33.344L64.7566 42.0286C64.67 42.1109 64.6613 42.2452 64.7436 42.3361C64.8259 42.4228 64.9602 42.4314 65.0511 42.3491Z" fill="#CEC8DD" fill-opacity="0.51"/>
<path d="M91.3345 93.5132L102.492 83.3168C102.579 83.2345 102.588 83.1003 102.505 83.0093C102.462 82.9617 102.406 82.94 102.345 82.94C102.293 82.94 102.241 82.9573 102.198 82.9963L91.0399 93.1927C90.9533 93.275 90.9446 93.4092 91.0269 93.5002C91.1092 93.5868 91.2435 93.5955 91.3345 93.5132Z" fill="#CEC8DD" fill-opacity="0.51"/>
<path d="M102.185 83.3049C102.267 83.3915 102.401 83.4002 102.492 83.3179C102.579 83.2356 102.588 83.1013 102.505 83.0104L89.6712 68.9633C89.6278 68.9157 89.5715 68.894 89.5109 68.894C89.4589 68.894 89.4069 68.9113 89.3636 68.9503C89.277 69.0326 89.2683 69.1669 89.3506 69.2578L102.185 83.3049Z" fill="#CEC8DD" fill-opacity="0.51"/>
<path d="M89.6531 69.271L91.6369 67.4604C91.7236 67.3781 91.7322 67.2439 91.6499 67.1529C91.6066 67.1053 91.5503 67.0836 91.4897 67.0836C91.4377 67.0836 91.3857 67.1009 91.3424 67.1399L89.3586 68.9505C89.2719 69.0328 89.2633 69.1671 89.3456 69.258C89.4279 69.3446 89.5621 69.3533 89.6531 69.271Z" fill="#CEC8DD" fill-opacity="0.51"/>
<path d="M104.328 81.6636L104.488 81.4904C108.136 77.5444 107.209 68.7428 102.626 63.7226C102.583 63.6749 102.526 63.6533 102.466 63.6533C102.414 63.6533 102.362 63.6706 102.318 63.7096C102.232 63.7919 102.223 63.9261 102.305 64.0171C106.689 68.8121 107.65 77.1415 104.328 81.0226L91.6542 67.1531C91.5719 67.0665 91.4376 67.0578 91.3467 67.1401C91.26 67.2224 91.2514 67.3567 91.3337 67.4476L104.328 81.668V81.6636Z" fill="#CEC8DD" fill-opacity="0.51"/>
<path d="M75.4589 101.745C75.5802 101.745 75.6712 101.641 75.6668 101.52L74.9955 82.5607C74.9955 82.4438 74.8958 82.3528 74.7789 82.3528C74.7789 82.3528 74.7746 82.3528 74.7702 82.3528C74.6489 82.3528 74.558 82.4568 74.5623 82.5781L75.2337 101.537C75.2337 101.658 75.3463 101.758 75.4589 101.745Z" fill="#CEC8DD" fill-opacity="0.51"/>
<path d="M71.4865 105.371C71.6078 105.371 71.7031 105.271 71.7031 105.155L71.5559 78.806C71.5559 78.689 71.4606 78.5894 71.3393 78.5894C71.218 78.5894 71.1227 78.689 71.1227 78.806L71.27 105.155C71.27 105.271 71.3653 105.371 71.4865 105.371Z" fill="#CEC8DD" fill-opacity="0.51"/>
<path d="M68.5295 107.012C68.6508 107.012 68.7461 106.912 68.7461 106.795L68.5728 75.539C68.5728 75.4221 68.4775 75.3225 68.3562 75.3225C68.235 75.3225 68.1397 75.4221 68.1397 75.539L68.3129 106.795C68.3129 106.912 68.4082 107.012 68.5295 107.012Z" fill="#CEC8DD" fill-opacity="0.51"/>
<path d="M38.4272 93.4995C38.5442 93.5081 38.6481 93.4128 38.6524 93.2915L39.8219 67.9089C40.7749 67.9436 41.7018 67.9826 42.5984 68.0216C52.5869 68.4417 59.1881 68.7189 65.3302 62.5942L84.8176 44.7874C84.9042 44.7051 84.9129 44.5708 84.8306 44.4798C84.7873 44.4322 84.731 44.4105 84.6703 44.4105C84.6183 44.4105 84.5664 44.4279 84.5231 44.4668L65.0313 62.2823C59.0148 68.2771 52.4873 68.0042 42.6158 67.5884C41.6498 67.5494 40.6536 67.5061 39.6227 67.4671L39.4104 67.4584L38.2236 93.2699C38.2193 93.3912 38.3102 93.4908 38.4315 93.4951L38.4272 93.4995Z" fill="#CEC8DD" fill-opacity="0.51"/>
<path d="M58.9202 89.1369C59.0025 89.2236 59.1368 89.2322 59.2277 89.1499C59.3144 89.0676 59.323 88.9333 59.2407 88.8424L39.775 67.5444C39.7317 67.4967 39.6754 67.4751 39.6147 67.4751C39.5627 67.4751 39.5107 67.4924 39.4674 67.5314C39.3808 67.6137 39.3721 67.748 39.4544 67.8389L58.9202 89.1369Z" fill="#CEC8DD" fill-opacity="0.51"/>
<path d="M45.8391 101.384L59.2277 89.1478C59.3144 89.0655 59.323 88.9312 59.2407 88.8403C59.1974 88.7926 59.1411 88.771 59.0805 88.771C59.0285 88.771 58.9765 88.7883 58.9332 88.8273L45.5445 101.064C45.4579 101.146 45.4492 101.28 45.5315 101.371C45.6138 101.458 45.7481 101.467 45.8391 101.384Z" fill="#CEC8DD" fill-opacity="0.51"/>
<path d="M55.847 91.9455C55.9293 92.0321 56.0636 92.0408 56.1545 91.9585C56.2411 91.8762 56.2498 91.7419 56.1675 91.651L42.8092 77.0322C42.7658 76.9845 42.7095 76.9629 42.6489 76.9629C42.5969 76.9629 42.5449 76.9802 42.5016 77.0192C42.415 77.1015 42.4063 77.2357 42.4886 77.3267L55.847 91.9455Z" fill="#CEC8DD" fill-opacity="0.51"/>
<path d="M42.5009 87.3945C42.6222 87.3859 42.7175 87.2992 42.7219 87.1823L42.8691 77.1852C42.8691 77.0639 42.7738 76.9686 42.6569 76.9643C42.5399 76.9643 42.4403 77.0596 42.4403 77.1765L42.293 87.1736C42.293 87.2949 42.3883 87.3902 42.5053 87.3945H42.5009Z" fill="#CEC8DD" fill-opacity="0.51"/>
<path d="M76.9192 125.164C77.0015 125.251 77.1358 125.26 77.2268 125.177C77.3134 125.095 77.3221 124.961 77.2398 124.87L0.754088 41.1764C0.710773 41.1288 0.654466 41.1071 0.593825 41.1071C0.541847 41.1071 0.489884 41.1245 0.446569 41.1634C0.359938 41.2457 0.351263 41.38 0.433561 41.471L76.9192 125.169V125.164Z" fill="#CEC8DD" fill-opacity="0.51"/>
<path d="M39.1868 73.7111C39.2648 73.7978 39.4034 73.8064 39.4943 73.7241C39.581 73.6418 39.5896 73.5076 39.5073 73.4166L11.7294 43.0181C11.6861 42.9705 11.6298 42.9488 11.5692 42.9488C11.5172 42.9488 11.4652 42.9661 11.4219 43.0051C11.3352 43.0874 11.3266 43.2217 11.4089 43.3126L39.1868 73.7111Z" fill="#CEC8DD" fill-opacity="0.51"/>
<path d="M-85.4565 131.951L26.5432 29.7835C26.6298 29.7012 26.6385 29.567 26.5562 29.476C26.5128 29.4284 26.4565 29.4067 26.3959 29.4067C26.3439 29.4067 26.292 29.424 26.2486 29.463L-85.751 131.63C-85.8377 131.712 -85.8463 131.847 -85.764 131.938C-85.6861 132.024 -85.5474 132.033 -85.4565 131.951Z" fill="#CEC8DD" fill-opacity="0.51"/>
<path d="M-6.23868 67.2984L8.18088 54.0353C8.26751 53.953 8.27616 53.8187 8.19386 53.7278C8.15054 53.6801 8.09424 53.6584 8.0336 53.6584C7.98162 53.6584 7.92965 53.6758 7.88634 53.7148L-6.53325 66.9778C-6.61988 67.0601 -6.62853 67.1944 -6.54623 67.2854C-6.46393 67.372 -6.32964 67.3807 -6.23868 67.2984Z" fill="#CEC8DD" fill-opacity="0.51"/>
<path d="M48.928 105.09C49.0103 105.177 49.1446 105.185 49.2356 105.103C49.3222 105.021 49.3309 104.886 49.2486 104.795L7.58384 59.2064C7.54053 59.1588 7.48422 59.1371 7.42358 59.1371C7.3716 59.1371 7.31961 59.1545 7.2763 59.1934C7.18967 59.2757 7.18102 59.41 7.26332 59.501L48.928 105.09Z" fill="#CEC8DD" fill-opacity="0.51"/>
<path d="M46.5501 107.262C46.6281 107.349 46.7667 107.357 46.8576 107.275C46.9443 107.193 46.9529 107.058 46.8706 106.967L7.11609 63.4618C7.07277 63.4141 7.01646 63.3925 6.95582 63.3925C6.90384 63.3925 6.85188 63.4098 6.80857 63.4488C6.72194 63.5311 6.71326 63.6654 6.79556 63.7563L46.5501 107.258V107.262Z" fill="#CEC8DD" fill-opacity="0.51"/>
<path d="M11.1741 86.676C11.2564 86.7626 11.3907 86.7713 11.4817 86.689C11.5683 86.6067 11.5769 86.4724 11.4946 86.3814L-15.8068 56.5027C-15.8501 56.4551 -15.9064 56.4334 -15.9671 56.4334C-16.019 56.4334 -16.071 56.4508 -16.1144 56.4898C-16.201 56.5721 -16.2096 56.7063 -16.1273 56.7973L11.1741 86.676Z" fill="#CEC8DD" fill-opacity="0.51"/>
<path d="M12.7093 126.395C12.7916 126.481 12.9258 126.49 13.0168 126.408C13.1034 126.325 13.1121 126.191 13.0298 126.1L-5.14952 106.206C-5.19283 106.158 -5.24914 106.136 -5.30978 106.136C-5.36176 106.136 -5.41372 106.154 -5.45704 106.193C-5.54367 106.275 -5.55235 106.409 -5.47005 106.5L12.7093 126.395Z" fill="#CEC8DD" fill-opacity="0.51"/>
<path d="M13.0121 126.408L29.8703 111.001C29.957 110.918 29.9656 110.784 29.8833 110.693C29.84 110.645 29.7837 110.624 29.723 110.624C29.6711 110.624 29.6191 110.641 29.5758 110.68L12.7176 126.087C12.6309 126.17 12.6223 126.304 12.7046 126.395C12.7869 126.481 12.9211 126.49 13.0121 126.408Z" fill="#CEC8DD" fill-opacity="0.51"/>
<path d="M74.3411 127.516C74.4234 127.602 74.5577 127.611 74.6486 127.529C74.7353 127.447 74.7439 127.312 74.6616 127.221L48.534 98.629C48.4907 98.5814 48.4344 98.5597 48.3737 98.5597C48.3218 98.5597 48.2698 98.5771 48.2265 98.616C48.1399 98.6983 48.1312 98.8326 48.2135 98.9236L74.3411 127.516Z" fill="#CEC8DD" fill-opacity="0.51"/>
<path d="M35.0801 157.126L71.3781 123.956C71.4648 123.874 71.4734 123.739 71.3911 123.648C71.3478 123.601 71.2915 123.579 71.2309 123.579C71.1789 123.579 71.1269 123.596 71.0836 123.635L34.7856 156.806C34.699 156.888 34.6903 157.023 34.7726 157.113C34.8549 157.2 34.9892 157.209 35.0801 157.126Z" fill="#CEC8DD" fill-opacity="0.51"/>
<path d="M34.7766 157.113C34.8589 157.2 34.9932 157.209 35.0842 157.126C35.1708 157.044 35.1795 156.91 35.0972 156.819L7.37124 126.477C7.32793 126.429 7.27162 126.407 7.21098 126.407C7.159 126.407 7.10701 126.425 7.0637 126.464C6.97707 126.546 6.96842 126.68 7.05072 126.771L34.7766 157.113Z" fill="#CEC8DD" fill-opacity="0.51"/>
<path d="M-50.8348 176.822L4.92891 126.234C5.01554 126.152 5.02422 126.018 4.94192 125.927C4.8986 125.879 4.84227 125.857 4.78163 125.857C4.72965 125.857 4.67769 125.875 4.63437 125.914L-51.1294 176.501C-51.216 176.584 -51.2247 176.718 -51.1424 176.809C-51.0601 176.895 -50.9258 176.904 -50.8348 176.822Z" fill="#CEC8DD" fill-opacity="0.51"/>
<path d="M5.14011 79.9918C5.25706 80.0048 5.36534 79.9181 5.37833 79.8012L10.6628 32.1157C10.6758 31.9987 10.5891 31.8904 10.4722 31.8774C10.4635 31.8774 10.4549 31.8774 10.4462 31.8774C10.3379 31.8774 10.2426 31.9597 10.2296 32.0723L4.94518 79.7579C4.93219 79.8748 5.01882 79.9831 5.13577 79.9961L5.14011 79.9918Z" fill="#CEC8DD" fill-opacity="0.51"/>
<path d="M1.3678 113.894C1.48475 113.92 1.60168 113.82 1.62334 113.703C1.645 113.586 1.56705 113.474 1.4501 113.452C1.4371 113.452 1.42409 113.452 1.4111 113.452C1.30714 113.452 1.22052 113.526 1.19886 113.629L1.19019 113.668C1.16853 113.785 1.24651 113.881 1.3678 113.902V113.894Z" fill="#CEC8DD" fill-opacity="0.51"/>
<path d="M-8.53446 203.444C-8.41751 203.457 -8.3092 203.37 -8.29621 203.253L0.42742 124.485C0.440414 124.368 0.353783 124.26 0.236833 124.247C0.22817 124.247 0.219508 124.247 0.210845 124.247C0.102557 124.247 0.00726415 124.329 -0.00573036 124.437L-8.72936 203.206C-8.74235 203.323 -8.65575 203.431 -8.53879 203.444H-8.53446Z" fill="#CEC8DD" fill-opacity="0.51"/>
<path d="M-11.8208 96.5609H-11.7342C-11.3184 96.5999 -10.7943 96.5176 -10.1705 96.3226C-6.50174 95.2094 -0.15176 90.618 2.22623 84.8961C2.43848 84.4067 2.62041 83.8912 2.77201 83.3585L2.80664 83.2415L-19.2017 59.1584C-19.245 59.1107 -19.3013 59.089 -19.362 59.089C-19.414 59.089 -19.4659 59.1064 -19.5092 59.1454C-19.5959 59.2277 -19.6045 59.3619 -19.5222 59.4529L2.32151 83.3541C2.18291 83.8263 2.01833 84.2854 1.82774 84.7272C-0.502605 90.3278 -6.70967 94.8196 -10.2962 95.9068C-10.8159 96.0671 -11.2707 96.145 -11.6173 96.1364L-33.3354 72.3694C-33.4177 72.2828 -33.552 72.2741 -33.6429 72.3564C-33.7296 72.4387 -33.7382 72.573 -33.6559 72.664L-11.8208 96.5565V96.5609Z" fill="#CEC8DD" fill-opacity="0.51"/>
<path d="M46.8581 107.275L49.2404 105.101C49.3271 105.018 49.3357 104.884 49.2534 104.793C49.2101 104.745 49.1538 104.724 49.0932 104.724C49.0412 104.724 48.9892 104.741 48.9459 104.78L46.5636 106.954C46.4769 107.037 46.4683 107.171 46.5506 107.262C46.6286 107.349 46.7671 107.357 46.8581 107.275Z" fill="#CEC8DD" fill-opacity="0.51"/>
<path d="M30.8659 106.14L46.6932 107.331C46.8102 107.34 46.9142 107.249 46.9272 107.132C46.9358 107.011 46.8449 106.907 46.7279 106.898L30.9006 105.707C30.9006 105.707 30.8876 105.707 30.8833 105.707C30.7706 105.707 30.6753 105.794 30.6667 105.906C30.658 106.028 30.749 106.132 30.8659 106.14Z" fill="#CEC8DD" fill-opacity="0.51"/>
<path d="M29.8396 98.9672L39.1784 99.0972C39.291 99.1058 39.3949 99.0019 39.3993 98.8849C39.4036 98.768 39.304 98.6683 39.187 98.664L29.8483 98.5341C29.7314 98.5341 29.6317 98.6293 29.6317 98.7463C29.6317 98.8676 29.727 98.9629 29.844 98.9672H29.8396Z" fill="#CEC8DD" fill-opacity="0.51"/>
<path d="M28.8377 96.0964L36.6258 96.3086C36.7644 96.2999 36.8423 96.2176 36.8467 96.0964C36.8467 95.9751 36.7557 95.8754 36.6344 95.8754L28.8464 95.6632H28.8421C28.7251 95.6632 28.6298 95.7542 28.6255 95.8754C28.6255 95.9967 28.7165 96.0964 28.8377 96.0964Z" fill="#CEC8DD" fill-opacity="0.51"/>
<path d="M10.1257 83.8567L26.633 85.39C26.75 85.3987 26.8583 85.3121 26.8669 85.1951C26.8799 85.0782 26.789 84.9699 26.672 84.9612L10.1647 83.4279C10.1647 83.4279 10.1516 83.4279 10.143 83.4279C10.0347 83.4279 9.93939 83.5102 9.9264 83.6228C9.9134 83.7397 10.0044 83.848 10.1213 83.8567H10.1257Z" fill="#CEC8DD" fill-opacity="0.51"/>
<path d="M-0.922614 105.599C-0.913951 105.62 -0.900944 105.642 -0.883618 105.664L9.55096 117.081L13.0118 120.867L24.1611 110.679L10.0231 95.2074L-0.965918 105.248C-1.05255 105.33 -1.06122 105.464 -0.978925 105.555C-0.961599 105.573 -0.939935 105.59 -0.918278 105.603L-0.922614 105.599ZM9.99278 95.8181L23.546 110.649L13.1504 120.148L13.0378 120.252L-0.515451 105.421L9.99278 95.8181Z" fill="#CEC8DD" fill-opacity="0.51"/>
<path d="M9.44616 108.789C10.3514 108.789 11.2221 108.456 11.8848 107.845C13.3662 106.489 13.4571 104.167 12.0841 102.664C11.3824 101.898 10.3861 101.456 9.35088 101.456C8.44127 101.456 7.57496 101.794 6.90791 102.4C6.18888 103.058 5.77304 103.955 5.73406 104.934C5.69508 105.913 6.04159 106.849 6.70431 107.576C7.40602 108.347 8.40227 108.785 9.44183 108.785L9.44616 108.789ZM7.20245 102.721C7.79153 102.184 8.55389 101.889 9.35522 101.889C10.2692 101.889 11.1484 102.279 11.7678 102.959C12.9763 104.284 12.9027 106.333 11.5946 107.529C11.0098 108.066 10.2432 108.36 9.44616 108.36C8.53222 108.36 7.65291 107.97 7.02918 107.29C6.44442 106.649 6.1369 105.818 6.17155 104.956C6.2062 104.094 6.57005 103.301 7.20245 102.725V102.721Z" fill="#CEC8DD" fill-opacity="0.51"/>
<path d="M0.649672 113.199C0.723308 113.281 0.753631 113.311 0.814272 113.372C0.961543 113.532 1.11316 113.679 1.26043 113.818C3.53014 115.962 6.47988 117.145 9.56391 117.145H9.70686C12.5743 117.119 15.3031 116.053 17.3996 114.134C19.3618 112.341 20.6092 109.998 21.0164 107.355C21.4582 104.518 20.8605 101.599 19.3228 99.1428C18.9329 98.5061 18.4651 97.8867 17.941 97.3106C17.5642 96.8991 17.196 96.5439 16.8148 96.2277C16.6286 96.0674 16.4337 95.9115 16.2387 95.7642C15.9745 95.565 15.6973 95.3701 15.4071 95.1881C13.5229 93.9927 11.3528 93.3646 9.13943 93.3646C7.1686 93.3646 5.20641 93.8714 3.46515 94.8243C2.83275 95.1665 2.27833 95.6343 1.82352 96.0458C1.65026 96.1974 1.47699 96.3577 1.2994 96.5136L1.20412 96.6002C1.05685 96.7345 0.913889 96.8731 0.779612 97.0117C-3.51291 101.395 -3.64285 108.274 0.480737 113.004C0.54571 113.082 0.576037 113.116 0.649672 113.194V113.199ZM1.09583 97.3149C1.22577 97.1806 1.36438 97.0464 1.50299 96.9207L1.59827 96.8341C1.77153 96.6782 1.94046 96.5222 2.11372 96.3706C2.57719 95.9548 3.08397 95.526 3.67739 95.2055C5.35801 94.2872 7.24654 93.7977 9.14374 93.7977C11.2748 93.7977 13.3626 94.4041 15.1819 95.5563C15.4591 95.7296 15.7276 95.9158 15.9832 96.1108C16.1781 96.2537 16.36 96.4053 16.542 96.5612C16.9058 96.8644 17.261 97.2066 17.6248 97.6051C18.1359 98.1639 18.5821 98.7573 18.9589 99.3724C20.4403 101.742 21.0207 104.557 20.5919 107.295C20.2021 109.837 18.9979 112.094 17.1094 113.818C15.0909 115.663 12.4617 116.69 9.70252 116.711H9.55958C6.58383 116.711 3.74237 115.572 1.55063 113.502C1.40769 113.372 1.26475 113.233 1.11748 113.073C1.05251 113.012 1.02652 112.982 0.957219 112.904C0.896578 112.839 0.870573 112.809 0.8056 112.731C-3.17072 108.165 -3.04943 101.542 1.08716 97.3192L1.09583 97.3149Z" fill="#CEC8DD" fill-opacity="0.51"/>
<path d="M19.4703 120.501C20.2933 119.964 21.0773 119.357 21.8007 118.695C22.5241 118.032 23.2041 117.304 23.8105 116.533C23.8842 116.438 23.8668 116.304 23.7759 116.23C23.7369 116.2 23.6892 116.182 23.6416 116.182C23.5766 116.182 23.516 116.213 23.4726 116.265C22.8792 117.018 22.2209 117.729 21.5105 118.374C20.8045 119.019 20.0378 119.613 19.2321 120.137C19.1325 120.202 19.1022 120.336 19.1671 120.436C19.2321 120.535 19.3664 120.566 19.466 120.501H19.4703Z" fill="#CEC8DD" fill-opacity="0.51"/>
<path d="M-3.99884 117.365C-2.67773 118.811 -1.15738 120.024 0.518913 120.977C3.42535 122.636 6.72596 123.468 10.0742 123.398C10.1955 123.398 10.2864 123.294 10.2864 123.177C10.2864 123.056 10.1695 122.957 10.0655 122.965C6.80391 123.043 3.57262 122.225 0.731152 120.6C-0.906156 119.673 -2.39186 118.486 -3.68265 117.07C-6.49813 113.99 -8.1744 110.014 -8.40397 105.873C-8.69418 100.541 -6.62375 95.4385 -2.71673 91.865C-0.680928 90.0025 1.69275 88.6814 4.3393 87.9363C6.622 87.2909 8.97833 87.1133 11.3347 87.4036C15.5969 87.9233 19.5515 89.9678 22.471 93.1645C27.8983 99.1029 27.3482 105.856 27.0537 107.788V107.805C27.032 107.922 27.1143 108.026 27.2313 108.043C27.3482 108.065 27.4609 107.974 27.4782 107.853C27.7814 105.877 28.3445 98.9557 22.7872 92.8742C19.7984 89.604 15.7485 87.5075 11.3823 86.9791C10.633 86.8838 9.87929 86.8405 9.12994 86.8405C7.47098 86.8405 5.82499 87.07 4.21367 87.5248C1.50215 88.2872 -0.927824 89.6429 -3.01561 91.5488C-7.01792 95.2089 -9.14467 100.437 -8.84579 105.899C-8.61189 110.14 -6.8923 114.216 -4.01185 117.365H-3.99884Z" fill="#CEC8DD" fill-opacity="0.51"/>
<path d="M12.929 120.612L13.3448 120.517C13.4618 120.491 13.5354 120.374 13.5094 120.257C13.4878 120.157 13.3968 120.088 13.2972 120.088C13.2799 120.088 13.2669 120.088 13.2496 120.092L12.8381 120.187C12.7211 120.213 12.6475 120.33 12.6735 120.447C12.6994 120.564 12.8121 120.638 12.9333 120.612H12.929Z" fill="#CEC8DD" fill-opacity="0.51"/>
<path d="M-2.21273 115.738C-1.31611 116.721 -0.302531 117.587 0.79767 118.319C2.85947 119.684 5.25478 120.559 7.7194 120.853C7.83635 120.871 7.94464 120.784 7.96197 120.663C7.97496 120.546 7.89266 120.437 7.77138 120.42C5.37173 120.134 3.04572 119.281 1.04023 117.955C-0.0296475 117.245 -1.01724 116.4 -1.8922 115.443C-4.25287 112.862 -5.64763 109.669 -5.93784 106.217C-6.33634 101.448 -4.55608 96.8784 -1.05623 93.6817C0.442475 92.313 2.16642 91.2734 4.06795 90.5977C6.41129 89.7617 8.96688 89.5148 11.4618 89.8787C14.992 90.3985 18.2753 92.1484 20.7009 94.8036C23.5077 97.8746 24.8851 101.422 24.7942 105.355C24.7942 105.476 24.8851 105.572 25.0064 105.576C25.132 105.576 25.2273 105.485 25.2273 105.364C25.3183 101.314 23.9019 97.6624 21.0215 94.5091C18.5265 91.7802 15.1566 89.9826 11.5268 89.4499C10.7601 89.3373 9.98912 89.2809 9.21378 89.2809C7.40754 89.2809 5.61429 89.5885 3.925 90.1862C1.97149 90.8793 0.199922 91.9491 -1.34209 93.3569C-4.94157 96.6445 -6.77381 101.344 -6.36232 106.252C-6.06777 109.804 -4.6297 113.083 -2.20406 115.738H-2.21273Z" fill="#CEC8DD" fill-opacity="0.51"/>
<path d="M-12.0686 103.687C-11.9429 103.695 -11.8477 103.609 -11.8347 103.492C-11.8303 103.448 -11.042 98.4455 -10.0414 96.2061C-8.87191 93.5856 -7.19561 91.2639 -5.05585 89.3104C-2.96373 87.4002 -0.555413 85.9535 2.09547 85.0179C2.97909 84.7103 3.86704 84.4634 4.73334 84.2859C6.00247 84.013 7.32792 83.8614 8.67069 83.831C9.22512 83.8224 9.68859 83.831 10.1347 83.857C10.7888 83.883 11.4472 83.9437 12.0839 84.0346L12.1575 84.0433C17.0695 84.7493 21.6349 87.1706 25.0048 90.8567C27.1229 93.1741 28.6779 95.851 29.6351 98.8094C30.3802 101.109 30.7224 103.5 30.666 105.917C30.5231 111.717 28.1018 117.049 23.8483 120.93C18.7414 125.595 11.6334 127.436 4.82865 125.855C3.27364 125.5 1.75328 124.963 0.306554 124.257C0.198266 124.205 0.0683019 124.248 0.0163239 124.357C-0.0356541 124.465 0.00767888 124.595 0.115966 124.647C1.59301 125.366 3.14367 125.916 4.729 126.28C11.6724 127.895 18.9277 126.016 24.1385 121.255C28.4786 117.292 30.9476 111.847 31.0949 105.93C31.1555 103.466 30.8047 101.023 30.0466 98.6751C29.0721 95.656 27.4824 92.9229 25.3253 90.5622C21.8861 86.7981 17.2297 84.3292 12.2312 83.6101C12.2138 83.6101 12.1965 83.6058 12.1575 83.5971C11.4992 83.5018 10.8234 83.4412 10.1607 83.4152C9.80987 83.3936 9.44601 83.3849 9.03452 83.3849C8.91757 83.3849 8.79196 83.3849 8.66635 83.3849C7.2976 83.4152 5.94182 83.5755 4.6467 83.8484C3.76308 84.0303 2.8578 84.2815 1.95252 84.5977C-0.75467 85.555 -3.21062 87.0277 -5.34605 88.9769C-7.52913 90.9737 -9.24007 93.343 -10.4356 96.0156C-11.4795 98.3502 -12.2635 103.405 -12.2678 103.444C-12.2765 103.561 -12.1855 103.661 -12.0686 103.669V103.687Z" fill="#CEC8DD" fill-opacity="0.51"/>
<path d="M68.3938 115.447C68.4804 115.33 68.567 115.234 68.658 115.152C69.4723 114.407 70.7501 114.476 71.5038 115.299C71.872 115.702 72.0625 116.218 72.0409 116.755C72.0192 117.292 71.7897 117.786 71.3955 118.145L71.2222 118.305C69.1258 120.25 68.5973 120.718 68.5324 120.766C68.4284 120.826 68.3937 120.961 68.4544 121.06C68.515 121.164 68.6493 121.199 68.7489 121.138C68.7966 121.112 68.8746 121.064 71.5124 118.622L71.6857 118.461C72.1665 118.024 72.4437 117.422 72.4697 116.768C72.4957 116.114 72.2661 115.49 71.82 115.005C71.3305 114.472 70.6635 114.199 69.9921 114.199C69.4073 114.199 68.8226 114.407 68.3634 114.827C68.2508 114.927 68.1469 115.044 68.0429 115.187C67.9693 115.282 67.9909 115.416 68.0862 115.49C68.1815 115.559 68.3201 115.542 68.3894 115.447H68.3938Z" fill="#CEC8DD" fill-opacity="0.51"/>
<path d="M60.9961 112.886C61.1044 112.933 61.2343 112.886 61.2819 112.773C61.7541 111.681 62.4168 110.703 63.2528 109.871C63.3524 109.771 63.4564 109.667 63.556 109.576C65.1933 108.078 67.3287 107.211 69.5638 107.129C72.3793 107.029 75.0865 108.177 77.001 110.269C80.5658 114.172 80.3362 120.206 76.4855 123.723C76.3859 123.814 76.2819 123.905 76.165 124C75.2684 124.754 74.2331 125.326 73.094 125.698C72.9813 125.737 72.9164 125.858 72.9553 125.971C72.9943 126.084 73.1156 126.149 73.2282 126.11C74.4237 125.72 75.5023 125.122 76.4552 124.325C76.5678 124.23 76.6761 124.139 76.7801 124.044C80.804 120.366 81.0509 114.055 77.3215 109.975C75.4027 107.874 72.7128 106.687 69.8973 106.687C69.7804 106.687 69.6677 106.687 69.5508 106.692C67.2118 106.774 64.9811 107.684 63.2658 109.252C63.1575 109.347 63.0535 109.455 62.9452 109.559C62.0703 110.43 61.3729 111.452 60.8834 112.6C60.8358 112.708 60.8835 112.838 60.9961 112.886Z" fill="#CEC8DD" fill-opacity="0.51"/>
<path d="M69.8496 121.952L67.7662 119.673L60.3073 126.491L62.3907 128.77L69.8496 121.952ZM67.7402 120.288L69.2389 121.926L62.4168 128.159L60.9181 126.521L67.7402 120.288Z" fill="#CEC8DD" fill-opacity="0.51"/>
<path d="M27.2058 30.7338L73.6525 32.5703C73.7868 32.5703 73.8734 32.4794 73.8778 32.3624C73.8821 32.2411 73.7912 32.1415 73.6699 32.1372L27.2232 30.3006H27.2145C27.0976 30.3006 27.0023 30.3916 26.9979 30.5085C26.9936 30.6298 27.0846 30.7294 27.2058 30.7338Z" fill="#CEC8DD" fill-opacity="0.51"/>
<path d="M24.9878 23.2248L65.678 23.8398C65.7949 23.8398 65.8945 23.7445 65.8945 23.6276C65.8945 23.5063 65.7992 23.411 65.6823 23.4067L24.9922 22.7916C24.8752 22.7916 24.7756 22.8869 24.7756 23.0038C24.7756 23.1251 24.8709 23.2204 24.9878 23.2248Z" fill="#CEC8DD" fill-opacity="0.51"/>
<path d="M52.0901 43.5744C52.1724 43.6611 52.3067 43.6697 52.3977 43.5874C52.4843 43.5051 52.493 43.3708 52.4107 43.2799L41.1228 30.9178C41.0794 30.8701 41.0231 30.8485 40.9625 30.8485C40.9105 30.8485 40.8585 30.8658 40.8152 30.9048C40.7286 30.9871 40.7199 31.1214 40.8022 31.2123L52.0901 43.5744Z" fill="#CEC8DD" fill-opacity="0.51"/>
<path d="M33.4563 23.1721C33.5386 23.2587 33.6729 23.2674 33.7639 23.1851C33.8505 23.1028 33.8592 22.9685 33.7769 22.8775L27.86 16.4019C27.8167 16.3543 27.7604 16.3326 27.6998 16.3326C27.6478 16.3326 27.5958 16.35 27.5525 16.389C27.4659 16.4713 27.4572 16.6055 27.5395 16.6965L33.4563 23.1721Z" fill="#CEC8DD" fill-opacity="0.51"/>
<path d="M43.0032 42.8886C43.0855 42.9753 43.2198 42.9796 43.3107 42.9016C43.3974 42.8193 43.4061 42.6851 43.3238 42.5941L23.048 20.5511C23.0047 20.5034 22.9484 20.4818 22.8877 20.4818C22.8358 20.4818 22.7838 20.4991 22.7404 20.5381C22.6538 20.6204 22.6452 20.7547 22.7275 20.8456L43.0032 42.8886Z" fill="#CEC8DD" fill-opacity="0.51"/>
<path d="M48.4866 43.5471C48.5689 43.6337 48.7032 43.6424 48.7942 43.5601C48.8808 43.4778 48.8894 43.3435 48.8071 43.2525L37.4023 30.7692C37.359 30.7215 37.3027 30.6998 37.242 30.6998C37.19 30.6998 37.1381 30.7172 37.0948 30.7562C37.0081 30.8385 36.9995 30.9727 37.0818 31.0637L48.4866 43.5471Z" fill="#CEC8DD" fill-opacity="0.51"/>
<path d="M43.1367 42.9609L48.6203 43.615C48.7373 43.6323 48.8456 43.5457 48.8629 43.4244C48.8759 43.3074 48.7936 43.1992 48.6723 43.1818L43.1887 42.5278C43.1887 42.5278 43.1713 42.5278 43.1627 42.5278C43.0544 42.5278 42.9634 42.6101 42.9461 42.7184C42.9331 42.8353 43.0154 42.9436 43.1367 42.9609Z" fill="#CEC8DD" fill-opacity="0.51"/>
<path d="M52.3977 43.5874L65.1194 31.9617C65.206 31.8794 65.2146 31.7451 65.1323 31.6541C65.089 31.6065 65.0327 31.5848 64.9721 31.5848C64.9201 31.5848 64.8681 31.6021 64.8248 31.6411L52.1032 43.2669C52.0165 43.3492 52.0079 43.4835 52.0902 43.5744C52.1725 43.6611 52.3068 43.6697 52.3977 43.5874Z" fill="#CEC8DD" fill-opacity="0.51"/>
<path d="M64.9546 32.019C65.0716 32.0276 65.1755 31.9367 65.1842 31.8154L65.6996 24.0144C65.7083 23.8931 65.6173 23.7935 65.4961 23.7848C65.4917 23.7848 65.4874 23.7848 65.483 23.7848C65.3704 23.7848 65.2751 23.8714 65.2665 23.9884L64.751 31.7894C64.7424 31.9107 64.8333 32.0103 64.9546 32.019Z" fill="#CEC8DD" fill-opacity="0.51"/>
<path d="M11.5034 43.3775C15.77 44.6899 45.6443 52.465 52.5964 48.5103L70.884 32.4058C70.975 32.3278 70.9836 32.1892 70.9013 32.0982C70.858 32.0506 70.7974 32.0246 70.7367 32.0246C70.6848 32.0246 70.6328 32.0419 70.5938 32.0766L52.3582 48.1421C45.4971 51.9972 15.8653 44.2654 11.6247 42.9617C11.5121 42.927 11.3908 42.992 11.3562 43.1046C11.3215 43.2172 11.3865 43.3385 11.4991 43.3732L11.5034 43.3775Z" fill="#CEC8DD" fill-opacity="0.51"/>
<path d="M71.9875 43.5177C72.0741 43.4354 72.0828 43.3012 72.0005 43.2102C71.9182 43.1236 71.7839 43.1149 71.693 43.1972C71.1126 43.73 70.2029 43.6823 69.6615 43.0889C69.1201 42.4955 69.1547 41.5859 69.7351 41.0531C69.8218 40.9708 69.8304 40.8365 69.7481 40.7456C69.7048 40.6979 69.6485 40.6763 69.5879 40.6763C69.5359 40.6763 69.4839 40.6936 69.4406 40.7326C68.6826 41.4256 68.6393 42.6124 69.341 43.3791C70.0427 44.1458 71.2252 44.2064 71.9832 43.5134L71.9875 43.5177Z" fill="#CEC8DD" fill-opacity="0.51"/>
<path d="M69.7388 41.0544L76.1321 35.3802C76.223 35.3022 76.2317 35.1636 76.1494 35.0726C76.1061 35.025 76.0454 34.999 75.9891 34.999C75.9371 34.999 75.8852 35.0163 75.8462 35.0553L69.4529 40.7296C69.3619 40.8075 69.3532 40.9461 69.4355 41.0371C69.5135 41.1281 69.6521 41.1324 69.7431 41.0544H69.7388Z" fill="#CEC8DD" fill-opacity="0.51"/>
<path d="M71.9859 43.5232L78.4355 37.7666C78.5265 37.6886 78.5308 37.5501 78.4529 37.4591C78.4095 37.4114 78.3489 37.3854 78.2926 37.3854C78.2406 37.3854 78.1886 37.4028 78.1497 37.4417L71.7001 43.1983C71.6091 43.2763 71.6048 43.4149 71.6827 43.5059C71.7607 43.5968 71.8993 43.6011 71.9903 43.5232H71.9859Z" fill="#CEC8DD" fill-opacity="0.51"/>
<path d="M27.6906 61.0699C31.5327 61.763 51.8084 64.5871 55.3733 61.3298C55.4599 61.2475 55.4685 61.1133 55.3862 61.0223C55.3039 60.9357 55.1697 60.927 55.0787 61.0093C51.947 63.8724 33.7027 61.7067 27.7686 60.6411C27.7556 60.6411 27.7426 60.6411 27.7296 60.6411C27.6257 60.6411 27.5347 60.7148 27.5174 60.8187C27.4957 60.9357 27.5737 61.0483 27.6906 61.0699Z" fill="#CEC8DD" fill-opacity="0.51"/>
<path d="M61.3729 108.043L65.8257 107.939C65.947 107.939 66.0423 107.835 66.0379 107.718C66.0379 107.601 65.9383 107.506 65.8214 107.506H65.817L61.3642 107.61C61.243 107.61 61.1477 107.714 61.152 107.831C61.152 107.952 61.2516 108.039 61.3729 108.043Z" fill="#CEC8DD" fill-opacity="0.51"/>
<path d="M19.1444 99.4784L23.8137 99.5391C23.9306 99.5391 24.0303 99.4438 24.0303 99.3268C24.0303 99.2055 23.935 99.1102 23.818 99.1059L19.1487 99.0453C19.0317 99.0453 18.9321 99.1406 18.9321 99.2575C18.9321 99.3788 19.0274 99.4741 19.1444 99.4784Z" fill="#CEC8DD" fill-opacity="0.51"/>
<path d="M16.6721 96.6087L22.0648 96.8036C22.1861 96.8166 22.2857 96.7126 22.29 96.5957C22.29 96.4744 22.1991 96.3748 22.0821 96.3704L16.6894 96.1755C16.6894 96.1755 16.6851 96.1755 16.6807 96.1755C16.5638 96.1755 16.4685 96.2665 16.4642 96.3834C16.4642 96.5047 16.5551 96.6043 16.6721 96.6087Z" fill="#CEC8DD" fill-opacity="0.51"/>
<path d="M11.9151 91.2266C12.032 91.2136 12.1186 91.1053 12.1013 90.984L11.5469 86.5052C11.5339 86.3969 11.4386 86.3146 11.3303 86.3146C11.3216 86.3146 11.313 86.3146 11.3043 86.3146C11.1874 86.3276 11.1007 86.4359 11.118 86.5572L11.6725 91.036C11.6855 91.1529 11.7981 91.2396 11.9151 91.2222V91.2266Z" fill="#CEC8DD" fill-opacity="0.51"/>
<path d="M29.5665 110.979C29.6488 111.069 29.7831 111.074 29.874 110.996C29.965 110.918 29.9693 110.779 29.8913 110.688L12.0542 90.8587C12.0109 90.811 11.9503 90.785 11.894 90.785C11.842 90.785 11.79 90.8024 11.751 90.8414C11.66 90.9193 11.6557 91.0579 11.7337 91.1489L29.5708 110.979H29.5665Z" fill="#CEC8DD" fill-opacity="0.51"/>
</svg>
