<svg width="188" height="204" viewBox="0 0 188 204" fill="none" xmlns="http://www.w3.org/2000/svg">
<path d="M188.785 72.4219C189.747 72.4219 190.656 72.0623 191.358 71.4083C192.878 69.9832 192.948 67.5836 191.518 66.0546C190.799 65.2879 189.79 64.8504 188.742 64.8504C187.78 64.8504 186.866 65.2099 186.164 65.8683C184.648 67.289 184.575 69.693 186.004 71.2177C186.723 71.9844 187.732 72.4219 188.781 72.4219H188.785ZM186.463 66.1845C187.083 65.6041 187.893 65.2835 188.742 65.2835C189.669 65.2835 190.565 65.6734 191.202 66.3534C192.471 67.7049 192.406 69.8316 191.059 71.0921C190.44 71.6725 189.634 71.9887 188.785 71.9887C187.858 71.9887 186.961 71.5989 186.325 70.9232C185.06 69.5717 185.121 67.445 186.463 66.1845Z" fill="#CEC8DD" fill-opacity="0.51"/>
<path d="M152.678 169.188L152.609 168.972V169.188C152.609 169.188 152.635 169.188 152.648 169.188H152.673H152.678Z" fill="#CEC8DD" fill-opacity="0.51"/>
<path d="M193.017 4.13195L187.182 9.58966C187.182 9.58966 187.174 9.59397 187.169 9.59831L184.462 12.1323L178.784 17.4513L166.976 28.5097L150.161 44.259L133.905 59.4886L95.4109 95.544L92.1363 98.6107L85.2925 105.021L82.0179 108.088L68.4213 120.823C68.4213 120.823 68.4127 120.831 68.4083 120.831L55.9899 132.466L53.0185 135.251L48.6783 139.314C48.6783 139.314 48.674 139.314 48.6697 139.322L40.0846 147.362C40.0846 147.362 40.0846 147.362 40.0803 147.362L24.7988 161.677C24.7988 161.677 24.7944 161.682 24.7901 161.686L17.8987 168.14C17.8987 168.14 17.8987 168.14 17.8943 168.144L7.62868 177.756C7.62868 177.756 7.62868 177.756 7.62434 177.76L0.828215 184.123L0.672288 184.27L79.0335 267.938L79.1808 268.094L104.55 244.331C104.55 244.331 104.55 244.331 104.555 244.327L110.06 239.172C110.06 239.172 109.973 239.164 109.978 239.155L133.996 216.566L163.104 189.395C163.117 189.386 163.177 189.373 163.19 189.36L196.79 157.909V157.355L190.544 163.202L180.819 152.819C180.798 152.798 180.776 152.78 180.75 152.772C180.737 152.767 180.724 152.767 180.711 152.763C180.698 152.763 180.681 152.754 180.668 152.754L156.715 152.339L163.472 146.01L187.295 146.019L188.625 147.44L196.79 156.159V155.527L189.088 147.305L196.136 140.704L196.79 141.402V140.769L196.305 140.249C196.261 140.206 196.205 140.18 196.149 140.18C196.097 140.18 196.04 140.197 196.001 140.241L188.798 146.989L187.546 145.651L186.013 144.014L192.809 137.646L195.378 135.307L196.794 136.81V136.264L195.473 134.857C195.43 134.813 195.373 134.787 195.317 134.787C195.265 134.787 195.209 134.805 195.17 134.848L192.67 137.187L173.798 117.037L181.257 110.05C181.296 110.011 181.257 109.959 181.261 109.907L182.366 83.8793L188.222 90.134L186.836 112.03C186.836 112.03 186.845 112.069 186.849 112.086C186.849 112.095 186.849 112.108 186.858 112.116C186.858 112.125 186.866 112.134 186.871 112.138C186.879 112.155 186.888 112.173 186.901 112.186L196.79 122.75V122.118L187.273 111.96L188.638 90.5801L196.79 99.2821V98.6497L188.621 89.926L182.357 83.2382L177.735 78.3046L177.203 71.8117L183.241 78.257C183.28 78.3003 183.336 78.322 183.392 78.3263C183.449 78.3263 183.505 78.309 183.548 78.27L185.186 76.7366L186.97 75.0646L194.433 83.0303C194.472 83.0736 194.529 83.0952 194.585 83.0996C194.641 83.1039 194.698 83.0823 194.741 83.0433L196.092 81.7785C194.303 84.9665 194.524 89.0121 196.798 92.0311V91.2731C194.845 88.2801 194.862 84.412 196.798 81.4666V80.7173C196.664 80.8948 196.539 81.0725 196.417 81.2544C196.409 81.2371 196.4 81.2197 196.387 81.2024L188.776 73.0765C188.733 73.0289 188.677 73.0072 188.621 73.0072C188.569 73.0072 188.512 73.0245 188.473 73.0635L186.84 74.5925L185.056 76.2645L176.96 67.6231L184.328 60.8313L196.803 60.8963V60.2423C196.768 60.2856 196.751 60.4632 196.742 60.5065L184.393 60.4502L156.693 59.8178L177.965 40.2307C177.965 40.2307 177.965 40.2307 177.969 40.2307C177.969 40.2307 177.969 40.2307 177.969 40.2264L183.579 35.0632C183.579 35.0632 183.592 35.0546 183.596 35.0502L186.814 32.0875C186.814 32.0875 186.845 32.0658 186.858 32.0485L189.846 29.298C189.846 29.298 189.881 29.272 189.894 29.2503L196.798 22.896V22.2593L190.028 28.449L190.007 23.6324L187.005 23.6497L187.074 17.9105L192.515 18.0014C192.515 18.0014 192.523 17.9754 192.528 17.9754C192.61 17.9754 192.679 17.9148 192.709 17.8368C192.714 17.8238 192.714 17.8065 192.718 17.7935C192.718 17.7805 192.727 17.7632 192.727 17.7502L192.961 12.8903L196.794 13.0462V12.6304L192.982 12.4528L193.099 10.0488L196.794 10.1051V9.66763L193.121 9.61131L193.377 4.37885L196.798 1.17786V0.614774L193.043 4.12331C193.043 4.12331 193.026 4.12328 193.026 4.12762L193.017 4.13195ZM7.21285 190.664L1.27002 184.318L7.53339 178.449L7.21285 190.664ZM188.599 73.527L195.915 81.3367L194.594 82.5711L187.282 74.7614L188.599 73.527ZM134.784 127.775L127.512 120.013L128.443 88.6482L128.486 85.7505L134.122 80.5613L134.78 127.775H134.784ZM134.269 59.8697L155.588 60.2206L134.542 79.5867L134.264 59.8697H134.269ZM113.17 171.202L127.092 170.635L126.827 184.864L100.626 186.337L113.127 174.624C113.14 174.611 113.148 174.598 113.157 174.581C113.161 174.572 113.17 174.564 113.174 174.555C113.179 174.546 113.179 174.533 113.183 174.52C113.183 174.503 113.192 174.486 113.192 174.468L113.17 171.202ZM89.3425 224.458L89.8709 236.426L87.3153 236.482L86.8735 224.601L89.3425 224.458ZM86.8605 224.168L86.6743 219.213L89.1042 219.048L89.3252 224.025L86.8605 224.168ZM95.3849 214.639L93.4401 214.665L93.3621 210.84L95.4282 210.81L95.5062 214.578C95.4629 214.591 95.4239 214.608 95.3893 214.639H95.3849ZM95.4109 223.67L89.754 223.999L89.5331 219.018L95.2723 218.628L95.4109 223.67ZM95.4975 210.376L93.2885 210.411C93.1845 210.411 93.0849 210.454 93.0156 210.524C92.9593 210.584 92.929 210.658 92.929 210.74L93.0113 214.786C93.0113 214.964 93.1759 215.102 93.3794 215.102L95.1987 215.076C95.1857 215.171 95.1857 215.258 95.1857 215.31L95.2636 218.195L89.5157 218.585L89.0783 208.666L95.2853 208.358C95.2853 208.358 95.3113 208.349 95.3243 208.349C95.3373 208.349 95.3503 208.345 95.3633 208.341C95.3763 208.336 95.3849 208.323 95.3979 208.315C95.4066 208.306 95.4196 208.302 95.4282 208.293C95.4369 208.284 95.4456 208.271 95.4499 208.258C95.4586 208.245 95.4672 208.237 95.4716 208.224C95.4759 208.211 95.4759 208.193 95.4802 208.18C95.4802 208.167 95.4889 208.159 95.4889 208.146V205.27L105.499 204.767L105.456 217.506L98.8328 217.957L98.7592 215.232C98.7505 214.881 98.6336 214.504 98.3433 214.504L95.935 214.556L95.8571 210.693C95.8527 210.515 95.6925 210.376 95.4932 210.376H95.4975ZM95.6405 215.059C95.7011 215.05 95.7574 215.029 95.8008 214.994L98.274 214.942C98.2957 214.994 98.3217 215.098 98.326 215.245L98.3997 217.987L95.6925 218.169L95.6145 215.301C95.6145 215.193 95.6232 215.119 95.6362 215.059H95.6405ZM98.417 218.416L98.5556 223.488L95.8484 223.644L95.7098 218.598L98.417 218.416ZM98.5642 223.921L98.8675 235.062C98.8675 235.205 98.8501 235.313 98.8328 235.365L96.2122 235.421C96.1906 235.369 96.1646 235.265 96.1603 235.118L95.8614 224.077L98.5686 223.921H98.5642ZM98.8458 218.39L105.685 217.926C105.685 217.926 105.707 217.918 105.72 217.918C105.733 217.918 105.75 217.913 105.763 217.905C105.776 217.9 105.785 217.887 105.798 217.883C105.811 217.874 105.82 217.866 105.828 217.857C105.837 217.848 105.846 217.835 105.85 217.822C105.859 217.809 105.867 217.801 105.871 217.788C105.876 217.775 105.88 217.757 105.88 217.744C105.88 217.731 105.889 217.723 105.889 217.71L105.932 204.538C105.932 204.538 105.932 204.538 105.932 204.533C105.932 204.533 105.932 204.533 105.932 204.529C105.932 204.52 105.928 204.512 105.923 204.503C105.923 204.486 105.919 204.468 105.91 204.451C105.91 204.442 105.902 204.438 105.897 204.429C105.889 204.416 105.936 204.399 105.923 204.39C105.884 204.351 105.824 204.295 105.824 204.295V204.265H105.703L95.2506 204.819C95.2506 204.819 95.2247 204.841 95.2117 204.845C95.1987 204.845 95.1857 204.858 95.1727 204.862C95.1597 204.867 95.151 204.884 95.138 204.888C95.1294 204.897 95.1164 204.906 95.1077 204.914C95.099 204.923 95.0904 204.94 95.0861 204.949C95.0774 204.962 95.0687 204.971 95.0644 204.984C95.0601 204.997 95.0601 205.014 95.0557 205.027C95.0557 205.04 95.0471 205.049 95.0471 205.062V207.938L88.84 208.245C88.8227 208.245 88.8054 208.254 88.7837 208.258C88.775 208.258 88.7664 208.258 88.7577 208.267C88.7404 208.276 88.7274 208.289 88.7144 208.297C88.7058 208.302 88.6971 208.306 88.6928 208.315C88.6841 208.328 88.6754 208.341 88.6668 208.354C88.6624 208.362 88.6538 208.371 88.6494 208.384C88.6451 208.401 88.5758 208.419 88.5758 208.432C88.5758 208.445 88.5022 208.453 88.5022 208.466V208.583H88.6018L89.0653 218.671L86.423 218.823C86.423 218.823 86.4014 218.814 86.3841 218.823C86.3711 218.823 86.3581 218.823 86.3494 218.823C86.3364 218.832 86.3278 218.836 86.3148 218.845C86.3061 218.853 86.2931 218.858 86.2844 218.866C86.2758 218.879 86.2671 218.892 86.2628 218.905C86.2584 218.918 86.2498 218.927 86.2455 218.936C86.2411 218.949 86.2888 218.966 86.2888 218.983H86.3364V219.018C86.3364 219.018 86.2888 218.996 86.2888 218.983H86.2585L86.4404 224.172L78.6567 224.636C83.3997 218.16 85.3228 209.935 83.9498 201.952L100.128 186.796L126.814 185.349L126.641 205.638L108.397 222.882C108.397 222.882 108.336 222.895 108.349 222.925L98.9801 223.466L98.8415 218.39H98.8458ZM74.1606 224.909C78.5744 220.075 81.0866 213.499 81.0693 206.768H81.0866L81.065 206.556C81.052 205.092 80.9307 203.793 80.6708 202.342L80.6795 202.277L80.6665 202.259L80.7834 189.369L101.202 170.639C101.315 171.679 101.757 172.653 102.484 173.433C103.403 174.412 104.698 174.975 106.036 174.975C107.262 174.975 108.431 174.516 109.324 173.676C110.511 172.562 111.004 170.986 110.792 169.478C110.792 169.478 110.792 169.474 110.792 169.47L110.428 144.975L112.559 144.984L112.754 174.373L83.5816 201.7L83.5036 201.748L83.4863 201.973L83.5123 201.995C84.8984 209.991 82.9232 218.247 78.0892 224.679L74.1692 224.909H74.1519H74.1606ZM53.6162 218.303L53.4343 216.103C54.7208 216.254 56.0462 216.129 57.2937 215.739L58.7881 232.671C58.7881 232.714 58.8097 232.753 58.8357 232.783C57.5146 233 56.1762 233.113 54.8291 233.121L54.3439 227.217L53.6119 218.307L53.6162 218.303ZM53.2307 215.518C51.2209 215.518 49.419 214.344 48.0243 212.858C47.1493 211.923 46.4996 210.875 46.0968 209.679C45.6246 208.319 45.499 206.877 45.7286 205.443C46.0361 203.498 46.9587 201.761 48.3968 200.418C48.6437 200.189 48.8992 199.972 49.1678 199.773C49.9691 199.18 50.8571 198.729 51.8187 198.435C53.1311 198.032 54.5432 197.941 55.9076 198.179C57.311 198.417 58.6061 198.98 59.728 199.816C59.7583 199.842 59.793 199.86 59.8276 199.886C60.1871 200.163 60.525 200.47 60.8412 200.804C60.8629 200.826 60.8845 200.843 60.9018 200.864C61.7248 201.744 62.3529 202.766 62.7687 203.897L62.7904 203.944C63.2712 205.287 63.4228 206.738 63.2235 208.15C62.9506 210.143 61.9977 211.996 60.5337 213.37C60.3084 213.582 60.0745 213.777 59.8319 213.963C59.1043 214.517 58.2986 214.89 57.428 215.189C56.0809 215.657 54.6341 215.955 53.2394 215.522L53.2307 215.518ZM53.4516 221.608L53.6206 223.648C49.2847 223.367 45.2694 221.474 42.285 218.29C40.2839 216.155 38.8675 213.534 38.1744 210.701L45.6766 210.013H45.7459C45.7979 210.156 45.8672 210.299 45.9278 210.441C45.9798 210.567 46.0275 210.693 46.0838 210.814C46.1661 210.992 46.2614 211.16 46.3566 211.329C46.4173 211.442 46.4736 211.555 46.5386 211.663C46.6512 211.845 46.7768 212.022 46.8981 212.196C46.9587 212.282 47.015 212.373 47.08 212.46C47.2749 212.72 47.4872 212.967 47.7081 213.209C47.89 213.4 48.0762 213.586 48.2668 213.759C48.3318 213.82 48.4011 213.872 48.4704 213.928C48.6004 214.041 48.7303 214.154 48.8646 214.257C48.9469 214.318 49.0335 214.374 49.1158 214.435C49.2414 214.526 49.367 214.617 49.497 214.699C49.588 214.76 49.6832 214.808 49.7785 214.864C49.9041 214.938 50.0298 215.016 50.1597 215.085C50.2593 215.137 50.3633 215.184 50.4629 215.232C50.5929 215.293 50.7185 215.358 50.8527 215.414C50.9567 215.457 51.065 215.496 51.1733 215.535C51.3076 215.587 51.4375 215.639 51.5718 215.683C51.6801 215.717 51.7927 215.748 51.9053 215.782C52.0396 215.821 52.1782 215.864 52.3168 215.895C52.4294 215.921 52.5464 215.942 52.6633 215.968C52.7759 215.99 52.8842 216.016 52.9968 216.038L53.4516 221.604V221.608ZM35.1121 202.272C35.1121 202.272 35.1077 202.272 35.1034 202.268C35.987 198.456 37.9622 195.026 40.834 192.336C43.5802 189.767 46.9674 188.048 50.6448 187.355L50.935 190.911C48.0589 191.526 45.4037 192.908 43.251 194.926C40.2709 197.72 38.482 201.475 38.1744 205.543L35.1077 202.268L35.1121 202.272ZM37.8929 205.915L37.4467 205.989L34.6009 206.214C34.6313 205.083 34.7612 203.91 34.9908 202.779L37.8929 205.915ZM43.5498 195.242C45.6333 193.289 48.1975 191.95 50.974 191.348L51.1516 193.497C51.1516 193.497 51.1516 193.497 51.1516 193.501L51.4765 197.473L51.5241 198.062C51.4635 198.079 51.4072 198.105 51.3465 198.127C51.2729 198.153 51.1949 198.179 51.1213 198.209C51.0347 198.244 50.9524 198.279 50.8657 198.313C50.7921 198.344 50.7185 198.374 50.6448 198.404C50.5625 198.443 50.4802 198.482 50.3979 198.521C50.3286 198.556 50.255 198.59 50.1857 198.625C50.1034 198.668 50.0254 198.712 49.9431 198.755C49.8738 198.794 49.8045 198.829 49.7352 198.868C49.6529 198.915 49.575 198.967 49.497 199.015C49.432 199.054 49.367 199.093 49.3021 199.136C49.2198 199.193 49.1418 199.249 49.0595 199.305C49.0032 199.348 48.9426 199.387 48.8862 199.431C48.7996 199.496 48.713 199.565 48.6264 199.634C48.5787 199.673 48.5267 199.708 48.4834 199.751C48.3535 199.86 48.2235 199.977 48.0979 200.093C47.9117 200.267 47.7341 200.449 47.5651 200.635C47.5088 200.696 47.4612 200.761 47.4049 200.826C47.2966 200.951 47.184 201.081 47.08 201.211C47.0194 201.289 46.9674 201.367 46.9111 201.445C46.8201 201.571 46.7292 201.692 46.6469 201.817C46.5905 201.904 46.5429 201.995 46.4909 202.082C46.4173 202.207 46.3393 202.329 46.27 202.458C46.218 202.554 46.1747 202.649 46.1271 202.749C46.0664 202.874 46.0015 203 45.9452 203.13C45.9018 203.229 45.8629 203.338 45.8239 203.437C45.7719 203.567 45.7199 203.693 45.6766 203.823C45.6419 203.931 45.6116 204.039 45.577 204.152C45.538 204.282 45.499 204.412 45.4644 204.542C45.434 204.655 45.4124 204.772 45.3907 204.884C45.3691 204.988 45.3431 205.092 45.3214 205.196L42.9997 205.408L38.5816 205.811C38.8285 201.757 40.5828 198.014 43.5412 195.238L43.5498 195.242ZM68.8242 202.783C68.1701 200.518 66.9789 198.417 65.3546 196.68C62.7947 193.947 59.3468 192.279 55.6304 191.968L55.1929 187.021C60.4427 187.246 65.3113 189.481 68.9238 193.336C70.5264 195.052 71.7999 197.001 72.7138 199.136L68.8242 202.779V202.783ZM72.8914 199.565C73.2856 200.544 73.6061 201.562 73.8444 202.61L69.1923 203.03L72.8958 199.565H72.8914ZM65.0384 196.979C66.6584 198.712 67.8366 200.912 68.4646 203.195L67.3168 203.394H67.2778V203.299L63.0936 203.641C63.0373 203.494 62.9766 203.333 62.916 203.191C62.864 203.074 62.8207 202.939 62.7644 202.822C62.6821 202.658 62.5911 202.489 62.5002 202.329C62.4395 202.225 62.3919 202.116 62.3269 202.017C62.2143 201.839 62.093 201.666 61.9674 201.497C61.9111 201.423 61.8634 201.341 61.8071 201.267C61.6209 201.025 61.4259 200.791 61.2137 200.566C61.0404 200.379 60.8585 200.202 60.6723 200.033C60.6203 199.985 60.564 199.942 60.5077 199.894C60.3734 199.777 60.2391 199.66 60.1005 199.552C60.0269 199.496 59.9489 199.444 59.8753 199.387C59.7497 199.296 59.624 199.206 59.4984 199.119C59.4118 199.063 59.3208 199.015 59.2342 198.959C59.1129 198.885 58.9873 198.807 58.8617 198.738C58.7664 198.686 58.6668 198.642 58.5715 198.595C58.4632 198.543 58.3592 198.482 58.2466 198.435C58.2293 198.426 58.212 198.422 58.199 198.413C58.095 198.37 57.9911 198.331 57.8871 198.287C57.7615 198.235 57.6359 198.183 57.5103 198.14C57.402 198.101 57.2937 198.071 57.1811 198.036C57.0511 197.997 56.9255 197.954 56.7956 197.923C56.6829 197.893 56.566 197.871 56.4534 197.845C56.3494 197.824 56.2498 197.793 56.1458 197.776L55.6737 192.409C59.2559 192.73 62.5738 194.346 65.0427 196.979H65.0384ZM58.1383 215.418C58.2596 215.366 58.3809 215.319 58.5022 215.262C58.6754 215.18 58.84 215.085 59.0046 214.994C59.1129 214.933 59.2212 214.881 59.3252 214.816C59.5071 214.708 59.676 214.582 59.8493 214.461C59.9316 214.405 60.0182 214.353 60.0962 214.288C60.3474 214.097 60.5856 213.894 60.8195 213.677C61.0101 213.499 61.1877 213.313 61.361 213.123C61.4216 213.053 61.4779 212.984 61.5342 212.915C61.6425 212.789 61.7508 212.659 61.8548 212.529C61.9197 212.443 61.976 212.352 62.041 212.265C62.1276 212.144 62.2143 212.022 62.2966 211.897C62.3572 211.797 62.4135 211.698 62.4698 211.598C62.5391 211.477 62.6171 211.355 62.6821 211.23C62.7384 211.126 62.786 211.013 62.8337 210.909C62.8943 210.784 62.955 210.662 63.0069 210.532C63.0546 210.42 63.0936 210.307 63.1369 210.195C63.1845 210.065 63.2365 209.939 63.2755 209.809C63.3145 209.692 63.3448 209.575 63.3751 209.458C63.4141 209.328 63.4488 209.198 63.4834 209.064C63.5094 208.947 63.5311 208.826 63.557 208.705C63.5787 208.596 63.6047 208.492 63.622 208.384L67.477 208.033C67.1652 211.243 65.7185 214.21 63.3708 216.41C61.8591 217.822 60.0269 218.866 58.0604 219.438L58.0517 219.343L57.7225 215.609C57.8654 215.557 58.0041 215.488 58.1427 215.427L58.1383 215.418ZM58.3549 219.784C60.3214 219.182 62.1493 218.126 63.6653 216.713C66.1083 214.422 67.6113 211.329 67.9145 207.981L74.3252 207.392C74.2212 212.78 72.0121 217.757 68.0878 221.435C66.6107 222.821 64.9345 223.964 63.1109 224.844L63.0762 224.861C63.0762 224.861 63.0676 224.861 63.0632 224.865L58.3506 219.784H58.3549ZM62.6474 225.052C62.1493 225.273 61.6339 225.485 61.0968 225.671L58.6235 225.814L58.1253 220.17L62.6518 225.052H62.6474ZM67.698 207.721L64.8392 207.903L63.6783 207.968C63.8256 206.651 63.6827 205.287 63.2668 204.026L80.2463 202.463L80.6145 206.452L67.698 207.717V207.721ZM77.002 192.838L80.346 189.772L80.2463 200.436C79.5663 197.746 78.4791 195.199 76.9977 192.843L77.002 192.838ZM80.3546 189.178L76.7638 192.47C75.9105 191.158 74.9316 189.901 73.84 188.736C69.7381 184.357 64.2501 181.468 58.3506 180.567L80.6275 159.702L80.3546 189.182V189.178ZM73.5238 189.031C74.6587 190.244 75.6723 191.547 76.5429 192.916L76.5602 192.938C78.3318 195.719 79.5403 198.777 80.1684 202.038L74.2775 202.575C74.0133 201.384 73.6451 200.219 73.1816 199.119C73.1816 199.119 73.1816 199.115 73.1816 199.11C73.1816 199.11 73.1816 199.11 73.1816 199.106C72.246 196.871 70.9206 194.831 69.2486 193.042C65.5495 189.091 60.551 186.809 55.1626 186.592L54.6601 180.922C54.6515 180.81 54.5562 180.723 54.4436 180.723C54.4392 180.723 54.4306 180.723 54.4262 180.723C54.3093 180.732 54.2183 180.801 54.2313 180.918L54.7294 186.493L55.6131 196.507L55.717 197.685C55.2839 197.625 54.8507 197.594 54.4132 197.594C53.5816 197.594 52.7586 197.715 51.9616 197.936L50.5885 181.199L50.5669 180.944C52.9882 180.597 55.4398 180.589 57.8611 180.918C63.8299 181.728 69.3959 184.608 73.5368 189.026L73.5238 189.031ZM50.6102 186.921C46.8331 187.623 43.3549 189.386 40.5394 192.024C37.542 194.831 35.4976 198.426 34.6226 202.428L34.6053 202.506C34.6053 202.506 34.6053 202.528 34.6009 202.536L34.5836 202.61C34.3324 203.806 34.1938 205.018 34.1635 206.218L28.2726 206.755C28.264 199.556 31.2527 192.626 36.4981 187.71C39.2227 185.158 42.3847 183.257 45.8975 182.066C47.2793 181.598 48.7043 181.243 50.1294 181.013L50.6102 186.917V186.921ZM38.3477 206.422C38.3477 206.422 38.3477 206.348 38.352 206.348L41.6873 206.006L45.2608 205.664C45.0875 206.989 45.2045 208.332 45.5986 209.597L28.6365 211.143C28.4156 209.848 28.2899 208.592 28.2683 207.266L38.339 206.422H38.3477ZM37.7326 210.74C38.4387 213.668 39.8984 216.38 41.9645 218.585C45.0355 221.864 49.1808 223.808 53.6509 224.081L53.8718 226.754C53.5729 226.741 53.2741 226.724 52.9795 226.702C52.0915 226.633 51.2209 226.503 50.3849 226.316L50.294 226.191L50.1987 226.273C46.283 225.398 42.7528 223.375 39.9937 220.43C37.5074 217.775 35.7964 214.513 35.0341 210.983L37.7326 210.736V210.74ZM58.6148 226.589L58.6235 226.247L73.0864 225.407C72.8741 225.623 72.6575 225.84 72.415 226.065C68.6466 229.595 64.0595 231.843 59.2082 232.71C59.2169 232.684 59.1866 232.658 59.1822 232.632L58.6148 226.589ZM62.5088 225.584C62.7774 225.472 63.0416 225.359 63.2928 225.234L63.3231 225.216C65.177 224.324 66.8793 223.154 68.3823 221.747C72.4063 217.978 74.663 212.871 74.754 207.349L80.6318 206.994C80.5972 213.673 78.0329 220.179 73.5498 224.935L62.5088 225.576V225.584ZM102.549 134.363C102.831 133.527 103.052 132.678 103.212 131.816L106.413 128.832L106.261 133.683C105.932 133.783 105.625 133.947 105.365 134.19C104.923 134.605 104.667 135.169 104.646 135.775C104.624 136.39 104.845 136.975 105.265 137.425C105.698 137.889 106.309 138.153 106.941 138.153C107.522 138.153 108.076 137.936 108.496 137.538C108.943 137.122 109.198 136.555 109.215 135.944C109.233 135.407 109.055 134.9 108.73 134.48L112.464 131.075L112.555 144.516L110.207 144.477C110.207 144.477 110.186 144.577 110.151 144.754L110.411 167.997C110.203 167.581 109.895 167.183 109.562 166.828C108.644 165.849 107.331 165.286 105.993 165.286C104.767 165.286 103.589 165.745 102.692 166.585C102.294 166.957 101.969 167.391 101.722 167.858L102.597 134.506C102.597 134.45 102.575 134.398 102.541 134.359L102.549 134.363ZM109.163 103.466L125.004 88.8951L124.796 97.9263L123.774 96.8304C123.73 96.7828 123.674 96.7612 123.613 96.7612C123.609 96.7612 123.6 96.7612 123.596 96.7612C123.553 96.7135 123.496 96.6918 123.44 96.6918C123.388 96.6918 123.332 96.7092 123.293 96.7482L107.383 111.653L107.517 107.256C107.517 107.17 107.474 107.096 107.401 107.061C107.951 107.044 108.475 106.832 108.878 106.455C109.718 105.667 109.817 104.389 109.168 103.466H109.163ZM125.394 87.8079C125.394 87.8079 125.394 87.7863 125.385 87.7776C125.069 87.0499 125.307 86.1966 125.952 85.7418C126.598 85.287 127.473 85.352 128.049 85.8891L128.005 88.6309L127.087 119.597C127.087 119.597 127.044 119.584 127.018 119.584H124.722L125.454 87.9639C125.454 87.8989 125.428 87.8469 125.389 87.8036L125.394 87.8079ZM108.579 106.135C108.236 106.455 107.79 106.633 107.318 106.633C106.803 106.633 106.309 106.416 105.954 106.039C105.252 105.29 105.287 104.112 106.032 103.419C106.374 103.098 106.82 102.921 107.292 102.921C107.799 102.921 108.293 103.133 108.644 103.501C108.652 103.54 108.665 103.575 108.691 103.605C108.713 103.627 108.739 103.644 108.765 103.657C109.341 104.406 109.276 105.48 108.579 106.139V106.135ZM107.357 112.251C107.357 112.251 107.388 112.238 107.401 112.225L123.483 97.1596L124.779 98.5457L124.614 105.554L123.336 104.315C123.336 104.315 123.306 104.294 123.293 104.285C123.284 104.281 123.275 104.272 123.267 104.268C123.241 104.259 123.215 104.25 123.185 104.25C123.154 104.25 123.128 104.255 123.102 104.268C123.094 104.268 123.089 104.276 123.081 104.281C123.063 104.289 123.05 104.298 123.037 104.311L107.136 119.203L107.353 112.246L107.357 112.251ZM107.336 119.618L123.189 104.77L124.592 106.13C124.592 106.13 124.601 106.135 124.605 106.139L124.519 112.827L124.02 112.225C124.02 112.177 123.852 112.155 123.795 112.155C123.743 112.155 123.657 112.173 123.613 112.212L106.894 127.805L107.128 119.666C107.197 119.688 107.279 119.675 107.336 119.618ZM124.311 119.709L112.897 130.105L112.85 122.819L123.717 112.675L124.415 113.416C124.415 113.416 124.432 113.424 124.436 113.433L124.293 119.618C124.293 119.653 124.302 119.683 124.311 119.709ZM112.421 123.222L112.468 130.499L108.449 134.159C108.029 133.787 107.487 133.579 106.924 133.579C106.846 133.579 106.772 133.592 106.699 133.601L106.859 128.411L112.421 123.218V123.222ZM106.924 134.016C107.439 134.016 107.933 134.233 108.284 134.605C108.626 134.969 108.804 135.441 108.791 135.935C108.778 136.429 108.57 136.888 108.211 137.226C107.868 137.547 107.422 137.724 106.95 137.724C106.435 137.724 105.941 137.508 105.59 137.131C105.248 136.767 105.07 136.29 105.083 135.792C105.1 135.299 105.304 134.844 105.664 134.51C106.006 134.19 106.452 134.012 106.924 134.012V134.016ZM109.029 173.359C108.215 174.122 107.154 174.542 106.036 174.542C104.819 174.542 103.636 174.031 102.8 173.139C102.146 172.441 101.748 171.571 101.64 170.639C101.648 170.618 101.653 170.596 101.657 170.57L101.692 169.262C101.865 168.365 102.311 167.547 102.991 166.91C103.805 166.147 104.867 165.727 105.984 165.727C107.201 165.727 108.384 166.238 109.215 167.131C110.883 168.911 110.796 171.705 109.029 173.359ZM101.258 169.219C101.215 169.461 101.18 169.708 101.176 169.959L86.3061 154.084C86.2628 154.037 86.2065 154.015 86.1502 154.015C86.1112 154.015 86.0765 154.028 86.0419 154.05L86.1675 146.686C90.499 146.487 94.5749 144.776 97.7673 141.787C99.7294 139.951 101.185 137.776 102.146 135.437L101.258 169.223V169.219ZM86.1372 154.539L100.916 170.319L85.5221 184.439L86.0289 154.639L86.1372 154.539ZM85.0846 184.756C85.0846 184.782 85.0889 184.803 85.0976 184.829L80.7921 188.78L81.065 159.291L85.5914 155.05L85.0846 184.756ZM112.997 144.988L135.373 145.096C135.139 146.981 135.733 148.847 137.041 150.247C137.647 150.892 138.362 151.399 139.15 151.741L113.04 151.615L112.997 144.988ZM137.357 149.948C136.084 148.588 135.525 146.755 135.828 144.919C135.828 144.914 135.828 144.91 135.828 144.906C135.828 144.897 135.833 144.893 135.833 144.884C135.833 144.884 135.833 144.884 135.833 144.88C135.833 144.88 135.833 144.88 135.833 144.875L135.248 128.988L148.108 117.396L147.519 146.747C147.341 148.085 146.7 149.328 145.717 150.251C144.864 151.052 143.802 151.572 142.655 151.758L140.688 151.75C139.406 151.533 138.254 150.909 137.357 149.952V149.948ZM135.369 144.663L112.984 144.555L112.897 130.69L124.618 120.017H126.888L127.053 120.238L134.754 128.416L135.369 144.659V144.663ZM133.84 60.1426L134.117 79.9809L128.361 85.2783L128.179 85.4429C127.806 85.1614 127.36 85.0098 126.91 85.0098C126.489 85.0098 126.065 85.1354 125.701 85.391C124.887 85.9627 124.588 87.0413 124.986 87.9552C124.995 87.9769 125.008 87.9899 125.021 88.0072L125.012 88.3017C125.012 88.3017 124.995 88.3104 124.986 88.3191L108.878 103.137C108.449 102.726 107.877 102.492 107.284 102.492C106.69 102.492 106.149 102.708 105.729 103.107C104.81 103.969 104.767 105.42 105.629 106.342C106.036 106.776 106.595 107.031 107.184 107.066C107.119 107.1 107.071 107.165 107.067 107.248L106.417 128.23L103.316 131.127C103.857 127.424 103.268 123.577 101.536 120.147C101.54 120.13 101.549 120.108 101.549 120.091L102.268 89.7181L133.831 60.1556L133.84 60.1426ZM101.835 90.121L101.631 98.8143C101.289 96.6659 100.444 94.5737 99.071 92.7112L101.835 90.121ZM91.9804 99.3557C92.6258 101.028 92.2056 102.925 90.8888 104.155C90.0745 104.917 89.009 105.342 87.8871 105.342C87.246 105.342 86.605 105.199 86.0245 104.935L91.9804 99.3557ZM85.691 105.242C86.3711 105.584 87.1248 105.771 87.8871 105.771C89.1172 105.771 90.2867 105.307 91.1834 104.467C92.6734 103.072 93.1152 100.906 92.3139 99.0352L95.3243 96.2154C97.607 99.8105 97.0352 104.471 93.9252 107.386C92.2922 108.915 90.1568 109.76 87.9131 109.76C86.0375 109.76 84.1923 109.158 82.685 108.058L85.6953 105.238L85.691 105.242ZM82.3644 108.361C83.9584 109.543 85.9206 110.202 87.9131 110.202C90.2651 110.202 92.5045 109.318 94.2198 107.711C97.5074 104.631 98.0878 99.7066 95.6405 95.9252L98.7548 93.0101C102.783 98.5284 102.099 106.135 97.1175 110.804C96.3249 111.549 95.4456 112.19 94.51 112.714C93.7866 113.121 93.0286 113.455 92.2576 113.719C91.9457 113.823 91.6295 113.914 91.3133 113.996C91.2397 114.014 91.166 114.035 91.0967 114.053C90.4384 114.208 89.7756 114.321 89.0999 114.377C89.0653 114.377 89.0263 114.382 88.9916 114.386C88.6408 114.412 88.2943 114.429 87.9391 114.429C87.6402 114.429 87.3413 114.421 87.0468 114.399C87.0381 114.399 87.0338 114.399 87.0251 114.399C86.7392 114.382 86.4577 114.351 86.1718 114.312C86.1545 114.312 86.1372 114.308 86.1198 114.304C85.2535 114.187 84.4046 113.988 83.5773 113.706C83.5296 113.689 83.482 113.671 83.4386 113.654C83.2264 113.58 83.0142 113.498 82.8062 113.411C82.7369 113.381 82.6633 113.355 82.594 113.325C82.4034 113.243 82.2128 113.156 82.0266 113.065C81.9573 113.03 81.888 113 81.8187 112.965C81.5718 112.84 81.3249 112.71 81.0866 112.567C80.4456 112.19 79.8305 111.757 79.2544 111.276L82.3688 108.361H82.3644ZM101.51 103.817L101.141 119.38C100.431 118.124 99.5692 116.933 98.5383 115.833C97.4814 114.707 96.2945 113.732 95.0124 112.909C95.8657 112.402 96.6714 111.804 97.4034 111.116C99.5648 109.089 100.942 106.529 101.505 103.813L101.51 103.817ZM85.2925 128.411C85.2925 128.411 85.2925 128.377 85.2839 128.364C85.2795 128.346 85.2665 128.333 85.2579 128.32C85.2535 128.312 85.2492 128.303 85.2405 128.294L82.0222 124.799L74.4421 116.569C76.3003 114.875 78.5397 113.641 80.9437 112.996C80.9957 113.026 81.0477 113.052 81.0996 113.078C81.2859 113.182 81.4721 113.282 81.6627 113.377C81.745 113.416 81.8273 113.455 81.9096 113.494C82.0915 113.58 82.2778 113.667 82.4641 113.745C82.5377 113.775 82.6113 113.806 82.685 113.836C82.9059 113.927 83.1311 114.009 83.3563 114.087C83.3953 114.1 83.4343 114.113 83.469 114.126C84.0364 114.317 84.6125 114.473 85.1972 114.59C85.4831 114.646 85.7733 114.694 86.0635 114.733C86.0895 114.733 86.1112 114.737 86.1372 114.741C86.4187 114.776 86.7046 114.806 86.9861 114.824C86.9991 114.824 87.0078 114.824 87.0208 114.824C87.6749 114.867 88.3289 114.863 88.9873 114.811C89.0306 114.811 89.0739 114.802 89.1172 114.798C89.4551 114.767 89.793 114.728 90.1308 114.676C90.1395 114.676 90.1438 114.676 90.1525 114.676C90.4817 114.624 90.8065 114.555 91.1357 114.477C91.2137 114.46 91.2917 114.438 91.3653 114.421C91.6468 114.351 91.9241 114.269 92.2013 114.182C92.2359 114.169 92.2706 114.165 92.3052 114.152C93.9685 114.997 95.4672 116.123 96.758 117.5C99.6731 120.61 101.206 124.66 101.077 128.91C100.951 133.154 99.175 137.092 96.0866 139.985C93.1499 142.736 89.3078 144.252 85.2752 144.252C85.2146 144.252 85.1539 144.252 85.0933 144.247C85.0933 144.239 85.0976 144.226 85.1019 144.217L85.3012 128.437C85.3012 128.437 85.2969 128.416 85.2969 128.407L85.2925 128.411ZM84.6731 144.243C80.4889 144.083 76.4866 142.264 73.6061 139.193C67.6416 132.825 67.8929 122.854 74.1216 116.859L81.5674 124.946C79.8002 126.822 79.7828 129.819 81.5674 131.729C82.4207 132.643 83.5643 133.185 84.7987 133.284L84.6601 144.217C84.6601 144.217 84.6601 144.234 84.6645 144.243H84.6731ZM81.888 131.43C80.2593 129.694 80.268 126.973 81.862 125.262L84.8637 128.524L84.8074 132.851C83.6899 132.752 82.659 132.258 81.8836 131.43H81.888ZM68.7375 121.126L78.9295 111.579C79.4103 111.982 79.9171 112.355 80.4456 112.688C78.0459 113.398 75.8195 114.668 73.9786 116.392C67.4207 122.534 67.1132 132.895 73.2856 139.491C76.3826 142.801 80.7531 144.694 85.2709 144.694C89.4161 144.694 93.3578 143.134 96.3768 140.31C99.5518 137.334 101.375 133.293 101.505 128.931C101.635 124.569 100.059 120.407 97.0699 117.215C95.8397 115.902 94.419 114.811 92.851 113.966C93.4487 113.741 94.0378 113.472 94.6009 113.16C95.922 113.983 97.1392 114.984 98.2221 116.136C104.997 123.37 104.659 134.74 97.4684 141.475C93.9858 144.737 89.4334 146.443 84.6471 146.27C79.8608 146.101 75.421 144.074 72.1378 140.57C67.2215 135.32 65.8874 127.697 68.7375 121.13V121.126ZM67.9882 121.823C65.5452 128.342 67.0006 135.714 71.8215 140.86C75.1828 144.451 79.7309 146.521 84.6341 146.695C85.0023 146.708 85.3662 146.708 85.7343 146.695L85.6001 154.439L81.0693 158.684L81.1819 146.43C81.1819 146.309 81.0866 146.205 80.9654 146.205C80.8484 146.205 80.7488 146.305 80.7488 146.426L80.6318 159.091L57.8048 180.472C56.6396 180.316 55.4008 180.238 54.227 180.238C52.9665 180.238 51.6844 180.333 50.3849 180.511L50.281 180.532C50.2723 180.532 50.2983 180.532 50.294 180.532C50.2723 180.532 50.19 180.541 50.1684 180.554L49.9561 180.576C49.0898 180.762 47.7297 181.026 46.6035 181.364L75.9928 153.872H76.0101C76.0967 153.79 76.1097 153.655 76.0274 153.564L56.4317 132.643L67.9882 121.823ZM48.6134 139.972L49.1245 160.586C49.0812 160.525 49.0422 160.465 48.9902 160.408C48.5614 159.953 47.9593 159.689 47.3356 159.689C46.7638 159.689 46.218 159.906 45.7979 160.296C45.6896 160.4 45.5943 160.512 45.5077 160.629L45.2564 154.578C45.2564 154.578 45.1871 154.578 45.1871 154.574C45.1871 154.574 45.2521 154.543 45.2478 154.53C45.2478 154.517 45.2781 154.504 45.2738 154.491C45.2651 154.478 45.2738 154.465 45.2651 154.452C45.2564 154.444 45.2651 154.431 45.2521 154.426C45.2391 154.413 45.2305 154.409 45.2131 154.4C45.2045 154.396 45.2001 154.426 45.1915 154.422C45.1655 154.413 45.1395 154.444 45.1135 154.444H45.0962L40.5698 154.738L40.4485 147.639L48.6134 139.972ZM45.5423 161.738C45.5856 161.322 45.7676 160.919 46.0924 160.612C46.4303 160.296 46.8721 160.122 47.3312 160.122C47.8424 160.122 48.3188 160.33 48.6697 160.703C48.9729 161.023 49.1245 161.43 49.1505 161.838V162.059C49.1331 162.509 48.9425 162.951 48.5917 163.28C48.2538 163.596 47.8164 163.769 47.3529 163.769C46.8418 163.769 46.3653 163.562 46.0145 163.189C45.7156 162.869 45.5596 162.47 45.5337 162.067C45.5423 162.041 45.5466 162.015 45.5466 161.989L45.538 161.738H45.5423ZM40.0197 148.02L40.1323 154.734L32.2316 155.314L40.0153 148.024L40.0197 148.02ZM31.7335 155.782L40.1453 155.167L40.2449 161.097L25.5134 161.612L31.7335 155.787V155.782ZM25.0327 161.985L40.4658 161.374H40.4701C40.4701 161.374 40.4961 161.443 40.5091 161.439C40.5221 161.439 40.5394 161.469 40.5524 161.465C40.5654 161.461 40.5741 161.465 40.5871 161.461C40.6001 161.452 40.6087 161.456 40.6217 161.448C40.6304 161.439 40.6347 161.43 40.6434 161.417C40.6521 161.405 40.6607 161.396 40.665 161.383C40.6694 161.37 40.6694 161.357 40.6737 161.344C40.6737 161.331 40.6824 161.314 40.6824 161.301L40.5784 155.137L44.9056 154.821L45.1135 161.738C45.0572 162.357 45.2478 162.998 45.7069 163.488C46.1357 163.943 46.7378 164.207 47.3615 164.207C47.9333 164.207 48.4791 163.99 48.8949 163.601C49.2674 163.25 49.484 162.804 49.562 162.336C49.5836 162.301 49.6009 162.262 49.6009 162.214V162.067C49.6009 162.007 49.5966 161.942 49.5923 161.881L49.0422 139.578L52.9665 135.905L53.7895 165.528L51.3639 167.798L18.6004 168.097L25.037 161.994L25.0327 161.985ZM18.1282 168.53L50.8917 168.235L43.8444 174.836L25.0846 175.01C25.0846 175.01 25.0716 175.01 25.0673 175.01C25.0456 175.01 25.024 175.014 25.0067 175.023C24.998 175.023 24.9893 175.036 24.9807 175.04C24.9677 175.049 24.9504 175.057 24.9417 175.066C24.933 175.075 24.9287 175.083 24.92 175.092C24.9114 175.105 24.9027 175.118 24.894 175.131C24.8897 175.144 24.8854 175.153 24.8854 175.166C24.8854 175.179 24.8767 175.187 24.8767 175.2L23.5296 193.86L23.2394 194.133L19.8825 190.551L20.1814 180.511C20.1814 180.498 20.177 180.485 20.1727 180.472C20.1727 180.459 20.1727 180.441 20.1641 180.428C20.1597 180.415 20.151 180.402 20.1424 180.394C20.1337 180.381 20.1294 180.372 20.1207 180.359C20.1121 180.35 20.0991 180.342 20.0861 180.337C20.0731 180.329 20.0644 180.32 20.0514 180.316C20.0384 180.312 20.0254 180.381 20.0124 180.376C19.9995 180.376 19.9865 180.437 19.9691 180.437H10.2666L8.07049 178.024L18.1282 168.534V168.53ZM43.3766 175.27L23.9888 193.432L25.2882 175.439L43.3766 175.27ZM19.0638 203.316L7.63734 191.114L7.96654 178.471L10.0153 180.658C10.0153 180.658 10.0153 180.658 10.0153 180.662L19.4363 190.72L19.0595 203.316H19.0638ZM10.6694 180.866H19.7352L19.4537 190.248L10.6651 180.866H10.6694ZM19.484 203.771L19.8608 191.171L23.0661 194.592C23.1051 194.636 23.1614 194.657 23.2178 194.657C23.2741 194.657 23.3304 194.64 23.3737 194.597L54.1534 165.766C54.1534 165.766 54.1534 165.766 54.1534 165.762C54.1663 165.749 54.1707 165.736 54.1793 165.723C54.188 165.714 54.1923 165.706 54.1967 165.693C54.201 165.68 54.201 165.667 54.2053 165.658C54.2053 165.641 54.214 165.628 54.214 165.61C54.214 165.61 54.214 165.61 54.214 165.602L53.378 135.498L56.1155 132.934L75.564 153.699L45.7069 181.667C42.1551 182.88 38.9584 184.834 36.1993 187.42C30.8542 192.422 27.8178 199.487 27.8395 206.851H27.8351L27.8481 207.02L27.8611 206.989L27.8438 207.284C27.8655 208.583 27.9954 210.065 28.2423 211.433C28.3722 212.178 28.5412 212.915 28.7361 213.66L19.4797 203.767L19.484 203.771ZM29.3858 214.34C29.1129 213.426 28.892 212.495 28.7188 211.568L34.6053 211.031C35.3806 214.66 37.1262 218.013 39.6775 220.737C42.5059 223.756 46.1227 225.823 50.138 226.715L50.2073 226.802L50.2333 226.789L50.2593 226.815L50.3243 226.758C51.4765 227.009 52.6806 227.152 53.9108 227.196L54.3959 233.121C51.3812 233.091 48.3361 232.536 45.3864 231.428L29.3858 214.344V214.34ZM46.0318 232.112C55.3662 235.287 65.5149 233.13 72.7182 226.381C73.0863 226.039 73.4112 225.71 73.7231 225.389H73.7447L73.7621 225.368L77.7427 225.134C76.8071 226.325 75.7849 227.451 74.6847 228.478C67.9275 234.806 58.8054 237.535 49.6486 235.967L46.0318 232.108V232.112ZM50.1294 236.487C59.2342 237.873 68.2611 235.088 74.9792 228.798C76.1877 227.668 77.3096 226.425 78.3188 225.104L86.4404 224.631L86.8822 236.495L84.0884 236.556L83.9411 231.189C83.9324 230.899 83.7289 230.67 83.4733 230.67L79.7958 230.748C79.6832 230.748 79.5749 230.8 79.4926 230.886C79.393 230.99 79.341 231.124 79.3454 231.28L79.4926 236.747H79.484L71.1675 237.236C71.1675 237.236 71.1458 237.249 71.1328 237.249C71.1198 237.249 71.1025 237.258 71.0895 237.262C71.0765 237.266 71.0679 237.279 71.0549 237.284C71.0419 237.292 71.0289 237.301 71.0202 237.31C71.0116 237.318 71.0029 237.331 70.9986 237.344C70.9899 237.357 70.9812 237.366 70.9769 237.379C70.9726 237.392 70.9726 237.405 70.9682 237.422C70.9682 237.435 70.9596 237.444 70.9596 237.461L70.9336 254.246L67.0179 254.536L50.1164 236.491L50.1294 236.487ZM83.8328 243.11C83.8328 243.162 83.8112 243.196 83.8068 243.201L80.1467 243.279C80.1467 243.279 80.1077 243.24 80.1077 243.179L79.7829 231.272C79.7829 231.211 79.8088 231.181 79.8088 231.176L83.4733 231.098C83.4733 231.098 83.5079 231.142 83.5123 231.194L83.8328 243.105V243.11ZM67.4121 254.935L74.9056 254.38L75.1308 260.851L72.9607 260.86L67.4121 254.935ZM79.1808 267.509L73.3679 261.293L75.3604 261.358V261.432C75.3604 261.432 75.3864 261.35 75.3994 261.35C75.4124 261.35 75.4297 261.306 75.4427 261.302C75.4557 261.298 75.4687 261.267 75.4773 261.259C75.486 261.25 75.499 261.237 75.5077 261.224C75.5163 261.215 75.525 261.198 75.5293 261.185C75.538 261.172 75.5466 261.159 75.551 261.146C75.5553 261.133 75.5553 261.12 75.5596 261.107C75.5596 261.094 75.538 261.081 75.538 261.064H75.5077L75.4384 258.149L90.7199 256.693L79.1808 267.509ZM91.2527 256.208L75.4557 257.715L75.3301 254.142C75.3301 254.129 75.3214 254.116 75.3171 254.099C75.3171 254.086 75.3127 254.073 75.3084 254.064C75.2998 254.051 75.2911 254.038 75.2824 254.025C75.2738 254.016 75.2694 254.003 75.2608 253.999C75.2478 253.986 75.2348 253.982 75.2218 253.973C75.2131 253.969 75.2045 254.029 75.1958 254.025C75.1698 254.016 75.1438 254.077 75.1135 254.077H75.0962L71.3797 254.285L71.4057 237.704L79.51 237.223L79.7352 243.214C79.7439 243.504 79.8392 243.729 80.2723 243.729L83.8804 243.647C83.9931 243.647 84.071 243.595 84.1533 243.508C84.2486 243.404 84.2876 243.257 84.2833 243.105L84.11 236.998L86.9038 236.985L87.1594 242.819H87.2027C87.2027 242.789 87.2027 242.759 87.2027 242.724C87.2027 242.754 87.2027 242.785 87.2027 242.815C87.2027 242.837 87.2114 242.858 87.2287 242.876C87.2677 242.915 91.5385 242.694 91.5385 242.694L91.6122 244.392C91.6252 244.682 91.9457 244.899 92.3659 244.886L103.805 244.452L91.2483 256.221L91.2527 256.208ZM104.29 243.993L92.3529 244.452C92.1753 244.452 92.0583 244.396 92.0453 244.387L91.9717 242.72L106.313 242.1L104.29 243.993ZM106.798 241.646L91.95 242.287L91.8504 240.047C91.8634 240.017 91.9717 239.948 92.1536 239.943L109.328 239.281L106.798 241.65V241.646ZM109.809 238.826L92.1363 239.506C91.8937 239.514 91.6685 239.601 91.5385 239.74C91.4563 239.831 91.4129 239.935 91.4173 240.043L91.5169 242.304L87.5406 242.477L87.3327 236.916L90.1005 236.799C90.1005 236.799 90.2434 236.79 90.2521 236.777C90.2608 236.768 89.7323 224.432 89.7323 224.432L95.3979 224.103L95.7055 235.131C95.7185 235.482 95.8354 235.854 96.1299 235.854L98.9064 235.798C99.149 235.789 99.3006 235.499 99.2876 235.053L98.9844 223.899L108.709 223.332L116.951 232.116C116.951 232.116 116.951 232.116 116.956 232.116L109.792 238.826H109.809ZM117.285 231.826C117.285 231.826 117.285 231.826 117.285 231.822L109.289 223.302L127.525 222.24L117.285 231.83V231.826ZM134.243 215.942L134.161 198.387L153.964 197.473L134.243 215.947V215.942ZM155.909 195.645L154.449 197.009L133.931 197.958C133.931 197.958 133.905 197.967 133.892 197.967C133.879 197.967 133.862 197.971 133.849 197.975C133.836 197.98 133.827 197.993 133.814 197.997C133.801 198.006 133.792 198.01 133.779 198.023C133.771 198.032 133.762 198.045 133.758 198.058C133.749 198.071 133.74 198.079 133.736 198.092C133.732 198.105 133.732 198.118 133.727 198.136C133.727 198.149 133.719 198.162 133.719 198.175L133.801 216.341L128.005 221.768L108.886 222.882L108.843 222.834L126.879 206.028C126.923 205.984 127.04 205.932 127.04 205.876L127.33 185.267L143.785 184.34L144.071 190.092C144.036 190.131 144.002 190.187 144.006 190.244C144.01 190.352 144.097 190.439 144.201 190.447C144.231 190.46 144.257 190.465 144.288 190.465C144.314 190.465 144.335 190.456 144.357 190.447L155.918 189.845L155.892 195.649L155.909 195.645ZM158.005 193.683L156.342 195.242L156.364 189.823L158.109 189.733L158.001 193.683H158.005ZM158.127 189.295L156.372 189.386L156.42 178.401L158.426 178.315L158.131 189.291L158.127 189.295ZM158.452 193.263L158.547 189.707L162.467 189.503L158.452 193.263ZM171.355 181.178L165.642 186.527L166.422 177.314L171.611 176.998L171.351 181.178H171.355ZM171.814 180.749L172.061 176.781C172.061 176.781 172.061 176.773 172.061 176.768C172.061 176.764 172.061 176.76 172.061 176.755C172.061 176.742 172.057 176.734 172.053 176.725C172.053 176.712 172.048 176.699 172.044 176.686C172.04 176.673 172.031 176.66 172.022 176.647C172.014 176.638 172.009 176.625 172.001 176.617C171.992 176.608 171.979 176.599 171.966 176.591C171.957 176.582 171.949 176.578 171.936 176.569C171.923 176.56 171.905 176.552 171.888 176.547C171.879 176.547 171.871 176.53 171.858 176.53H171.832L166.209 176.881C166.209 176.881 166.192 176.89 166.183 176.894C166.166 176.894 166.149 176.903 166.136 176.907C166.123 176.911 166.114 176.92 166.105 176.929C166.092 176.937 166.079 176.946 166.071 176.955C166.062 176.963 166.058 176.972 166.049 176.985C166.04 176.998 166.032 177.007 166.027 177.024C166.023 177.037 166.019 177.05 166.019 177.063C166.019 177.072 166.01 177.08 166.01 177.089L165.174 186.969L162.961 189.039L158.56 189.269L158.694 184.227L161.107 184.149C161.107 184.149 161.141 184.141 161.159 184.136C161.167 184.136 161.176 184.136 161.18 184.132C161.202 184.123 161.219 184.11 161.237 184.097C161.237 184.097 161.245 184.093 161.25 184.089C161.263 184.076 161.271 184.058 161.28 184.045C161.284 184.037 161.293 184.028 161.297 184.019C161.302 184.006 161.306 183.989 161.306 183.976C161.306 183.963 161.315 183.954 161.315 183.941L161.531 171.471L183.518 169.786L171.814 180.749ZM161.098 171.506L160.886 183.729L158.707 183.798L159.032 171.666L161.098 171.506ZM159.045 171.228L159.335 160.4L161.289 160.408L161.107 171.072L159.045 171.228ZM184.025 169.309L166.547 170.652L166.53 168.062L186.732 166.776L184.025 169.309ZM180.564 153.183L190.228 163.458L187.208 166.243C187.187 166.234 166.3 167.551 166.3 167.551C166.287 167.551 166.279 167.603 166.266 167.603C166.253 167.603 166.235 167.629 166.222 167.638C166.209 167.642 166.201 167.664 166.188 167.672C166.175 167.681 166.166 167.694 166.153 167.702C166.144 167.711 166.14 167.728 166.131 167.737C166.123 167.75 166.114 167.763 166.11 167.776C166.105 167.789 166.105 167.806 166.101 167.819C166.101 167.832 166.092 167.841 166.092 167.854L166.114 170.683L161.527 171.033L161.705 160.192C161.705 160.192 161.709 160.161 161.705 160.148C161.705 160.135 161.705 160.118 161.705 160.105C161.7 160.092 161.692 160.083 161.687 160.07C161.679 160.057 161.674 160.044 161.666 160.036C161.657 160.027 161.644 160.023 161.635 160.014C161.622 160.005 161.614 159.997 161.601 159.988C161.588 159.984 161.575 160.031 161.562 160.031C161.549 160.031 161.536 160.07 161.518 160.07H159.11V160.014C159.11 160.014 159.062 159.992 159.036 160.001C159.028 160.001 159.028 160.001 159.019 160.001C159.002 160.01 158.989 160.01 158.976 160.023C158.967 160.031 158.967 160.036 158.958 160.044C158.95 160.057 158.937 160.07 158.928 160.088C158.928 160.096 158.928 160.109 158.919 160.118C158.919 160.135 158.911 160.148 158.906 160.166L158.608 171.25L153.787 171.618C153.665 171.627 153.579 171.731 153.587 171.852C153.596 171.973 153.704 172.06 153.821 172.051L158.599 171.683L158.434 177.869L156.195 177.964C156.195 177.964 156.169 177.968 156.16 177.973C156.147 177.973 156.13 177.977 156.117 177.981C156.104 177.985 156.095 177.994 156.082 178.003C156.069 178.011 156.061 178.016 156.048 178.029C156.039 178.037 156.035 178.05 156.026 178.063C156.017 178.076 156.009 178.085 156.004 178.098C156 178.111 156 178.124 155.996 178.137C155.996 178.15 155.987 178.163 155.987 178.176L155.939 189.39L144.496 189.988L143.772 176.591L153.037 176.279C153.219 176.275 153.388 176.197 153.509 176.067C153.622 175.941 153.683 175.785 153.674 175.616L153.431 169.348C153.418 169.006 153.128 168.733 152.773 168.733L135.755 169.301C135.633 169.301 135.521 169.34 135.421 169.4L135.066 162.674C135.053 162.461 134.884 162.297 134.68 162.297L132.151 162.414C131.938 162.427 131.778 162.609 131.787 162.83L132.146 169.634C132.159 169.847 132.328 170.007 132.549 170.007L135.057 169.89C135.057 169.89 135.096 169.881 135.118 169.877C135.118 169.903 135.113 169.929 135.113 169.959L135.36 176.275C135.373 176.621 135.664 176.942 136.045 176.942L143.339 176.647L143.733 183.911L127.265 184.825L127.533 170.392V170.384C127.533 170.384 127.533 170.379 127.533 170.375C127.533 170.362 127.529 170.349 127.525 170.336C127.525 170.323 127.525 170.31 127.516 170.297C127.512 170.284 127.499 170.271 127.49 170.258C127.481 170.249 127.477 170.236 127.468 170.228C127.455 170.215 127.442 170.21 127.429 170.202C127.421 170.197 127.412 170.189 127.399 170.184C127.382 170.176 113.17 170.665 113.17 170.665L113.044 151.983L138.826 152.126L147.116 160.984C147.116 160.984 147.116 160.993 147.12 160.997C147.203 161.084 147.337 161.093 147.428 161.01L153.7 155.137C153.7 155.137 153.722 155.119 153.735 155.106L156.264 152.737L180.573 153.157L180.564 153.183ZM152.608 169.188V168.972L152.678 169.188H152.652C153.029 169.197 152.916 169.279 152.916 169.383L153.197 175.655C153.197 175.72 153.189 175.763 153.167 175.789C153.124 175.833 153.076 175.859 153.011 175.863L136.014 176.43C135.889 176.43 135.794 176.344 135.789 176.231L135.547 169.964C135.547 169.899 135.573 169.851 135.599 169.825C135.642 169.782 135.698 169.756 135.768 169.751L152.652 169.184C152.652 169.184 152.626 169.184 152.613 169.184L152.608 169.188ZM134.988 169.491L132.575 169.604L132.22 162.873L134.633 162.76L134.988 169.491ZM153.787 154.483L154.068 119.025L156.316 119.112L155.961 152.447L153.791 154.483H153.787ZM163.169 145.698L156.398 152.04L156.754 118.908C156.754 118.908 156.749 118.882 156.745 118.869C156.745 118.856 156.745 118.843 156.736 118.83C156.732 118.817 156.723 118.809 156.715 118.796C156.706 118.783 156.702 118.77 156.693 118.761C156.684 118.752 156.671 118.744 156.658 118.735C156.645 118.726 156.637 118.718 156.624 118.713C156.611 118.709 156.593 118.705 156.58 118.705C156.567 118.705 156.554 118.648 156.541 118.648L153.908 118.549L153.6 118.592C153.6 118.934 153.31 154.903 153.31 154.903L147.268 160.582L139.41 152.183H140.653C141.334 152.304 142.027 152.308 142.711 152.196C143.95 151.996 145.093 151.438 146.016 150.576C147.077 149.579 147.766 148.241 147.956 146.794C148.017 146.331 148.026 145.867 147.987 145.413L148.554 117.002L152.102 113.806L163.467 114.356L163.173 145.707L163.169 145.698ZM183.782 136.373C183.193 136.373 182.63 136.594 182.197 136.996C181.742 137.421 181.482 137.997 181.465 138.621C181.461 138.833 181.491 139.041 181.539 139.245L176.319 133.674C176.276 133.631 176.219 133.605 176.163 133.605C176.111 133.605 176.055 133.627 176.016 133.666L163.602 145.291L163.892 114.685L184.246 136.425C184.094 136.394 183.938 136.377 183.782 136.377V136.373ZM185.173 137.408C185.892 138.175 185.853 139.379 185.095 140.089C184.744 140.418 184.285 140.6 183.808 140.6C183.275 140.6 182.782 140.384 182.418 139.994C182.071 139.621 181.885 139.141 181.902 138.634C181.915 138.127 182.128 137.659 182.496 137.313C182.847 136.983 183.306 136.806 183.787 136.806C184.311 136.806 184.817 137.027 185.177 137.408H185.173ZM186.888 145.582L163.931 145.573L176.154 134.125L185.541 144.148L186.884 145.582H186.888ZM192.35 137.477L185.71 143.697L183.12 140.929C183.34 140.999 183.57 141.033 183.808 141.033C184.397 141.033 184.96 140.813 185.394 140.405C186.329 139.53 186.372 138.053 185.493 137.113L163.844 113.992C163.836 113.983 163.823 113.975 163.81 113.97C163.797 113.962 163.788 113.953 163.775 113.949C163.775 113.949 163.775 113.949 163.771 113.949C163.762 113.944 163.749 113.949 163.736 113.94C163.736 113.94 163.736 113.94 163.732 113.94C163.719 113.94 163.706 113.897 163.693 113.897L152.175 113.307V113.333C152.175 113.333 152.097 113.351 152.093 113.351C152.067 113.351 152.002 113.364 151.98 113.372C151.967 113.377 151.941 113.39 151.928 113.394C151.915 113.403 151.894 113.407 151.885 113.416L135.282 128.433V128.459H135.256L135.282 128.433V128.333L135.118 118.427C135.118 118.427 135.135 118.414 135.148 118.401L152.318 102.314L159.197 109.665C159.236 109.708 159.292 109.73 159.344 109.734C159.396 109.738 159.457 109.717 159.5 109.678L163.125 106.282L170.97 114.655C170.97 114.655 170.97 114.655 170.97 114.659C170.97 114.659 170.97 114.659 170.974 114.659L173.326 117.171L192.346 137.477H192.35ZM165.59 103.666L158.707 96.315L171.173 84.6373L177.995 91.9185L177.103 108.608L171.139 114.195L163.442 105.974L165.586 103.969C165.672 103.886 165.677 103.748 165.594 103.661L165.59 103.666ZM165.126 103.8L159.357 109.206L152.621 102.015L158.391 96.6139L165.126 103.804V103.8ZM181.972 83.4634L180.889 109.79L173.495 116.716L171.433 114.512L177.45 108.881C177.476 108.859 177.497 108.833 177.51 108.798C177.515 108.785 177.519 108.772 177.519 108.759C177.519 108.746 177.61 108.733 177.614 108.72L178.597 91.8536C178.597 91.8536 178.511 91.8146 178.506 91.7929C178.506 91.7842 178.463 91.7756 178.459 91.7669C178.459 91.7626 178.433 91.7583 178.428 91.7539C178.42 91.7323 178.398 91.715 178.381 91.6976H178.377L171.489 84.3471L177.51 78.7031L181.972 83.4678V83.4634ZM184.727 76.5634L183.405 77.8022L177.142 71.1143L176.904 68.2165L184.727 76.5634ZM183.67 60.8357L176.492 67.4542C176.492 67.4542 176.488 67.4629 176.484 67.4629C176.475 67.4759 176.466 67.4845 176.458 67.4975C176.453 67.5062 176.445 67.5105 176.44 67.5192C176.44 67.5192 176.44 67.5278 176.44 67.5322C176.436 67.5452 176.436 67.5582 176.432 67.5712C176.432 67.5798 176.423 67.5928 176.423 67.6015C176.423 67.6058 176.423 67.6101 176.423 67.6145C176.423 67.6145 176.423 67.6231 176.423 67.6275L176.666 70.6032L167.119 60.4069L183.67 60.8357ZM166.517 60.3982L176.726 71.2962L177.259 77.7892L160.882 60.3029L166.521 60.3938L166.517 60.3982ZM160.275 60.2986L177.216 78.3869L171.035 84.1738L158.257 96.1418L135.083 117.847L134.555 80.1628L156.221 60.2249L160.28 60.2899L160.275 60.2986ZM156.052 59.7961L134.589 59.4452L150.3 44.7311L156.074 50.8992C156.074 50.8992 156.091 50.9122 156.1 50.9165C156.113 50.9252 156.121 50.9382 156.134 50.9425C156.147 50.9512 156.165 50.9512 156.182 50.9555C156.191 50.9555 156.199 50.9642 156.212 50.9642L164.806 51.7439L156.052 59.8004V59.7961ZM165.235 51.3453L156.334 50.5397L150.616 44.4323L167.119 28.9731L177.502 40.0574L165.235 51.3453ZM186.463 31.8103L183.661 34.3919L183.882 24.0959L186.559 24.1088L186.468 31.8146L186.463 31.8103ZM186.559 23.6584L183.67 23.6324H183.665C183.635 23.6324 183.609 23.654 183.583 23.6627C183.574 23.6627 183.57 23.68 183.566 23.68C183.548 23.6887 183.531 23.7017 183.514 23.719C183.505 23.7234 183.505 23.7363 183.496 23.745C183.483 23.758 183.475 23.7753 183.466 23.7926C183.462 23.8013 183.462 23.8143 183.457 23.8273C183.457 23.8446 183.449 23.8576 183.449 23.8749L183.215 34.799L177.818 39.7629L167.435 28.6743L179.026 17.8152L186.628 17.8888L186.559 23.654V23.6584ZM189.612 24.1218L189.504 29.0121L186.901 31.4074L186.988 24.1088L189.612 24.1218ZM192.285 17.5163H186.827L179.472 17.4167L184.692 12.5178L192.523 12.8686L192.285 17.5163ZM192.545 12.4355L185.138 12.0933L187.412 9.96216L192.662 10.0445L192.545 12.4355ZM192.683 9.61131L187.867 9.53769L192.913 4.80767L192.679 9.61131H192.683Z" fill="#CEC8DD" fill-opacity="0.51"/>
<path d="M152.174 113.292C152.174 113.292 152.026 113.292 152.03 113.292L152.174 113.301V113.292Z" fill="#CEC8DD" fill-opacity="0.51"/>
<path d="M135.282 128.431L135.256 128.457H135.282V128.431Z" fill="#CEC8DD" fill-opacity="0.51"/>
<path d="M160.309 205.721L153.366 212.21L153.353 212.219L98.4122 263.543C98.4122 263.543 98.4122 263.543 98.4079 263.547L98.0137 263.915L87.9863 273.284L31.5771 325.973H32.2139L88.0643 273.804L90.0568 275.939L38.2043 325.973H38.8281L90.347 276.256L91.5468 277.542C91.5468 277.542 91.5468 277.551 91.5511 277.551C91.5511 277.551 91.5555 277.551 91.5598 277.555L93.0108 279.11L44.4503 325.973H45.0741L93.3097 279.422L94.986 281.215C94.986 281.215 94.986 281.224 94.9947 281.224C94.9947 281.224 94.999 281.224 95.0033 281.228L95.9779 282.272L50.6964 325.973H51.3201L96.2725 282.593L95.9909 288.289L56.9424 325.973H57.5661L95.9649 288.921L95.6834 294.617L63.1884 325.973H63.8122L95.6531 295.245L95.3715 300.941L69.4301 325.973H70.0539L95.3412 301.573L95.0596 307.269L75.6762 325.973H76.2999L95.0293 307.902L94.7478 313.598L81.9222 325.973H82.5459L94.7175 314.226L94.4359 319.922L88.1639 325.973H88.7876L94.4056 320.554L94.137 325.973H94.5702L95.1766 313.697C95.1766 313.697 95.1506 313.693 95.1506 313.689L95.4321 307.369L95.77 301.058C95.77 301.049 95.7873 301.041 95.7873 301.028L96.1035 294.738C96.1035 294.738 96.1122 294.708 96.1079 294.695L96.684 283.039L98.1913 284.65C98.1913 284.65 98.1913 284.659 98.1957 284.659C98.1957 284.659 98.2 284.659 98.2043 284.663L101.31 287.985C101.31 287.985 101.31 287.994 101.314 287.994C101.314 287.994 101.319 287.994 101.323 287.998L104.398 291.29C104.398 291.29 104.398 291.295 104.403 291.299C104.403 291.299 104.407 291.299 104.411 291.303L107.513 294.626C107.513 294.626 107.513 294.634 107.521 294.634C107.521 294.634 107.526 294.634 107.53 294.639L110.605 297.931C110.605 297.931 110.605 297.935 110.61 297.939C110.61 297.939 110.614 297.939 110.618 297.944L113.694 301.235C113.694 301.235 113.694 301.244 113.702 301.244C113.702 301.244 113.707 301.244 113.711 301.248L116.843 304.601C116.843 304.601 116.843 304.61 116.851 304.61C116.851 304.61 116.856 304.61 116.86 304.614L120.564 308.582L102.432 325.973H103.056L120.953 308.807L140.956 306.585L120.204 325.973H120.836L141.727 306.455C141.727 306.455 141.732 306.446 141.736 306.442C141.745 306.429 141.753 306.42 141.762 306.403C141.771 306.39 141.775 306.381 141.779 306.368C141.784 306.355 141.788 306.342 141.788 306.329C141.788 306.316 141.792 306.299 141.788 306.286C141.788 306.282 141.788 306.277 141.788 306.269C141.788 306.26 141.784 306.251 141.779 306.247C141.779 306.234 141.771 306.221 141.766 306.204C141.762 306.191 141.753 306.178 141.745 306.165C141.74 306.156 141.736 306.152 141.732 306.143C141.732 306.143 141.723 306.139 141.719 306.134C141.706 306.126 141.697 306.117 141.684 306.108C141.671 306.1 141.662 306.095 141.649 306.091C141.636 306.087 141.623 306.082 141.61 306.082C141.597 306.082 141.58 306.078 141.567 306.082C141.563 306.082 141.558 306.082 141.55 306.082L134.983 306.81L103.48 273.089L113.369 272.691L122.244 282.194L155.514 317.795C155.397 317.834 155.281 317.881 155.164 317.92C155.016 317.972 154.869 318.024 154.722 318.081C154.548 318.146 154.38 318.219 154.206 318.289C154.063 318.349 153.92 318.406 153.782 318.466C153.613 318.54 153.444 318.622 153.279 318.704C153.141 318.769 153.006 318.834 152.868 318.904C152.699 318.99 152.534 319.081 152.37 319.172C152.24 319.246 152.11 319.315 151.98 319.389C151.811 319.488 151.651 319.592 151.486 319.696C151.365 319.774 151.244 319.848 151.122 319.926C150.953 320.038 150.784 320.16 150.62 320.281C150.512 320.359 150.403 320.433 150.295 320.511C150.109 320.649 149.927 320.797 149.745 320.944C149.663 321.009 149.576 321.074 149.494 321.143C149.234 321.364 148.974 321.589 148.723 321.823C147.835 322.655 147.038 323.556 146.34 324.526C146.007 324.989 145.695 325.475 145.409 325.968H145.946C146.83 324.561 147.739 323.278 148.961 322.135C149.212 321.901 149.498 321.71 149.758 321.494C151.586 319.965 153.695 318.605 155.974 318.172C156.229 318.172 156.48 317.985 156.745 317.92C157.749 317.661 158.78 317.47 159.803 317.388C160.487 317.331 161.171 317.31 161.847 317.331C162.523 317.353 163.194 317.409 163.857 317.505C164.19 317.552 164.52 317.609 164.844 317.673C168.444 318.406 171.749 320.233 174.326 322.993C174.335 323.001 174.339 323.006 174.348 323.014C174.525 323.205 174.699 323.404 174.868 323.608L174.846 325.964H175.279C175.279 325.964 175.535 324.872 175.621 324.79L175.725 324.691C176.028 325.102 176.306 325.527 176.57 325.96H177.077C177.055 325.921 177.033 325.882 177.007 325.843C176.942 325.73 176.877 325.622 176.808 325.509C176.747 325.414 176.687 325.319 176.626 325.228C176.557 325.119 176.483 325.007 176.41 324.898C176.349 324.807 176.28 324.717 176.219 324.626C176.163 324.548 176.106 324.465 176.05 324.383H176.054L176.163 324.279L177.718 325.955H178.311L176.483 323.984L194.888 306.806L196.386 308.408C196.469 308.495 196.603 308.499 196.694 308.417L196.794 308.326V307.733L196.56 307.954L195.07 306.36C195.07 306.36 195.07 306.355 195.065 306.351C195.065 306.351 195.061 306.351 195.057 306.347L184.284 294.712C184.159 294.829 184.033 294.95 183.912 295.067L194.593 306.49L176.184 323.681L175.309 322.737L175.452 306.407L175.483 302.717V302.591C176.124 302.288 176.726 301.885 177.263 301.387C177.458 301.205 180.836 297.987 183.903 295.063L183.855 295.011C183.773 294.924 183.894 294.725 183.985 294.647C184.072 294.565 184.154 294.574 184.237 294.66L184.28 294.708C186.745 292.36 188.906 290.298 188.906 290.298L193.069 294.751L194.533 293.387L195.997 292.022L189.586 285.161L189.43 285.309C189.343 285.391 189.24 285.179 189.162 285.092C189.097 285.023 189.036 284.958 189.235 284.784L186.337 281.683L190.205 278.092C191.08 277.59 192.029 277.754 192.895 278.499C193.762 279.283 193.653 280.496 192.995 281.319L192.514 281.757L189.417 284.641C189.339 284.693 189.283 284.737 189.235 284.776L189.586 285.153L192.796 282.073L193.281 281.618C193.281 281.618 193.285 281.609 193.289 281.605C193.289 281.605 193.298 281.601 193.302 281.596C194.104 280.604 194.043 279.145 193.164 278.201C192.324 277.3 191.002 277.105 189.95 277.72C189.941 277.72 189.937 277.733 189.933 277.737C189.924 277.741 189.92 277.746 189.911 277.75L186.043 281.363L178.896 273.713L175.972 276.446L188.616 289.978C188.616 289.978 177.181 300.872 176.977 301.067C176.527 301.487 176.028 301.833 175.496 302.102L175.825 263.79L196.794 263.759V263.322L184.899 263.421L153.834 263.59L106.027 263.56L99.1183 263.521C99.1183 263.521 106.72 256.313 113.837 249.626C113.763 249.621 113.715 249.613 113.707 249.604C113.672 249.565 113.746 249.496 113.741 249.439C113.741 249.318 113.91 249.244 114.032 249.24H114.248C120.265 243.579 125.822 238.398 125.982 238.411L132.965 238.034L133.129 242.492C133.129 242.513 133.121 242.531 133.125 242.548C133.125 242.552 133.203 242.751 133.229 242.764C133.238 242.764 133.246 242.773 133.255 242.777C133.276 242.782 133.294 242.795 133.32 242.795L143.174 242.249C143.174 242.249 143.196 242.219 143.209 242.214C143.226 242.214 143.239 242.197 143.252 242.193C143.265 242.188 143.274 242.171 143.287 242.162C143.3 242.154 143.308 242.145 143.321 242.136C143.33 242.123 143.339 242.11 143.347 242.097C143.356 242.089 143.36 242.076 143.365 242.063C143.369 242.05 143.373 242.032 143.373 242.015C143.373 242.002 143.382 241.993 143.382 241.98L143.326 222.173L151.114 214.896L151.798 245.918L155.48 245.836L155.268 236.202L157.866 236.111L157.944 248.486L114.248 249.231C114.114 249.361 113.975 249.487 113.837 249.617C114.144 249.643 114.894 249.647 114.946 249.647L158.165 248.915C158.165 248.915 158.2 248.907 158.217 248.902C158.226 248.902 158.239 248.902 158.248 248.894C158.261 248.889 158.274 248.876 158.287 248.868C158.295 248.859 158.308 248.855 158.317 248.846C158.326 248.833 158.334 248.82 158.343 248.807C158.352 248.798 158.36 248.79 158.365 248.777C158.369 248.764 158.235 236.09 158.235 236.09L160.764 236.003C160.764 236.003 160.816 235.994 160.834 235.99C160.842 235.99 160.859 235.99 160.868 235.986C160.89 235.977 160.916 235.96 160.933 235.947C160.933 235.947 160.864 235.947 160.864 235.942C160.903 235.903 160.851 235.847 160.851 235.782L160.617 205.947L163.017 203.742L180.139 202.889L179.745 216.1L172.338 216.208L172.329 213.821L167.907 213.843L167.92 216.269L161.02 216.368C160.898 216.368 160.803 216.468 160.808 216.589C160.808 216.646 160.829 216.698 160.868 216.732C160.907 216.775 160.968 216.801 161.028 216.801L167.924 216.702L167.946 221.068L172.368 221.051L172.355 218.291L182.309 228.947C182.318 228.956 182.331 228.96 182.339 228.969C182.352 228.977 182.365 228.99 182.378 228.995C182.391 228.999 182.404 228.999 182.417 229.003C182.43 229.003 182.443 229.012 182.461 229.012C182.474 229.012 182.482 229.012 182.495 229.008C182.513 229.008 182.53 229.008 182.543 228.999C182.556 228.999 182.565 228.986 182.573 228.982C182.586 228.973 182.604 228.969 182.617 228.956L187.126 224.702L187.169 232.59L171.108 232.663L171.173 246.633L174.465 246.62L174.525 259.67L178.528 259.653L178.467 246.602L187.243 246.563L187.169 253.455L196.807 253.29V252.762L195.698 252.779L195.68 207.744L196.807 207.731V207.298L195.68 207.311V202.048L196.807 202.031V201.598C196.807 201.598 195.291 201.42 195.074 201.836L195.161 207.315L187.204 207.398C187.204 207.398 187.204 207.402 187.191 207.406C187.173 207.406 187.169 207.406 187.152 207.415C187.139 207.419 187.134 207.428 187.126 207.437C187.113 207.445 187.1 207.45 187.091 207.463C187.078 207.476 187.069 207.493 187.061 207.51C187.056 207.519 187.026 224.113 187.026 224.113L182.43 228.492L172.455 217.789C172.42 217.75 172.386 217.733 172.342 217.724V216.637L179.966 216.524C179.979 216.524 179.992 216.52 180.005 216.516C180.018 216.516 180.035 216.516 180.048 216.507C180.061 216.503 180.07 216.494 180.083 216.485C180.096 216.477 180.109 216.472 180.117 216.459C180.126 216.451 180.135 216.438 180.143 216.425C180.152 216.412 180.161 216.403 180.165 216.39C180.169 216.377 180.174 216.364 180.174 216.347C180.174 216.334 180.182 216.321 180.182 216.308L180.594 202.854L187.806 202.495C187.806 202.495 187.827 202.49 187.84 202.486C187.858 202.486 187.871 202.482 187.884 202.473C187.897 202.469 187.905 202.46 187.918 202.451C187.931 202.443 187.944 202.434 187.953 202.425C187.962 202.417 187.966 202.404 187.975 202.391C187.983 202.378 187.992 202.369 187.996 202.352C188.001 202.339 188.001 202.326 188.005 202.313C188.005 202.3 188.014 202.287 188.014 202.274L188.031 198.791C188.031 198.791 188.031 198.787 188.031 198.782C188.031 198.782 188.031 198.778 188.031 198.774C188.031 198.761 188.022 198.752 188.022 198.739C188.022 198.726 188.018 198.709 188.009 198.696C188.005 198.683 187.996 198.674 187.988 198.661C187.979 198.648 187.975 198.639 187.962 198.626C187.953 198.618 187.94 198.609 187.927 198.605C187.914 198.596 187.905 198.587 187.892 198.583C187.879 198.579 187.866 198.579 187.849 198.575C187.836 198.575 187.827 198.566 187.814 198.566C187.814 198.566 187.81 198.566 187.806 198.566C187.806 198.566 187.801 198.566 187.797 198.566L180.706 198.995L181.075 186.879L196.789 172.235V171.641L160.314 205.713C160.314 205.713 160.314 205.713 160.309 205.717V205.721ZM176.579 276.472L178.87 274.332L195.377 292.005L193.086 294.145L176.579 276.472ZM134.455 306.871L120.945 308.369L117.471 304.649L131.375 303.57L134.459 306.871H134.455ZM130.994 303.167L117.09 304.246L114.322 301.283L128.226 300.205L130.994 303.167ZM127.849 299.797L113.945 300.876L111.233 297.974L125.138 296.895L127.849 299.797ZM124.761 296.492L110.857 297.571L108.145 294.669L122.045 293.59L124.756 296.492H124.761ZM121.672 293.188L107.773 294.266L105.035 291.334L118.939 290.255L121.677 293.188H121.672ZM118.554 289.848L104.65 290.926L101.938 288.024L115.838 286.946L118.549 289.848H118.554ZM115.465 286.543L101.566 287.622L98.8237 284.689L112.728 283.611L115.465 286.543ZM112.347 283.208L98.4425 284.286L96.6536 282.367L95.6184 281.259L109.523 280.18L112.347 283.203V283.208ZM109.146 279.777L95.2416 280.856L92.1835 277.581L106.088 276.503L109.146 279.777ZM105.706 276.095L91.8023 277.174L88.5494 273.691L102.917 273.111L105.706 276.095ZM175.331 324.483C175.331 324.483 175.309 324.513 175.296 324.53V324.132C175.357 324.201 175.413 324.279 175.47 324.353L175.327 324.483H175.331ZM175.405 323.482L175.868 323.98L175.786 324.054C175.617 323.837 175.457 323.634 175.301 323.456V323.369L175.4 323.478L175.405 323.482ZM175.387 263.798L175.379 264.682L175.179 287.505C175.179 287.505 175.179 287.505 175.179 287.509L175.127 293.335C173.949 294.041 172.481 294.002 171.333 293.209C171.32 293.201 171.307 293.188 171.29 293.179L161.34 282.528L161.929 263.82L175.379 263.798H175.387ZM161.505 263.82L160.911 282.606C160.911 282.666 160.933 282.718 160.968 282.762C160.968 282.762 170.181 292.694 170.211 292.728C170.294 292.832 170.822 293.374 171.013 293.508C171.043 293.534 171.073 293.556 171.099 293.569C172.303 294.4 173.845 294.487 175.123 293.824L175.05 302.314C172.775 303.302 170.094 302.933 168.18 301.361L154.185 286.682L154.042 263.824L161.501 263.811L161.505 263.82ZM153.613 263.833L153.756 286.781C153.756 286.781 153.76 286.807 153.764 286.82C153.764 286.833 153.764 286.846 153.773 286.859C153.782 286.885 153.799 286.911 153.816 286.928L166.729 300.469C166.88 300.677 167.041 300.872 167.209 301.054C167.43 301.287 167.664 301.504 167.903 301.699C169.882 303.328 172.641 303.743 175.05 302.786L174.959 313.429L174.881 322.278L169.406 316.374C169.406 316.374 169.475 316.201 169.479 316.114L169.761 306.988C169.761 306.988 169.761 306.975 169.761 306.966C169.761 306.944 169.761 306.923 169.752 306.905C169.743 306.879 169.726 306.853 169.709 306.832L129.582 263.876L153.622 263.842L153.613 263.833ZM129.118 263.868C129.101 263.937 129.118 264.011 129.166 264.067L169.323 307.057L169.05 315.984L120.741 263.881L129.123 263.868H129.118ZM120.148 263.885L124.18 268.234L172.749 320.615L174.876 322.91V322.958C174.798 322.871 174.729 322.802 174.642 322.702C174.404 322.447 174.157 322.196 173.906 321.957C170.38 318.587 165.706 316.777 160.816 316.889C160.465 316.898 160.119 316.915 159.768 316.941C159.478 316.963 159.188 316.998 158.902 317.032C158.139 317.128 157.381 317.275 156.636 317.466C156.415 317.522 156.194 317.583 155.978 317.648L105.771 263.898L120.156 263.876L120.148 263.885ZM104.117 263.907H105.178C105.178 263.907 105.182 263.92 105.191 263.924L112.992 272.271L88.6447 273.254L98.6461 263.911L104.117 263.902V263.907ZM133.506 242.266C133.506 242.266 133.389 237.736 133.385 237.718C133.38 237.705 133.346 237.697 133.337 237.688C133.328 237.675 133.311 237.662 133.298 237.653C133.289 237.645 133.272 237.64 133.259 237.632C133.246 237.623 133.233 237.614 133.216 237.61C133.203 237.61 133.19 237.61 133.177 237.606C133.164 237.606 133.147 237.606 133.129 237.606V237.61L126.385 238.009L142.888 222.593L142.94 241.79L133.51 242.266H133.506ZM168.362 220.652L168.344 216.503C168.344 216.503 168.344 216.498 168.344 216.494C168.344 216.494 168.344 216.494 168.344 216.49L168.336 214.289L171.892 214.272L171.9 216.446L171.918 220.635L168.362 220.652ZM174.937 259.259L174.85 240.43L177.986 240.417L178.012 246.386C178.012 246.386 178.008 246.399 178.008 246.407C178.008 246.416 178.008 246.42 178.012 246.429L178.069 259.242L174.933 259.255L174.937 259.259ZM195.23 207.77L195.247 252.805L187.702 252.922L187.663 246.576L190.686 246.563L190.621 232.594L187.585 232.607L187.446 207.848L195.226 207.77H195.23ZM190.192 232.932L190.253 246.087L178.45 246.165L178.424 239.979L174.421 239.997L174.447 246.204L171.589 246.217L171.528 233.01L190.192 232.928V232.932ZM180.615 187.343L180.26 199.068L167.218 199.861L180.615 187.343ZM166.72 200.329L180.46 199.484H180.468L187.572 199.051L187.559 202.131L180.369 202.52V202.49L163.528 203.313L166.72 200.324V200.329ZM152.214 245.493L151.529 214.519L153.587 212.596L154.302 212.583L154.821 236.02L155.029 245.433L152.214 245.498V245.493ZM155.25 235.786L154.726 212.136L154.059 212.149L160.253 206.363L160.556 235.596L155.246 235.782L155.25 235.786Z" fill="#CEC8DD" fill-opacity="0.51"/>
</svg>
