<svg width="40" height="40" viewBox="0 0 40 40" fill="none" xmlns="http://www.w3.org/2000/svg">
<path id="Vector" d="M35.6167 21.7828C35.056 21.2219 34.5037 20.5166 33.8834 19.8793C35.1919 18.5876 36.4494 17.5168 37.6729 16.2761C39.899 14.0157 39.9245 10.9564 37.7069 8.69599C35.4723 6.42704 33.2037 4.19209 30.9181 1.97412C28.7515 -0.124864 25.8032 -0.107868 23.6196 1.97412C22.515 3.03637 21.3935 4.08161 20.3484 5.20334C19.8301 5.7557 19.5497 5.67073 19.0739 5.16935C17.9949 4.04762 16.8733 2.96838 15.7433 1.90614C13.6191 -0.107868 10.5859 -0.0823748 8.47872 1.94863C7.56109 2.83242 6.64346 3.7077 5.74283 4.60848C4.23044 6.12961 2.66707 7.61675 1.23965 9.21436C-0.408682 11.0499 -0.391689 13.8287 1.23965 15.6983C2.19976 16.803 3.26183 17.8143 4.29841 18.8425C4.68076 19.2164 5.13957 19.5139 5.59839 19.8708C5.24153 20.2617 5.09709 20.4316 4.92716 20.6016C3.90757 21.6213 2.88798 22.6411 1.87689 23.6608C-0.604103 26.1507 -0.58711 29.1675 1.91088 31.6489C4.03502 33.7649 6.15066 35.8809 8.27481 38.0054C10.6029 40.3338 13.6616 40.3508 15.9982 38.0224C17.2132 36.8071 18.4112 35.5664 19.6602 34.2918C19.8811 34.4787 19.9916 34.5637 20.0935 34.6657C21.3 35.8639 22.4811 37.0876 23.7046 38.2603C25.7947 40.2573 28.8365 40.2403 30.9011 38.2178C33.2037 35.9489 35.4893 33.6629 37.7579 31.36C39.7971 29.295 39.9075 26.4142 38.0128 24.2047C37.2736 23.3464 36.4324 22.5901 35.6337 21.7828H35.6167ZM22.0647 6.72447C23.1098 5.67073 24.1549 4.61698 25.2085 3.56324C26.313 2.45851 28.1992 2.43301 29.3038 3.52925C31.5639 5.7727 33.824 8.01615 36.0586 10.2851C37.384 11.6278 37.3755 13.2679 36.0756 14.619C34.8521 15.8937 33.62 17.1514 32.3286 18.4771C30.8587 16.905 29.4652 15.4943 27.2476 15.5028C25.064 15.5113 23.6876 16.9135 22.3281 18.3666C21.9373 18.0522 21.6484 17.8143 21.3 17.5253C22.8974 16.0807 24.2653 14.6445 24.2568 12.4436C24.2483 10.2766 22.9229 8.84045 21.3765 7.46379C21.6399 7.18336 21.8523 6.93692 22.0732 6.71597L22.0647 6.72447ZM30.5273 19.8793C28.4966 22.5391 26.5509 23.1425 24.0189 19.8793C26.1091 16.922 28.2247 16.803 30.5273 19.8793ZM19.7367 9.15488C22.5065 11.2454 22.8464 13.3274 19.7367 15.7493C17.1622 13.9392 16.3465 11.8232 19.7367 9.15488ZM20.8242 20.0832L19.6857 21.154L18.6151 20.0832L19.6857 19.038L20.8242 20.0832ZM3.29582 14.6105C2.00434 13.2934 1.97885 11.6533 3.27033 10.3361C5.53891 8.03315 7.82449 5.7557 10.1186 3.47826C11.0702 2.53499 12.9054 2.39902 13.959 3.3253C15.3949 4.58299 16.7034 5.96815 18.1393 7.37031C16.6014 8.84045 15.1825 10.2256 15.1825 12.4351C15.1825 14.653 16.5674 16.0552 18.0628 17.4659C17.757 17.7888 17.5021 18.0522 17.1792 18.4006C16.7459 17.9842 16.3465 17.6018 15.9472 17.2109C13.6191 14.9165 10.6029 14.925 8.2833 17.2279C7.91795 17.5933 7.60358 18.0097 7.20424 18.4856C6.7964 18.0947 6.51602 17.8228 6.23563 17.5508C5.25003 16.5736 4.25593 15.5963 3.27883 14.6021L3.29582 14.6105ZM14.5028 21.0945C12.8714 22.7006 11.3591 22.6921 9.73621 21.069C9.06215 20.3948 9.06215 19.715 9.73621 19.0295C10.6284 18.1202 11.2486 17.8143 12.2852 17.8313C13.2113 17.8313 13.8485 18.3496 14.4943 19.004C15.5394 20.0662 15.5479 20.0577 14.4943 21.0945H14.5028ZM13.7806 36.8921C12.744 37.8439 11.1381 37.606 10.0081 36.4927C8.12187 34.6402 6.26962 32.7621 4.40887 30.8926C3.97554 30.4592 3.53372 30.0343 3.12589 29.5754C2.0978 28.4282 2.01284 26.8986 3.04092 25.7853C4.3239 24.4087 5.70884 23.1255 7.12777 21.7233C7.49312 22.0802 7.87547 22.4456 8.24932 22.8196C10.6114 25.1565 13.6191 25.1735 15.9727 22.8535C16.338 22.4881 16.6609 22.0802 17.0602 21.6298C17.4511 21.9868 17.7315 22.2417 18.0968 22.5816C16.6354 24.0008 15.1995 25.3689 15.191 27.5784C15.1825 29.8049 16.542 31.207 17.9949 32.5497C16.542 34.0538 15.225 35.541 13.7721 36.8751L13.7806 36.8921ZM19.7367 30.9606C16.7544 28.7341 16.7884 26.6351 19.7367 24.3322C22.3621 26.3037 23.0248 28.3602 19.7367 30.9606ZM36.186 29.6604C33.8834 32.0228 31.5469 34.3512 29.1848 36.6627C28.1738 37.6484 26.6359 37.7929 25.6418 36.8751C24.1889 35.541 22.8719 34.0538 21.436 32.5667C22.8549 31.258 24.2483 29.8388 24.2483 27.6464C24.2483 25.4454 22.8889 24.0093 21.3085 22.5986C21.6739 22.2842 21.9713 22.0377 22.3366 21.7233C23.6706 23.168 25.064 24.5786 27.2816 24.5701C29.4737 24.5616 30.8587 23.1935 32.3881 21.5194C32.7449 21.9783 33.0338 22.4032 33.3906 22.7686C34.2913 23.7033 35.2259 24.5956 36.1265 25.5304C37.333 26.7881 37.3925 28.4027 36.186 29.6434V29.6604Z" fill="#C82D2C"/>
</svg>
