<svg width="181" height="25" viewBox="0 0 181 25" fill="none" xmlns="http://www.w3.org/2000/svg">
<g id="Vector">
<path d="M13.212 6.55291V1.68947C13.212 1.68947 6.35943 0.879929 3.41711 2.21743C0.474796 3.55493 -0.181989 6.16574 0.0254164 8.31484C0.232822 10.464 0.820472 13.1431 3.97019 13.8118C7.11992 14.4806 8.17525 14.1328 8.31758 15.4682C8.45992 16.8036 7.08535 16.9879 5.77381 16.9879H0.129119V21.988C0.129119 21.988 8.26268 22.4642 10.0968 21.0708C11.9309 19.6774 12.9517 18.1287 13.212 16.3129C13.4722 14.4971 12.4169 11.5737 11.1013 10.7455C9.78569 9.91736 9.49288 9.51155 7.67503 9.37076C5.85718 9.22997 4.69815 9.37076 4.73272 7.9256C4.76728 6.48044 6.03002 6.53427 7.29479 6.53427C8.55956 6.53427 13.214 6.55291 13.214 6.55291H13.212Z" fill="white"/>
<path d="M44.2171 11.5965L33.9871 0.204971C33.9871 0.204971 33.9952 0.209111 33.9973 0.211182C33.9973 0.211182 33.9993 0.213252 34.0013 0.213252L34.0522 0.269154L44.2171 11.5903V11.5965Z" fill="white"/>
<path d="M38.7696 21.371C38.7757 21.8244 38.6537 22.0708 38.363 22.1619H37.1816C35.9514 22.106 34.7151 22.1039 33.495 22.1143V9.88009C33.5337 9.79934 33.5987 9.73723 33.7146 9.69996L38.6964 15.2487C38.7717 15.5717 38.7737 15.9175 38.7676 16.2777C38.7452 17.9755 38.7412 19.6732 38.7676 21.371H38.7696Z" fill="white"/>
<path d="M61.1695 12.1244L61.1634 12.1369L61.1695 12.1493V21.6567C61.1024 21.9714 60.9499 22.1081 60.6205 22.1619H56.5333C56.208 22.1246 56.0006 22.0335 55.8725 21.8472C55.7688 21.7043 55.7159 21.5056 55.6875 21.2302V13.2052L56.0047 12.6255L62.0377 1.55489L62.0804 1.47829H66.6922C66.7613 1.51556 66.8264 1.56732 66.8874 1.63357L61.1735 12.1244H61.1695Z" fill="white"/>
<path d="M57.6415 5.67298L55.1364 10.2693C55.0002 10.3749 54.8619 10.3584 54.6931 10.2196L49.9309 1.47622H55.354L55.4943 1.73295L55.6875 2.08492L57.6415 5.67091V5.67298Z" fill="white"/>
<path d="M33.0639 22.1163C31.7748 22.1267 30.4775 22.1143 29.1822 22.1619H28.0069C27.9927 22.1598 27.9805 22.1557 27.9662 22.1515L24.1333 13.7642L26.6893 8.16578L33.0619 22.1163H33.0639Z" fill="white"/>
<path d="M25.7377 6.07671L23.4826 11.0126L23.1796 11.6731L18.389 22.1577H13.1591C13.0696 22.1225 12.9903 22.0604 12.9334 21.9486L22.8787 0.184268L22.9621 0L23.0231 0.130437L25.7397 6.07671H25.7377Z" fill="white"/>
<path d="M33.495 6.57983L47.7654 22.4787C47.7654 22.4787 47.7715 22.4849 47.7735 22.489L47.8223 22.5449H47.8243" fill="white"/>
<path d="M75.4723 1.50106C69.8703 1.50106 65.3278 6.12433 65.3278 11.8304C65.3278 17.5365 69.8703 22.1619 75.4723 22.1619C81.0743 22.1619 85.6189 17.5365 85.6189 11.8304C85.6189 6.12433 81.0764 1.50106 75.4723 1.50106ZM75.393 16.8036C72.6968 16.8036 70.5088 14.5779 70.5088 11.8304C70.5088 9.08298 72.6947 6.85934 75.393 6.85934C78.0913 6.85934 80.2752 9.08505 80.2752 11.8304C80.2752 14.5758 78.0893 16.8036 75.393 16.8036Z" fill="white"/>
<path d="M48.534 1.53004C47.2713 1.51555 46.0085 1.51555 44.7458 1.5259C44.5465 1.5259 44.3554 1.58388 44.2212 1.68947V11.5985L44.2171 11.5944V11.5985L33.9871 0.204971C33.9546 0.178055 33.9159 0.157349 33.8732 0.149067C33.8509 0.142856 33.8265 0.138715 33.8021 0.138715C33.6333 0.138715 33.495 0.279505 33.495 0.45135C33.495 0.467914 33.495 0.482407 33.4991 0.49897V6.57982L44.2151 18.5179L44.2191 18.5221L46.2403 20.7726L49.1603 24.1909V1.80955C49.0403 1.63357 48.8431 1.53211 48.532 1.52797L48.534 1.53004Z" fill="white"/>
<path d="M137.298 6.62744V1.764C137.298 1.764 130.445 0.954462 127.503 2.29196C124.56 3.62946 123.904 6.2382 124.111 8.38938C124.318 10.5406 124.906 13.2176 128.056 13.8864C131.206 14.5551 132.261 14.2073 132.403 15.5427C132.546 16.8781 131.171 17.0624 129.859 17.0624H124.213V22.0625C124.213 22.0625 132.346 22.5387 134.18 21.1453C136.015 19.7519 137.035 18.2032 137.296 16.3874C137.556 14.5717 136.5 11.6482 135.185 10.8201C133.869 9.99189 133.576 9.58609 131.759 9.4453C129.941 9.30451 128.782 9.4453 128.816 8.00014C128.851 6.55498 130.114 6.60881 131.378 6.60881C132.643 6.60881 137.298 6.62744 137.298 6.62744Z" fill="white"/>
<path d="M101.967 12.1348L101.961 12.1472L101.967 12.1596V21.6671C101.9 21.9818 101.748 22.1184 101.418 22.1722H97.3313C97.006 22.135 96.7985 22.0439 96.6704 21.8575C96.5667 21.7147 96.5139 21.5159 96.4854 21.2405V13.2156L96.8026 12.6358L102.836 1.56525L102.878 1.48864H107.49C107.559 1.52591 107.624 1.57767 107.685 1.64392L101.971 12.1348H101.967Z" fill="white"/>
<path d="M98.4395 5.6854L95.9344 10.2818C95.7981 10.3873 95.6599 10.3708 95.4911 10.2321L90.7289 1.48864H96.1519L96.2922 1.74537L96.4854 2.09735L98.4395 5.68333V5.6854Z" fill="white"/>
<path d="M148.567 1.2671C142.965 1.2671 138.422 5.89037 138.422 11.5965C138.422 17.3026 142.965 21.9279 148.567 21.9279C154.169 21.9279 158.713 17.3026 158.713 11.5965C158.713 5.89037 154.171 1.2671 148.567 1.2671ZM148.487 16.5697C145.791 16.5697 143.603 14.3439 143.603 11.5965C143.603 8.84902 145.789 6.62538 148.487 6.62538C151.186 6.62538 153.37 8.85109 153.37 11.5965C153.37 14.3419 151.184 16.5697 148.487 16.5697Z" fill="white"/>
<path d="M108.184 13.2632V1.48449H112.785V12.9485C112.785 15.0934 113.576 17.0086 115.327 17.0086C116.838 17.0086 117.964 15.551 117.964 12.9485V1.48449H122.543V13.2632C122.543 18.5821 120.002 22.0687 115.329 22.0687C111.063 22.0687 108.186 18.9817 108.186 13.2632H108.184Z" fill="white"/>
<path d="M165.432 1.66669H160.617V24.2178H161.253L176.507 1.66669H170.761L165.413 9.16165L165.432 1.66669Z" fill="white"/>
<path d="M170.814 13.5137L167.906 17.7954L170.814 21.9279H175.383L175.452 20.1391L170.814 13.5137Z" fill="white"/>
<path d="M180.867 1.66669H177.268V21.9279H180.867V1.66669Z" fill="white"/>
</g>
</svg>
