<svg width="38" height="38" viewBox="0 0 38 38" fill="none" xmlns="http://www.w3.org/2000/svg">
<circle cx="18.8732" cy="18.5197" r="18.189" stroke="white" stroke-width="0.661417"/>
<path d="M9.21676 21.3588C10.4506 21.3588 11.611 21.3506 12.7632 21.3588C13.4087 21.367 13.7601 21.6378 13.8254 22.1549C13.899 22.8032 13.5231 23.2382 12.8204 23.2464C11.4966 23.2628 10.181 23.2546 8.85722 23.2546C8.47316 23.2546 8.09728 23.271 7.71322 23.2464C7.23928 23.2218 6.77351 23.1233 6.54471 22.6309C6.31591 22.1385 6.47934 21.6953 6.78985 21.2931C8.04825 19.6846 9.31482 18.0678 10.5814 16.4592C10.6549 16.3607 10.7285 16.2622 10.802 16.1719C10.7203 16.0324 10.6059 16.0981 10.5078 16.0898C9.62533 16.0816 8.73465 16.0898 7.85213 16.0816C7.64785 16.0816 7.44356 16.057 7.24745 16.016C6.78168 15.9093 6.49568 15.4415 6.60191 14.9819C6.67545 14.67 6.92059 14.4156 7.23111 14.3417C7.42722 14.2925 7.63151 14.2679 7.83579 14.2679C9.2903 14.2597 10.753 14.2597 12.2075 14.2679C12.469 14.2597 12.7223 14.2925 12.9756 14.3582C13.5313 14.5469 13.7682 15.064 13.5476 15.6056C13.3515 16.0734 13.041 16.4756 12.7305 16.8777C11.66 18.2483 10.5896 19.6107 9.5191 20.9649C9.42922 21.0715 9.3475 21.1782 9.21676 21.3588Z" fill="white"/>
<path d="M18.6983 17.0393C18.8944 16.7849 19.0987 16.5469 19.4337 16.4812C20.0792 16.3499 20.6839 16.7685 20.6921 17.425C20.7166 19.0665 20.7084 20.7079 20.6921 22.3493C20.6921 22.7761 20.4143 23.1536 20.0139 23.2767C19.6053 23.4326 19.1395 23.3095 18.8699 22.9566C18.7309 22.7843 18.6737 22.7514 18.4776 22.9074C17.734 23.5147 16.8924 23.6214 15.9853 23.3259C14.5308 22.8499 13.9343 21.7091 13.7709 20.3221C13.5993 18.8202 14.0977 17.5399 15.4379 16.7521C16.5492 16.0873 17.6768 16.1447 18.6983 17.0393ZM15.8056 20.0349C15.8219 20.396 15.9363 20.7407 16.1488 21.0279C16.59 21.6189 17.4317 21.742 18.0282 21.2988C18.1263 21.2249 18.2161 21.1346 18.2979 21.0279C18.7555 20.4042 18.7555 19.3783 18.2979 18.7546C18.0691 18.4345 17.7095 18.2457 17.3255 18.2375C16.4266 18.1801 15.7974 18.8777 15.8056 20.0349ZM24.361 20.0841C24.2957 17.9749 25.6766 16.3992 27.6378 16.3417C29.7215 16.276 31.2414 17.6795 31.3068 19.7312C31.3721 21.8076 30.1056 23.2767 28.1526 23.4737C26.0198 23.687 24.3284 22.1359 24.361 20.0841ZM26.4121 19.8872C26.3957 20.2975 26.5183 20.6997 26.7634 21.0362C27.2129 21.6271 28.0545 21.742 28.6429 21.2824C28.7328 21.2167 28.8063 21.1346 28.8798 21.0526C29.3538 20.4288 29.3538 19.3783 28.888 18.7546C28.6592 18.4427 28.2997 18.2457 27.9156 18.2375C27.0331 18.1883 26.4121 18.8613 26.4121 19.8872ZM23.642 18.4509C23.642 19.723 23.6501 20.9951 23.642 22.2672C23.6501 22.8499 23.1925 23.3341 22.6124 23.3506C22.5143 23.3506 22.4081 23.3423 22.31 23.3177C21.9015 23.211 21.5909 22.7761 21.5909 22.259V15.7344C21.5909 15.3486 21.5828 14.9711 21.5909 14.5854C21.5991 13.9534 21.9995 13.5431 22.6042 13.5431C23.2252 13.5349 23.642 13.9452 23.642 14.6018C23.6501 15.8821 23.642 17.1706 23.642 18.4509Z" fill="white"/>
</svg>
