<svg width="94" height="79" viewBox="0 0 94 79" fill="none" xmlns="http://www.w3.org/2000/svg">
<path d="M20.4564 41.6808H0.5V78.5H41.4189V41.1808C41.4189 36.0254 40.3175 31.2465 38.118 26.8366C35.9106 22.4111 32.9306 18.4919 29.1746 15.0774C25.4125 11.6574 21.0379 8.74219 16.0472 6.33337C11.2291 4.0079 6.04713 2.11207 0.5 0.646977V15.8798C7.10364 17.9586 12.1665 21.144 15.6476 25.4592C19.1908 29.8512 20.9564 35.1003 20.9564 41.1808V41.6808H20.4564ZM72.5375 41.6808H52.5811V78.5H93.5V41.1808C93.5 36.0254 92.3986 31.2465 90.1991 26.8366C87.9917 22.4111 85.0117 18.492 81.2557 15.0774C77.4936 11.6574 73.119 8.74219 68.1283 6.33337C63.3102 4.0079 58.1282 2.11207 52.5811 0.646977V15.8798C59.1847 17.9586 64.2475 21.144 67.7287 25.4592C71.2719 29.8512 73.0375 35.1003 73.0375 41.1808V41.6808H72.5375Z" stroke="#DAB571"/>
</svg>
