<svg xmlns="http://www.w3.org/2000/svg" width="126" height="192" viewBox="0 0 126 192" fill="none">
  <path d="M155.061 2.46876L150.364 8.22627C150.364 8.22627 150.356 8.23132 150.353 8.23585L148.173 10.9088L143.603 16.5191L134.098 28.1831L120.563 44.7949L107.479 60.858L76.4944 98.8878L73.8585 102.123L68.3499 108.884L65.7141 112.119L54.7698 125.551C54.7698 125.551 54.7629 125.56 54.7589 125.56L44.7635 137.832L42.3719 140.769L38.8782 145.055C38.8782 145.055 38.8742 145.055 38.8713 145.064L31.9608 153.544C31.9608 153.544 31.9608 153.544 31.9568 153.544L19.6567 168.643C19.6567 168.643 19.6532 168.648 19.6498 168.652L14.1026 175.46C14.1026 175.46 14.1026 175.46 14.0991 175.464L5.83568 185.603C5.83568 185.603 5.83567 185.603 5.83222 185.607L0.361564 192.319L0.23621 192.474L82.5572 260.284L82.7118 260.411L103.132 235.347C103.132 235.347 103.132 235.347 103.136 235.342L107.567 229.905C107.567 229.905 107.487 229.908 107.489 229.899L126.811 206.086L150.252 177.414C150.262 177.405 150.317 177.385 150.327 177.372L177.374 144.196L177.306 143.683L172.278 149.851L162.063 141.436C162.04 141.419 162.018 141.406 161.993 141.401C161.981 141.398 161.969 141.4 161.956 141.397C161.944 141.399 161.927 141.393 161.915 141.395L139.835 143.93L145.274 137.255L167.185 134.359L168.582 135.511L177.16 142.578L177.082 141.993L168.992 135.33L174.664 128.367L175.351 128.933L175.274 128.348L174.764 127.926C174.719 127.892 174.664 127.874 174.612 127.881C174.564 127.888 174.515 127.91 174.484 127.955L168.686 135.073L167.371 133.988L165.76 132.661L171.23 125.945L173.306 123.47L174.793 124.687L174.726 124.182L173.338 123.041C173.293 123.007 173.238 122.989 173.186 122.996C173.139 123.003 173.089 123.026 173.058 123.07L171.047 125.538L151.221 109.207L157.224 101.837C157.255 101.796 157.213 101.753 157.211 101.705L155.037 77.5037L161.189 82.5732L162.598 102.988C162.598 102.988 162.611 103.023 162.617 103.038C162.618 103.046 162.619 103.058 162.628 103.065C162.629 103.073 162.638 103.08 162.643 103.083C162.653 103.098 162.663 103.113 162.677 103.124L173.066 111.687L172.988 111.102L162.992 102.87L161.627 82.935L170.19 89.9876L170.113 89.4028L161.53 82.3324L154.951 76.912L150.095 72.9136L148.81 66.975L155.153 72.1985C155.194 72.2338 155.248 72.247 155.301 72.2441C155.353 72.2373 155.402 72.2144 155.437 72.1731L156.755 70.5557L158.192 68.7923L166.032 75.2479C166.073 75.2832 166.127 75.2963 166.179 75.2935C166.232 75.2906 166.281 75.2637 166.316 75.2224L167.404 73.8882C166.149 77.0539 166.848 80.7677 169.31 83.282L169.217 82.5812C167.053 80.0518 166.595 76.4732 168.015 73.5138L167.923 72.8209C167.821 73.0015 167.728 73.181 167.638 73.364C167.628 73.349 167.618 73.3341 167.604 73.3196L159.609 66.7338C159.563 66.695 159.509 66.6818 159.457 66.6887C159.409 66.695 159.36 66.7179 159.329 66.7587L158.014 68.3716L156.578 70.135L148.073 63.1317L154.017 55.9538L165.498 54.4933L165.418 53.8886C165.392 53.9329 165.397 54.0992 165.395 54.1403L154.03 55.5934L128.477 58.3849L145.641 37.6814C145.641 37.6814 145.641 37.6814 145.645 37.6808C145.645 37.6808 145.645 37.6808 145.644 37.6768L150.171 32.2191C150.171 32.2191 150.181 32.2095 150.185 32.205L152.782 29.0733C152.782 29.0733 152.807 29.0496 152.817 29.032L155.229 26.1245C155.229 26.1245 155.257 26.0962 155.266 26.0746L160.838 19.3577L160.76 18.769L155.292 25.3173L154.682 20.8664L151.923 21.2482L151.284 15.9331L156.298 15.3541C156.298 15.3541 156.303 15.3291 156.307 15.3285C156.383 15.3185 156.439 15.254 156.457 15.1782C156.46 15.1657 156.458 15.1496 156.46 15.1371C156.458 15.1251 156.464 15.108 156.463 15.096L156.082 10.5738L159.627 10.2508L159.576 9.86627L156.048 10.1667L155.861 7.92963L159.266 7.53136L159.213 7.12684L155.828 7.52248L155.422 2.65323L158.176 -0.723566L158.107 -1.24422L155.084 2.45761C155.084 2.45761 155.068 2.4597 155.068 2.4637L155.061 2.46876ZM7.03496 197.588L0.791778 192.445L5.83297 186.255L7.03496 197.588ZM159.501 67.172L167.186 73.5013L166.123 74.8038L158.441 68.4739L159.501 67.172ZM116.655 123.89L109.016 117.6L106.029 88.4857L105.714 85.801L110.26 80.3161L116.651 123.891L116.655 123.89ZM107.86 61.1661L127.511 58.892L110.527 79.3638L107.856 61.1667L107.86 61.1661ZM102.099 166.679L114.833 164.458L116.333 177.646L92.4164 182.202L102.478 169.848C102.488 169.835 102.495 169.822 102.501 169.805C102.504 169.796 102.51 169.787 102.513 169.779C102.516 169.77 102.515 169.758 102.517 169.745C102.515 169.729 102.521 169.712 102.519 169.696L102.099 166.679ZM86.7104 218.825L88.6629 229.827L86.3195 230.19L84.4572 219.258L86.7104 218.825ZM84.3922 218.86L83.6137 214.3L85.8283 213.852L86.6414 218.427L84.3922 218.86ZM91.0643 209.009L89.2788 209.271L88.7384 205.744L90.6349 205.464L91.1684 208.939C91.1302 208.956 91.0964 208.977 91.0683 209.009L91.0643 209.009ZM92.1949 217.357L87.0326 218.351L86.219 213.772L91.4496 212.712L92.1949 217.357ZM90.6456 205.055L88.6182 205.356C88.5226 205.369 88.4362 205.421 88.381 205.493C88.3366 205.556 88.3178 205.628 88.3279 205.704L88.8993 209.435C88.9211 209.599 89.0894 209.707 89.2767 209.682L90.9466 209.437C90.9464 209.526 90.957 209.606 90.9633 209.655L91.3885 212.312L86.15 213.373L84.5321 204.255L90.2031 203.214C90.2031 203.214 90.2259 203.203 90.2378 203.202C90.2498 203.2 90.2612 203.194 90.2726 203.189C90.2841 203.183 90.2904 203.17 90.3013 203.161C90.3082 203.151 90.3196 203.146 90.3266 203.137C90.3335 203.128 90.3398 203.115 90.3422 203.102C90.3486 203.089 90.3555 203.08 90.3579 203.067C90.3603 203.055 90.3582 203.039 90.3606 203.026C90.359 203.014 90.3659 203.005 90.3643 202.993L90.0118 200.334L99.1565 198.649L100.678 210.433L94.6419 211.657L94.2403 209.147C94.1893 208.824 94.0356 208.489 93.7687 208.525L91.5602 208.866L91.015 205.303C90.9892 205.14 90.8249 205.031 90.6416 205.055L90.6456 205.055ZM91.3508 209.367C91.4055 209.351 91.4547 209.324 91.4903 209.287L93.7586 208.938C93.7849 208.983 93.8215 209.076 93.8435 209.212L94.2472 211.738L91.7797 212.236L91.3567 209.594C91.3434 209.494 91.3423 209.425 91.3469 209.367L91.3508 209.367ZM94.3157 212.132L95.0647 216.805L92.5941 217.279L91.8482 212.63L94.3157 212.132ZM95.1258 217.205L96.7698 227.469C96.7873 227.601 96.7847 227.703 96.7751 227.753L94.3719 228.125C94.3456 228.079 94.3089 227.986 94.2869 227.851L92.6591 217.678L95.1298 217.204L95.1258 217.205ZM94.7069 212.056L100.94 210.794C100.94 210.794 100.959 210.783 100.971 210.782C100.983 210.78 100.998 210.774 101.009 210.764C101.021 210.759 101.027 210.746 101.039 210.74C101.049 210.73 101.056 210.721 101.063 210.712C101.07 210.703 101.077 210.69 101.079 210.678C101.085 210.665 101.092 210.655 101.095 210.643C101.097 210.63 101.099 210.614 101.097 210.602C101.096 210.59 101.103 210.581 101.101 210.569L99.5268 198.384C99.5268 198.384 99.5268 198.384 99.5262 198.38C99.5262 198.38 99.5262 198.38 99.5257 198.376C99.5246 198.368 99.5196 198.361 99.5145 198.353C99.5124 198.337 99.5063 198.322 99.4962 198.307C99.4952 198.299 99.4867 198.296 99.4816 198.288C99.4721 198.277 99.5137 198.255 99.5007 198.249C99.4601 198.218 99.3974 198.173 99.3974 198.173L99.3937 198.145L99.2822 198.16L89.7375 199.946C89.7375 199.946 89.7163 199.97 89.7049 199.975C89.6929 199.977 89.6826 199.99 89.6711 199.996C89.6597 200.002 89.6539 200.019 89.6425 200.024C89.6356 200.033 89.6247 200.043 89.6178 200.052C89.6108 200.061 89.605 200.078 89.6021 200.087C89.5957 200.1 89.5888 200.109 89.5864 200.121C89.584 200.134 89.5861 200.15 89.5837 200.162C89.5853 200.174 89.5784 200.183 89.58 200.195L89.9325 202.855L84.2616 203.896C84.2456 203.898 84.2307 203.908 84.2114 203.915C84.2034 203.916 84.1954 203.917 84.1885 203.926C84.1736 203.936 84.1633 203.95 84.1524 203.959C84.145 203.964 84.1375 203.969 84.1346 203.978C84.1282 203.991 84.1219 204.004 84.1155 204.017C84.1126 204.026 84.1057 204.035 84.1033 204.047C84.1014 204.064 84.0398 204.088 84.0414 204.1C84.043 204.112 83.9763 204.129 83.9779 204.141L83.9922 204.249L84.0839 204.237L85.7463 213.508L83.3348 213.971C83.3348 213.971 83.3139 213.965 83.299 213.975C83.287 213.977 83.2751 213.979 83.2671 213.98C83.2562 213.989 83.2488 213.994 83.2379 214.004C83.231 214.013 83.2196 214.019 83.2127 214.028C83.2063 214.041 83.1999 214.054 83.1975 214.066C83.1951 214.079 83.1882 214.088 83.1853 214.096C83.1829 214.109 83.2289 214.119 83.231 214.135L83.2748 214.129L83.2791 214.161C83.2791 214.161 83.2326 214.147 83.231 214.135L83.2031 214.139L84.0063 218.915L76.9044 220.292C80.473 213.726 81.2338 205.886 78.9928 198.672L92.0146 182.687L116.381 178.097L118.707 196.877L104.041 215.045C104.041 215.045 103.987 215.064 104.003 215.091L95.4525 216.734L94.7029 212.057L94.7069 212.056ZM72.8028 221.092C76.2698 216.085 77.7746 209.699 76.9339 203.477L76.9498 203.475L76.9039 203.281C76.7125 201.929 76.4418 200.743 76.0249 199.433L76.0249 199.371L76.0108 199.357L74.5388 187.424L91.0227 167.617C91.2537 168.565 91.7794 169.412 92.5442 170.044C93.5087 170.837 94.7688 171.2 95.9998 171.037C97.1272 170.888 98.1465 170.321 98.8642 169.435C99.8193 168.261 100.08 166.743 99.7003 165.375C99.7003 165.375 99.6998 165.371 99.6992 165.367L96.363 142.763L98.3241 142.511L102.105 169.662L78.6234 198.485L78.5575 198.539L78.5692 198.749L78.5957 198.766C80.8503 205.99 80.0454 213.865 76.3879 220.401L72.8108 221.091L72.7949 221.093L72.8028 221.092ZM53.0989 217.489L52.6619 215.476C53.8637 215.46 55.0673 215.182 56.1668 214.669L59.616 230.143C59.6213 230.183 59.646 230.216 59.6736 230.241C58.4851 230.603 57.268 230.87 56.0301 231.042L54.8605 225.642L53.0954 217.493L53.0989 217.489ZM52.403 214.96C50.5546 215.205 48.7536 214.34 47.2888 213.136C46.3694 212.378 45.6434 211.487 45.1265 210.431C44.5256 209.231 44.2333 207.913 44.2687 206.559C44.3132 204.723 44.9489 203.005 46.107 201.588C46.3059 201.346 46.5144 201.114 46.737 200.897C47.4012 200.251 48.1627 199.726 49.011 199.337C50.1687 198.804 51.4562 198.548 52.7402 198.602C54.0601 198.651 55.3202 199.014 56.4545 199.65C56.4855 199.671 56.5195 199.682 56.5546 199.702C56.9192 199.915 57.2676 200.158 57.5993 200.428C57.6219 200.445 57.6439 200.459 57.6625 200.476C58.5271 201.189 59.23 202.058 59.751 203.052L59.7767 203.094C60.3835 204.277 60.7007 205.6 60.6905 206.93C60.6837 208.805 60.0344 210.636 58.8562 212.084C58.6751 212.308 58.4838 212.516 58.2836 212.718C57.6823 213.319 56.987 213.762 56.2229 214.144C55.0413 214.741 53.7473 215.194 52.4115 214.963L52.403 214.96ZM53.3525 220.565L53.7578 222.43C49.7357 222.699 45.8109 221.438 42.676 218.858C40.5739 217.127 38.9501 214.877 37.9656 212.342L44.7809 210.791L44.8446 210.782C44.91 210.908 44.9912 211.032 45.0645 211.157C45.1277 211.266 45.1869 211.377 45.2536 211.482C45.351 211.636 45.4594 211.781 45.5677 211.925C45.6373 212.022 45.7028 212.119 45.7759 212.212C45.9017 212.366 46.039 212.515 46.1718 212.66C46.2382 212.733 46.3011 212.81 46.3715 212.883C46.5826 213.099 46.8081 213.302 47.041 213.499C47.2316 213.653 47.4257 213.802 47.6222 213.939C47.6894 213.988 47.7596 214.027 47.8302 214.071C47.9635 214.159 48.0968 214.247 48.233 214.327C48.3162 214.373 48.4027 214.415 48.4859 214.461C48.6125 214.53 48.7392 214.598 48.8688 214.659C48.9599 214.704 49.0534 214.736 49.1479 214.776C49.2725 214.829 49.3975 214.886 49.5255 214.934C49.6235 214.97 49.725 215.002 49.8224 215.033C49.9494 215.074 50.0729 215.118 50.2033 215.154C50.3042 215.182 50.4085 215.204 50.5129 215.227C50.6428 215.259 50.7687 215.291 50.8975 215.315C51.0013 215.334 51.1086 215.348 51.2164 215.366C51.3447 215.386 51.4775 215.409 51.6087 215.42C51.7154 215.431 51.8256 215.436 51.9364 215.446C52.0426 215.452 52.1454 215.463 52.2516 215.47L53.3519 220.561L53.3525 220.565ZM34.1162 204.921C34.1162 204.921 34.1123 204.922 34.1078 204.919C34.4533 201.286 35.8495 197.874 38.1611 195.036C40.372 192.327 43.2764 190.324 46.5737 189.235L47.2763 192.488C44.7065 193.407 42.4339 195.008 40.7013 197.137C38.3029 200.083 37.1179 203.774 37.3334 207.572L34.1117 204.918L34.1162 204.921ZM37.1201 207.951L36.7188 208.073L34.1292 208.628C34.0185 207.579 33.9942 206.478 34.0668 205.405L37.1201 207.951ZM41.015 197.393C42.6917 195.333 44.886 193.783 47.3658 192.887L47.7924 194.852C47.7924 194.852 47.7924 194.852 47.7929 194.856L48.5784 198.489L48.6944 199.028C48.6408 199.052 48.5922 199.082 48.5391 199.11C48.4745 199.143 48.406 199.176 48.342 199.213C48.2666 199.256 48.1951 199.298 48.1197 199.341C48.0557 199.378 47.9917 199.415 47.9277 199.452C47.8568 199.498 47.7859 199.544 47.7149 199.59C47.6554 199.63 47.592 199.671 47.5325 199.712C47.4621 199.762 47.3957 199.812 47.3253 199.862C47.2664 199.906 47.2069 199.947 47.1479 199.991C47.0781 200.045 47.0127 200.103 46.9468 200.156C46.8919 200.2 46.8369 200.244 46.7824 200.292C46.7136 200.354 46.6488 200.416 46.5801 200.478C46.5336 200.525 46.4826 200.568 46.4361 200.615C46.3644 200.686 46.2932 200.761 46.222 200.835C46.183 200.877 46.1394 200.915 46.1049 200.961C45.9987 201.077 45.8935 201.201 45.7923 201.324C45.6422 201.507 45.5012 201.697 45.3686 201.89C45.3243 201.953 45.2884 202.019 45.2446 202.085C45.1604 202.215 45.0728 202.349 44.9931 202.482C44.9468 202.561 44.9086 202.639 44.8664 202.718C44.7981 202.846 44.7293 202.969 44.669 203.095C44.6278 203.182 44.5952 203.272 44.558 203.358C44.5056 203.483 44.4488 203.605 44.401 203.734C44.3649 203.828 44.3367 203.922 44.3051 204.019C44.2647 204.143 44.2204 204.267 44.1845 204.394C44.1568 204.491 44.1343 204.596 44.1106 204.693C44.0787 204.82 44.0463 204.942 44.0224 205.068C44.0038 205.172 43.9892 205.276 43.9711 205.384C43.9512 205.509 43.9313 205.634 43.9153 205.758C43.9012 205.866 43.8957 205.977 43.8895 206.084C43.8824 206.182 43.8712 206.282 43.864 206.38L41.7548 206.86L37.7408 207.771C37.4711 203.992 38.6259 200.318 41.0065 197.39L41.015 197.393ZM65.1837 201.285C64.3046 199.27 62.9517 197.473 61.245 196.065C58.5557 193.85 55.1803 192.728 51.7241 192.893L50.7156 188.372C55.5714 187.941 60.323 189.414 64.1177 192.538C65.8019 193.929 67.2119 195.576 68.3141 197.439L65.1832 201.281L65.1837 201.285ZM68.53 197.814C69.0125 198.671 69.432 199.573 69.7796 200.513L65.5526 201.468L68.534 197.813L68.53 197.814ZM60.9908 196.38C62.693 197.784 64.0462 199.675 64.9035 201.709L63.8723 202.033L63.8364 202.038L63.8247 201.95L60.0184 202.777C59.9486 202.647 59.8732 202.506 59.7999 202.382C59.7378 202.28 59.6815 202.161 59.6154 202.06C59.5195 201.918 59.4151 201.772 59.3118 201.635C59.2433 201.547 59.1863 201.452 59.1143 201.368C58.989 201.218 58.8562 201.072 58.7199 200.931C58.6591 200.87 58.6052 200.8 58.5444 200.739C58.3434 200.537 58.1355 200.344 57.9127 200.162C57.7305 200.011 57.5414 199.869 57.3494 199.735C57.2958 199.698 57.2387 199.665 57.1811 199.627C57.0432 199.536 56.9054 199.444 56.7647 199.361C56.69 199.317 56.612 199.279 56.5374 199.236C56.4107 199.167 56.284 199.098 56.1579 199.033C56.0713 198.992 55.9818 198.959 55.8952 198.917C55.7747 198.864 55.6496 198.807 55.5256 198.759C55.4315 198.722 55.3346 198.694 55.2411 198.662C55.1352 198.627 55.0321 198.584 54.9227 198.553C54.9057 198.547 54.8893 198.545 54.8763 198.539C54.7753 198.512 54.675 198.488 54.574 198.461C54.4521 198.428 54.3303 198.395 54.2094 198.371C54.105 198.348 54.0017 198.333 53.8939 198.315C53.7696 198.294 53.6488 198.27 53.5256 198.258C53.4183 198.243 53.3081 198.237 53.2013 198.227C53.103 198.22 53.0077 198.204 52.91 198.201L51.8181 193.296C55.1519 193.156 58.4013 194.245 60.9947 196.379L60.9908 196.38ZM56.9043 214.27C57.0095 214.207 57.1152 214.148 57.2198 214.082C57.3691 213.984 57.5088 213.876 57.649 213.772C57.7412 213.703 57.8344 213.642 57.9221 213.569C58.0761 213.447 58.2161 213.31 58.3606 213.177C58.4294 213.114 58.5027 213.056 58.5664 212.986C58.7741 212.779 58.9683 212.562 59.1568 212.333C59.3103 212.146 59.4509 211.952 59.5869 211.755C59.6341 211.683 59.6774 211.612 59.7207 211.541C59.8049 211.412 59.8886 211.279 59.9683 211.146C60.0174 211.058 60.0581 210.967 60.1072 210.879C60.172 210.756 60.2368 210.633 60.2971 210.507C60.3407 210.408 60.3803 210.309 60.4198 210.21C60.4687 210.089 60.5256 209.968 60.5699 209.843C60.609 209.741 60.639 209.631 60.6701 209.529C60.7104 209.405 60.7514 209.286 60.7832 209.159C60.8133 209.049 60.8353 208.94 60.8613 208.831C60.8892 208.705 60.9217 208.582 60.9416 208.458C60.9631 208.345 60.9767 208.233 60.9902 208.121C61.0101 207.996 61.0261 207.872 61.0415 207.743C61.0511 207.632 61.0561 207.517 61.0652 207.402C61.0718 207.299 61.083 207.2 61.0857 207.098L64.5881 206.303C64.6946 209.309 63.7276 212.229 61.8381 214.55C60.6209 216.039 59.0637 217.228 57.3252 217.996L57.3055 217.909L56.5452 214.497C56.6703 214.432 56.7893 214.351 56.9094 214.278L56.9043 214.27ZM57.6385 218.281C59.3733 217.484 60.9249 216.284 62.1462 214.794C64.1122 212.378 65.1155 209.335 64.9841 206.202L70.8077 204.876C71.3724 209.871 69.9506 214.742 66.792 218.62C65.6035 220.082 64.2019 221.344 62.6325 222.379L62.6028 222.399C62.6028 222.399 62.5948 222.4 62.5914 222.405L57.6345 218.281L57.6385 218.281ZM62.2318 222.628C61.8007 222.893 61.3527 223.152 60.8815 223.39L58.6244 223.823L57.4746 218.665L62.2358 222.627L62.2318 222.628ZM64.7531 205.988L62.1461 206.505L61.0865 206.706C61.0606 205.471 60.7619 204.227 60.225 203.112L75.6494 199.596L76.4768 203.24L64.7525 205.984L64.7531 205.988ZM71.4862 191.093L74.1858 187.85L75.401 197.722C74.4459 195.318 73.1339 193.095 71.4828 191.097L71.4862 191.093ZM74.1211 187.3L71.222 190.781C70.2764 189.672 69.2222 188.63 68.0755 187.685C63.7663 184.136 58.365 182.134 52.8289 182.02L70.7601 160.012L74.1216 187.304L74.1211 187.3ZM67.8208 187.996C69.0131 188.979 70.1051 190.061 71.0735 191.221L71.0921 191.239C73.0622 193.594 74.5484 196.274 75.5257 199.213L70.1737 200.428C69.7847 199.359 69.3033 198.326 68.7423 197.366C68.7423 197.366 68.7417 197.362 68.7412 197.358C68.7412 197.358 68.7412 197.358 68.7407 197.354C67.6063 195.401 66.1373 193.676 64.3804 192.226C60.4943 189.024 55.6174 187.523 50.6352 187.979L49.4783 182.798C49.4565 182.695 49.3583 182.626 49.2547 182.64C49.2507 182.641 49.2427 182.642 49.2388 182.642C49.1323 182.665 49.0571 182.74 49.0834 182.846L50.2246 187.94L52.2645 197.092L52.5044 198.169C52.0986 198.165 51.6966 198.19 51.2942 198.243C50.5293 198.345 49.7873 198.557 49.0814 198.859L45.7676 183.551L45.7164 183.317C47.9008 182.701 50.1545 182.395 52.4217 182.404C58.0105 182.425 63.4824 184.41 67.8322 187.991L67.8208 187.996ZM46.4887 188.839C43.1009 189.948 40.1181 192.002 37.8519 194.784C35.4392 197.745 33.9995 201.318 33.6852 205.125L33.6788 205.2C33.6788 205.2 33.6815 205.22 33.6785 205.228L33.6716 205.298C33.5871 206.434 33.6082 207.573 33.7274 208.686L28.3754 209.9C27.4853 203.245 29.3847 196.473 33.6065 191.288C35.7996 188.597 38.4747 186.453 41.5595 184.923C42.7729 184.322 44.04 183.82 45.3225 183.434L46.4882 188.835L46.4887 188.839ZM37.6005 208.364C37.6005 208.364 37.5915 208.296 37.5955 208.295L40.621 207.572L43.8656 206.82C43.8686 208.067 44.1407 209.294 44.6582 210.416L29.2477 213.913C28.8858 212.742 28.6164 211.596 28.434 210.373L37.5926 208.365L37.6005 208.364ZM37.564 212.432C38.5722 215.053 40.2469 217.382 42.4173 219.169C45.6435 221.827 49.6942 223.12 53.8388 222.827L54.3695 225.271C54.093 225.296 53.816 225.316 53.5425 225.332C52.7173 225.376 51.9007 225.362 51.109 225.292L51.01 225.187L50.9324 225.275C47.224 224.943 43.7294 223.503 40.8309 221.116C38.2189 218.964 36.2456 216.156 35.1119 212.985L37.5635 212.428L37.564 212.432ZM58.7114 224.541L58.6774 224.224L71.8759 221.684C71.7073 221.91 71.5346 222.137 71.3391 222.374C68.3059 226.098 64.3627 228.736 60.0072 230.128C60.0119 230.103 59.9809 230.082 59.9737 230.059L58.7114 224.541ZM62.1696 223.137C62.4028 223 62.632 222.864 62.8476 222.717L62.8734 222.698C64.4691 221.647 65.8913 220.358 67.1011 218.873C70.3402 214.898 71.7899 209.901 71.1968 204.784L76.5591 203.739C77.3457 209.919 75.7846 216.247 72.2443 221.191L62.1685 223.129L62.1696 223.137ZM87.8163 133.911C87.9728 133.104 88.072 132.292 88.1137 131.475L90.692 128.326L91.147 132.83C90.8565 132.962 90.5938 133.152 90.3845 133.408C90.0291 133.846 89.8631 134.398 89.9175 134.961C89.9729 135.532 90.2477 136.046 90.6894 136.411C91.1445 136.787 91.7386 136.957 92.3202 136.88C92.854 136.809 93.3374 136.541 93.675 136.122C94.0343 135.683 94.1998 135.127 94.1409 134.56C94.0911 134.061 93.8656 133.615 93.5154 133.266L96.5321 129.663L98.2628 142.079L96.0988 142.329C96.0988 142.329 96.0911 142.424 96.081 142.592L99.1682 164.052C98.926 163.693 98.5944 163.362 98.2441 163.074C97.2796 162.281 96.0035 161.92 94.7726 162.083C93.6452 162.233 92.6179 162.801 91.8963 163.687C91.5754 164.08 91.3297 164.52 91.16 164.983L87.8777 134.037C87.8708 133.985 87.8445 133.94 87.8078 133.908L87.8163 133.911ZM90.1133 104.537L102.896 89.1332L103.812 97.509L102.737 96.6203C102.691 96.5815 102.637 96.5684 102.581 96.5758C102.577 96.5763 102.569 96.5774 102.565 96.5779C102.52 96.5391 102.465 96.5259 102.413 96.5328C102.366 96.5391 102.316 96.562 102.285 96.6028L89.4792 112.323L89.064 108.242C89.0534 108.162 89.0045 108.099 88.9325 108.076C89.4363 107.993 89.8923 107.733 90.2167 107.335C90.8929 106.504 90.8279 105.31 90.1173 104.536L90.1133 104.537ZM103.121 88.0804C103.121 88.0804 103.119 88.0604 103.11 88.0534C102.73 87.4191 102.844 86.6011 103.382 86.1019C103.92 85.6027 104.733 85.5561 105.328 85.9825L105.624 88.523L108.574 117.267C108.574 117.267 108.533 117.26 108.509 117.263L106.398 117.543L103.196 88.2172C103.188 88.1571 103.158 88.1122 103.117 88.0769L103.121 88.0804ZM89.9025 107.075C89.6271 107.413 89.2385 107.632 88.8043 107.689C88.3302 107.752 87.8496 107.612 87.4767 107.307C86.7395 106.7 86.6271 105.606 87.2273 104.874C87.5027 104.536 87.8913 104.318 88.3255 104.26C88.7916 104.198 89.2718 104.335 89.6396 104.632C89.6523 104.667 89.6685 104.698 89.6961 104.723C89.7187 104.74 89.7447 104.753 89.7702 104.762C90.3918 105.384 90.4637 106.385 89.903 107.079L89.9025 107.075ZM89.5286 112.879C89.5286 112.879 89.5549 112.863 89.5652 112.85L102.511 96.9601L103.871 98.0838L104.579 104.584L103.252 103.594C103.252 103.594 103.221 103.578 103.208 103.572C103.2 103.569 103.191 103.562 103.182 103.559C103.157 103.554 103.132 103.549 103.105 103.553C103.077 103.556 103.053 103.564 103.031 103.579C103.023 103.58 103.02 103.588 103.013 103.593C102.998 103.604 102.987 103.613 102.977 103.627L90.1773 119.334L89.5241 112.876L89.5286 112.879ZM90.4115 119.694L103.172 104.033L104.63 105.119C104.63 105.119 104.638 105.122 104.643 105.126L105.382 111.32L104.851 110.824C104.845 110.78 104.687 110.781 104.635 110.787C104.587 110.794 104.51 110.82 104.474 110.862L91.0084 127.318L90.2261 119.764C90.2925 119.775 90.3666 119.753 90.4115 119.694ZM106.035 117.709L96.8116 128.713L95.875 121.982L104.627 111.278L105.359 111.877C105.359 111.877 105.376 111.883 105.381 111.891L106.008 117.627C106.012 117.659 106.023 117.686 106.035 117.709ZM95.5299 122.407L96.4655 129.129L93.2171 133.004C92.7851 132.71 92.2616 132.584 91.7438 132.653C91.6721 132.662 91.6059 132.683 91.5393 132.7L91.0508 127.883L95.5294 122.403L95.5299 122.407ZM91.7974 133.057C92.2714 132.994 92.7521 133.135 93.1204 133.436C93.4797 133.731 93.7009 134.146 93.7495 134.604C93.798 135.062 93.6631 135.512 93.3738 135.868C93.0984 136.206 92.7098 136.425 92.2756 136.482C91.8016 136.545 91.3209 136.405 90.952 136.099C90.5927 135.805 90.371 135.386 90.3219 134.924C90.2774 134.465 90.4089 134.02 90.6986 133.667C90.9741 133.329 91.3626 133.111 91.7968 133.053L91.7974 133.057ZM98.5545 169.178C97.899 169.983 96.9745 170.5 95.9467 170.637C94.8273 170.785 93.6771 170.456 92.7989 169.733C92.1119 169.168 91.6388 168.412 91.4251 167.564C91.4304 167.543 91.4317 167.522 91.4325 167.498L91.3041 166.284C91.3535 165.434 91.6635 164.623 92.211 163.951C92.8665 163.147 93.791 162.629 94.8188 162.493C95.9382 162.344 97.0883 162.673 97.9626 163.396C99.7144 164.839 99.9771 167.433 98.5545 169.178ZM90.9004 166.297C90.8903 166.526 90.8887 166.759 90.9155 166.992L75.2942 154.126C75.2486 154.087 75.1941 154.074 75.1423 154.081C75.1065 154.085 75.0762 154.102 75.047 154.126L74.2602 147.302C78.2194 146.59 81.7584 144.511 84.3281 141.358C85.9077 139.421 86.9797 137.233 87.5775 134.953L90.9009 166.301L90.9004 166.297ZM75.1946 154.567L90.7205 167.356L78.2929 182.288L75.1072 154.672L75.1946 154.567ZM77.9293 182.634C77.9325 182.658 77.9391 182.678 77.9503 182.701L74.4746 186.878L71.112 159.579L74.7553 155.106L77.9293 182.634ZM98.7269 142.462L119.32 139.835C119.336 141.605 120.11 143.259 121.485 144.393C122.121 144.916 122.841 145.298 123.608 145.518L99.5789 148.584L98.7269 142.462ZM121.739 144.078C120.401 142.976 119.663 141.35 119.716 139.615C119.716 139.611 119.715 139.607 119.715 139.603C119.714 139.595 119.717 139.59 119.716 139.582C119.716 139.582 119.716 139.582 119.716 139.578C119.716 139.578 119.716 139.578 119.715 139.574L117.23 124.955L127.637 112.67L130.692 139.88C130.693 141.139 130.256 142.367 129.464 143.34C128.778 144.185 127.866 144.795 126.833 145.107L125.023 145.339C123.817 145.295 122.681 144.858 121.739 144.082L121.739 144.078ZM119.263 139.435L98.6619 142.063L96.8832 129.253L106.355 117.956L108.443 117.68L108.621 117.864L116.706 124.487L119.262 139.431L119.263 139.435ZM107.499 61.4707L110.185 79.78L105.54 85.3798L105.393 85.5542C105.016 85.3392 104.587 85.2534 104.173 85.3083C103.786 85.3596 103.411 85.5274 103.108 85.8081C102.429 86.436 102.286 87.4697 102.765 88.2662C102.776 88.2851 102.789 88.2956 102.803 88.31L102.831 88.5834C102.831 88.5834 102.816 88.5935 102.81 88.6026L89.8101 104.267C89.3653 103.939 88.8108 103.792 88.265 103.865C87.7192 103.937 87.2478 104.203 86.9102 104.623C86.1713 105.532 86.3093 106.879 87.2151 107.627C87.6426 107.978 88.1879 108.146 88.7339 108.106C88.6784 108.146 88.6425 108.212 88.6486 108.289L90.6222 127.768L88.125 130.826C88.1691 127.335 87.156 123.851 85.1421 120.89C85.144 120.873 85.1493 120.852 85.1472 120.836L82.0867 92.6653L107.493 61.4838L107.499 61.4707ZM81.7376 93.0906L82.6157 101.153C82.0377 99.2087 81.0045 97.3772 79.5135 95.8224L81.7376 93.0906ZM73.8064 102.83C74.6049 104.298 74.4509 106.103 73.3907 107.401C72.7351 108.205 71.8072 108.728 70.7754 108.864C70.1858 108.942 69.5787 108.888 69.0125 108.715L73.8064 102.83ZM68.7435 109.04C69.4108 109.273 70.1268 109.354 70.828 109.261C71.9593 109.111 72.9781 108.54 73.6998 107.653C74.8992 106.182 75.0402 104.126 74.0739 102.493L76.497 99.5192C79.0369 102.565 79.0822 106.944 76.5792 110.019C75.2647 111.631 73.4042 112.673 71.3407 112.946C69.6158 113.175 67.845 112.843 66.3238 112.009L68.7469 109.035L68.7435 109.04ZM66.0662 112.329C67.6771 113.228 69.5624 113.598 71.3948 113.355C73.558 113.068 75.5092 111.978 76.8899 110.283C79.5361 107.035 79.4664 102.41 76.7523 99.2123L79.2593 96.1373C83.6403 100.749 83.9429 107.865 79.9339 112.79C79.2962 113.575 78.5661 114.275 77.7698 114.874C77.1544 115.338 76.4982 115.739 75.8215 116.077C75.5474 116.211 75.2677 116.334 74.987 116.449C74.9214 116.474 74.8563 116.503 74.7947 116.527C74.2083 116.752 73.6126 116.937 72.998 117.071C72.9662 117.075 72.9309 117.084 72.8995 117.092C72.58 117.159 72.2634 117.217 71.9368 117.26C71.6619 117.297 71.386 117.325 71.1124 117.341C71.1045 117.342 71.1005 117.343 71.0925 117.344C70.8275 117.363 70.5648 117.369 70.2971 117.368C70.2812 117.37 70.2647 117.368 70.2483 117.366C69.4372 117.364 68.632 117.283 67.8366 117.123C67.7907 117.113 67.7447 117.103 67.7027 117.092C67.4985 117.05 67.2932 117 67.0914 116.945C67.024 116.925 66.953 116.91 66.8856 116.891C66.7002 116.838 66.5143 116.781 66.3319 116.72C66.2639 116.696 66.1965 116.676 66.1285 116.653C65.886 116.567 65.643 116.477 65.4064 116.374C64.7706 116.103 64.1519 115.778 63.5631 115.403L66.0702 112.328L66.0662 112.329ZM83.1172 105.794L84.6857 120.229C83.8784 119.154 82.9397 118.158 81.8568 117.266C80.7468 116.354 79.5358 115.597 78.2558 114.993C78.9785 114.42 79.6462 113.769 80.235 113.043C81.9745 110.905 82.9276 108.37 83.1127 105.791L83.1172 105.794ZM71.2161 130.511C71.2161 130.511 71.2119 130.479 71.2023 130.468C71.1962 130.453 71.1827 130.442 71.1731 130.431C71.1681 130.424 71.163 130.416 71.154 130.41L67.7658 127.57L59.7859 120.884C61.2874 119.092 63.1956 117.677 65.3275 116.787C65.379 116.809 65.43 116.827 65.481 116.845C65.665 116.918 65.8485 116.987 66.0355 117.052C66.1159 117.078 66.1964 117.104 66.2769 117.13C66.4548 117.188 66.6367 117.246 66.8176 117.295C66.889 117.314 66.9605 117.333 67.0319 117.352C67.2462 117.409 67.4634 117.458 67.6801 117.503C67.7176 117.51 67.755 117.517 67.7885 117.525C68.3337 117.632 68.8826 117.706 69.4348 117.743C69.7046 117.76 69.9773 117.769 70.249 117.769C70.2729 117.766 70.2934 117.768 70.3178 117.768C70.581 117.766 70.8476 117.759 71.1087 117.741C71.1206 117.74 71.1286 117.738 71.1406 117.737C71.7474 117.697 72.3484 117.613 72.9475 117.485C72.9874 117.48 73.0262 117.467 73.0655 117.457C73.3725 117.388 73.6784 117.311 73.9828 117.222C73.9907 117.221 73.9947 117.22 74.0027 117.219C74.2991 117.131 74.5894 117.027 74.8826 116.915C74.9522 116.889 75.0212 116.86 75.0868 116.835C75.3372 116.736 75.5821 116.627 75.8265 116.513C75.8567 116.496 75.8881 116.488 75.9184 116.472C77.5516 117.05 79.0679 117.909 80.4239 119.025C83.486 121.545 85.3924 125.103 85.7936 129.048C86.1983 132.988 85.0475 136.845 82.5617 139.897C80.1978 142.798 76.85 144.668 73.1413 145.16C73.0855 145.167 73.0297 145.175 72.9734 145.178C72.9724 145.17 72.9747 145.157 72.9777 145.149L71.2273 130.534C71.2273 130.534 71.2206 130.515 71.2196 130.507L71.2161 130.511ZM72.5865 145.225C68.7186 145.587 64.8148 144.393 61.7893 141.904C55.5236 136.744 54.5328 127.494 59.5267 121.191L67.3655 127.761C65.97 129.711 66.3214 132.485 68.1967 134.033C69.0935 134.774 70.2116 135.136 71.3591 135.077L72.5713 145.203C72.5713 145.203 72.5735 145.219 72.5785 145.226L72.5865 145.225ZM68.4549 133.718C66.7442 132.31 66.4189 129.794 67.6752 128.018L70.8355 130.668L71.314 134.676C70.274 134.72 69.2654 134.389 68.4509 133.718L68.4549 133.718ZM55.0978 125.793L63.3015 115.723C63.7931 116.037 64.3048 116.32 64.8317 116.564C62.7118 117.513 60.8197 118.958 59.3379 120.776C54.0593 127.255 55.046 136.872 61.5311 142.22C64.785 144.902 69.0365 146.12 73.1914 145.569C77.0038 145.064 80.4378 143.141 82.8684 140.162C85.4238 137.024 86.6057 133.065 86.1907 129.016C85.7757 124.967 83.8156 121.31 80.6756 118.723C79.3835 117.659 77.9431 116.823 76.3975 116.233C76.9196 115.952 77.4285 115.632 77.9081 115.275C79.224 115.875 80.466 116.652 81.6031 117.585C88.72 123.448 89.8026 134.002 84.015 141.106C81.2119 144.547 77.2342 146.68 72.811 147.103C68.3883 147.53 64.0567 146.197 60.6076 143.357C55.4429 139.102 53.2817 132.216 55.0983 125.797L55.0978 125.793ZM54.4941 126.529C53.0461 132.854 55.288 139.493 60.3524 143.664C63.8837 146.574 68.3203 147.934 72.851 147.497C73.1912 147.464 73.5259 147.42 73.8629 147.363L74.6884 154.54L71.0417 159.017L69.6437 147.673C69.6288 147.561 69.5284 147.477 69.4169 147.491C69.3093 147.506 69.2299 147.61 69.2448 147.722L70.6892 159.447L52.3152 181.998C51.2245 181.996 50.0756 182.075 48.9961 182.218C47.8368 182.372 46.6693 182.616 45.496 182.939L45.4031 182.971C45.3951 182.972 45.419 182.969 45.415 182.97C45.3951 182.972 45.3205 182.99 45.3021 183.005L45.1096 183.051C44.3357 183.329 43.1172 183.739 42.1228 184.189L65.7831 155.186L65.7991 155.184C65.8686 155.098 65.8642 154.972 65.7773 154.898L45.1915 137.942L54.4941 126.529ZM38.8991 145.671L41.8952 164.669C41.8479 164.618 41.8046 164.567 41.7499 164.521C41.2998 164.153 40.7137 163.982 40.14 164.058C39.6142 164.128 39.1388 164.395 38.8002 164.806C38.7133 164.916 38.6395 165.031 38.5741 165.15L37.6016 159.586C37.6016 159.586 37.5378 159.594 37.5373 159.59C37.5373 159.59 37.5933 159.554 37.5878 159.543C37.5862 159.531 37.6125 159.515 37.6069 159.503C37.5973 159.492 37.6037 159.479 37.5941 159.468C37.5851 159.461 37.5915 159.448 37.579 159.446C37.5655 159.435 37.557 159.433 37.54 159.427C37.5315 159.424 37.5312 159.452 37.5227 159.449C37.4977 159.444 37.4775 159.476 37.4536 159.479L37.4377 159.481L33.3109 160.305L32.3294 153.756L38.8991 145.671ZM38.7419 166.171C38.7308 165.781 38.8487 165.387 39.1098 165.063C39.3818 164.729 39.7669 164.515 40.1891 164.459C40.6592 164.397 41.1229 164.531 41.4912 164.833C41.8093 165.092 41.9987 165.45 42.0725 165.823L42.0995 166.028C42.1388 166.446 42.0177 166.878 41.7353 167.225C41.4633 167.559 41.0822 167.772 40.656 167.829C40.1859 167.891 39.7222 167.757 39.3539 167.455C39.0397 167.195 38.8475 166.846 38.7742 166.476C38.779 166.451 38.7798 166.427 38.7766 166.403L38.7379 166.172L38.7419 166.171ZM31.9817 154.16L32.908 160.354L25.7129 161.854L31.9783 154.165L31.9817 154.16ZM25.3121 162.347L32.973 160.753L33.7913 166.224L20.306 168.496L25.3126 162.351L25.3121 162.347ZM19.9095 168.899L34.0284 166.453L34.0324 166.453C34.0324 166.453 34.0648 166.514 34.0762 166.508C34.0882 166.507 34.1078 166.533 34.1192 166.527C34.1307 166.521 34.1392 166.524 34.1506 166.519C34.1615 166.509 34.17 166.512 34.1809 166.502C34.1878 166.493 34.1907 166.485 34.1971 166.472C34.2034 166.459 34.2103 166.45 34.2127 166.437C34.2151 166.425 34.2135 166.413 34.2159 166.4C34.2143 166.388 34.2202 166.371 34.2186 166.359L33.3677 160.672L37.3086 159.853L38.3475 166.223C38.3716 166.803 38.6254 167.372 39.1077 167.769C39.5578 168.137 40.1439 168.308 40.7175 168.232C41.2434 168.162 41.7188 167.896 42.0534 167.485C42.3531 167.115 42.4976 166.676 42.512 166.234C42.5276 166.199 42.5388 166.161 42.5329 166.117L42.5149 165.981C42.5075 165.925 42.4955 165.865 42.4841 165.81L39.2452 145.255L42.4043 141.38L46.7912 168.67L44.8385 171.065L14.7426 175.334L19.9145 168.907L19.9095 168.899ZM14.3615 175.792L44.4579 171.527L38.7853 178.489L21.5533 180.936C21.5533 180.936 21.5414 180.938 21.5374 180.938C21.5175 180.941 21.4981 180.947 21.4832 180.957C21.4753 180.959 21.4689 180.972 21.4614 180.977C21.4505 180.986 21.4357 180.996 21.4288 181.005C21.4219 181.015 21.4189 181.023 21.412 181.032C21.4057 181.045 21.3993 181.058 21.3929 181.071C21.3905 181.084 21.3876 181.092 21.3892 181.104C21.3908 181.116 21.3839 181.126 21.3855 181.138L22.4331 198.555L22.1997 198.843L18.6734 195.94L17.7179 186.62C17.7163 186.608 17.7107 186.597 17.7052 186.585C17.7036 186.573 17.7015 186.557 17.6919 186.546C17.6863 186.535 17.6768 186.524 17.6677 186.517C17.6582 186.506 17.6531 186.498 17.6436 186.487C17.6345 186.48 17.6215 186.474 17.609 186.471C17.596 186.465 17.587 186.458 17.5745 186.456C17.562 186.453 17.5586 186.519 17.5461 186.516C17.5341 186.518 17.5296 186.576 17.5137 186.578L8.59027 187.76L6.27492 185.797L14.362 175.796L14.3615 175.792ZM38.4082 178.947L22.8029 198.103L21.7931 181.308L38.4082 178.947ZM19.4847 207.843L7.48057 197.953L6.23398 186.222L8.38629 187.995C8.38629 187.995 8.38629 187.995 8.38682 187.999L18.2838 196.151L19.4807 207.843L19.4847 207.843ZM9.0133 188.108L17.3511 187.003L18.2419 195.712L9.00932 188.108L9.0133 188.108ZM19.9268 208.212L18.7294 196.515L22.0966 199.289C22.1378 199.324 22.1922 199.337 22.244 199.33C22.2958 199.323 22.3454 199.301 22.38 199.255L47.155 168.846C47.155 168.846 47.155 168.846 47.1545 168.842C47.1648 168.829 47.1672 168.816 47.1736 168.803C47.1805 168.794 47.1834 168.785 47.1858 168.773C47.1882 168.76 47.1866 168.748 47.1895 168.74C47.1874 168.724 47.1938 168.711 47.1917 168.695C47.1917 168.695 47.1917 168.695 47.1906 168.687L42.7328 140.953L44.9363 138.249L65.3675 155.078L41.3354 184.578C38.2174 186.132 35.5168 188.328 33.2961 191.056C28.9933 196.333 27.0665 203.235 27.9887 210.041L27.9847 210.042L28.0174 210.196L28.0256 210.167L28.0458 210.441C28.2249 211.64 28.526 212.994 28.9207 214.229C29.1316 214.902 29.3771 215.563 29.6477 216.228L19.9223 208.209L19.9268 208.212ZM30.3286 216.777C29.9656 215.966 29.6483 215.131 29.3754 214.296L34.7234 213.081C35.8813 216.343 37.8975 219.23 40.5777 221.438C43.549 223.885 47.1286 225.355 50.9308 225.69L51.0051 225.762L51.0274 225.747L51.0545 225.768L51.1074 225.708C52.1978 225.8 53.3228 225.785 54.4595 225.675L55.6317 231.095C52.8554 231.434 49.9869 231.293 47.1382 230.627L30.3291 216.781L30.3286 216.777ZM47.8156 231.181C56.7895 232.979 65.8589 229.748 71.6567 222.63C71.9534 222.269 72.2119 221.925 72.4594 221.59L72.4793 221.588L72.4926 221.565L76.1249 220.864C75.4104 222.079 74.6083 223.245 73.7222 224.329C68.2832 231.004 60.228 234.639 51.6144 234.305L47.8151 231.177L47.8156 231.181ZM52.1202 234.727C60.6637 234.899 68.6244 231.223 74.0324 224.589C75.0053 223.396 75.8847 222.11 76.651 220.766L84.0626 219.339L85.9227 230.255L83.3607 230.652L82.5676 225.708C82.524 225.44 82.3087 225.253 82.0737 225.284L78.7011 225.804C78.5975 225.818 78.5043 225.879 78.4392 225.969C78.3603 226.078 78.329 226.208 78.3521 226.352L79.1573 231.388L79.1494 231.389L71.5607 232.855C71.5607 232.855 71.5424 232.87 71.5304 232.872C71.5185 232.873 71.5036 232.883 71.4922 232.889C71.4808 232.895 71.4744 232.908 71.463 232.913C71.4521 232.923 71.4412 232.932 71.4343 232.942C71.4274 232.951 71.421 232.964 71.4186 232.976C71.4122 232.989 71.4053 232.998 71.403 233.011C71.4006 233.023 71.4022 233.035 71.4003 233.052C71.4019 233.064 71.395 233.073 71.3971 233.089L73.43 248.612L69.8643 249.357L52.1088 234.732L52.1202 234.727ZM83.9287 236.743C83.9351 236.791 83.9194 236.825 83.9159 236.83L80.5593 237.348C80.5593 237.348 80.5187 237.317 80.5112 237.261L78.7533 226.29C78.7459 226.234 78.7661 226.203 78.7656 226.199L82.1262 225.68C82.1262 225.68 82.1634 225.716 82.1737 225.764L83.9282 236.739L83.9287 236.743ZM70.2757 249.678L77.0994 248.252L78.0996 254.208L76.1048 254.48L70.2757 249.678ZM82.6401 259.87L76.5324 254.831L78.3728 254.648L78.3818 254.717C78.3818 254.717 78.3957 254.637 78.4076 254.636C78.4196 254.634 78.4302 254.592 78.4416 254.586C78.453 254.581 78.4613 254.551 78.4682 254.542C78.4751 254.533 78.4854 254.519 78.4918 254.506C78.4987 254.497 78.5046 254.48 78.5069 254.468C78.5133 254.455 78.5197 254.442 78.5221 254.429C78.5245 254.416 78.5229 254.404 78.5253 254.392C78.5237 254.38 78.5022 254.37 78.5001 254.354L78.4722 254.358L78.0512 251.671L91.9272 248.463L82.6401 259.87ZM92.3578 247.949L78.0141 251.269L77.4607 247.98C77.4591 247.968 77.4495 247.957 77.4434 247.941C77.4418 247.929 77.4362 247.918 77.4312 247.91C77.4216 247.899 77.4121 247.888 77.4025 247.877C77.3935 247.87 77.3879 247.859 77.3794 247.856C77.3659 247.846 77.3534 247.843 77.3404 247.837C77.3319 247.834 77.3313 247.891 77.3228 247.888C77.2979 247.883 77.2814 247.942 77.2535 247.946L77.2376 247.948L73.8451 248.593L71.8371 233.259L79.2317 231.827L80.1729 237.338C80.2164 237.605 80.3317 237.802 80.73 237.749L84.0383 237.233C84.1419 237.22 84.2072 237.162 84.2723 237.072C84.3472 236.964 84.365 236.823 84.3425 236.684L83.4347 231.058L86.0026 230.705L86.9526 236.069L86.9924 236.064C86.9887 236.035 86.985 236.007 86.9807 235.975C86.9845 236.003 86.9882 236.031 86.9919 236.059C86.9945 236.08 87.0052 236.098 87.0232 236.112C87.0639 236.144 90.9647 235.419 90.9647 235.419L91.2405 236.98C91.288 237.247 91.6093 237.408 91.9941 237.345L102.462 235.55L92.3554 247.962L92.3578 247.949ZM102.852 235.066L91.9291 236.946C91.7658 236.967 91.6513 236.93 91.6383 236.923L91.3662 235.39L104.48 233.069L102.852 235.066ZM104.871 232.59L91.2932 234.992L90.9272 232.934C90.9354 232.904 91.0265 232.827 91.1933 232.801L106.907 230.095L104.871 232.594L104.871 232.59ZM107.294 229.615L91.1238 232.398C90.9017 232.436 90.7052 232.543 90.6027 232.687C90.5381 232.782 90.511 232.883 90.5283 232.983L90.897 235.061L87.2612 235.706L86.3885 230.589L88.9197 230.143C88.9197 230.143 89.0501 230.118 89.0565 230.105C89.0634 230.096 87.0657 218.754 87.0657 218.754L92.236 217.759L93.8702 227.918C93.9252 228.241 94.0784 228.571 94.3493 228.535L96.8959 228.145C97.1179 228.107 97.2218 227.82 97.1552 227.409L95.5095 217.133L104.383 215.424L113.041 222.541C113.041 222.541 113.041 222.541 113.045 222.541L107.278 229.618L107.294 229.615ZM113.312 222.232C113.312 222.232 113.312 222.232 113.311 222.228L104.913 215.325L121.555 212.121L113.312 222.236L113.312 222.232ZM126.962 205.479L124.735 189.256L142.836 185.998L126.962 205.483L126.962 205.479ZM144.401 184.07L143.225 185.51L124.471 188.888C124.471 188.888 124.448 188.899 124.436 188.901C124.424 188.902 124.409 188.908 124.397 188.914C124.386 188.919 124.38 188.933 124.368 188.938C124.357 188.948 124.35 188.953 124.339 188.966C124.333 188.975 124.326 188.989 124.324 189.001C124.317 189.014 124.31 189.023 124.308 189.036C124.306 189.048 124.307 189.06 124.305 189.077C124.307 189.089 124.301 189.102 124.302 189.114L126.604 205.901L121.939 211.626L104.491 214.985L104.446 214.947L118.974 197.209C119.009 197.163 119.11 197.101 119.103 197.049L116.845 177.958L131.865 175.095L132.833 180.379C132.806 180.419 132.781 180.475 132.792 180.527C132.809 180.626 132.899 180.696 132.996 180.691C133.025 180.7 133.05 180.701 133.078 180.697C133.101 180.694 133.12 180.683 133.139 180.672L143.698 178.707L144.385 184.076L144.401 184.07ZM146.088 182.001L144.75 183.645L144.105 178.632L145.7 178.335L146.084 182.001L146.088 182.001ZM145.662 177.929L144.06 178.227L142.758 168.064L144.591 167.739L145.666 177.924L145.662 177.929ZM146.447 181.558L146.099 178.258L149.679 177.592L146.447 181.558ZM156.834 168.811L152.235 174.453L151.823 165.84L156.556 164.915L156.83 168.811L156.834 168.811ZM157.203 168.358L156.944 164.66C156.944 164.66 156.943 164.652 156.943 164.648C156.942 164.644 156.941 164.64 156.941 164.636C156.939 164.624 156.934 164.616 156.929 164.609C156.928 164.597 156.922 164.585 156.917 164.574C156.911 164.562 156.901 164.551 156.892 164.54C156.883 164.533 156.877 164.522 156.868 164.515C156.859 164.508 156.846 164.502 156.833 164.495C156.824 164.488 156.816 164.485 156.803 164.479C156.79 164.472 156.773 164.466 156.756 164.465C156.748 164.466 156.738 164.451 156.726 164.452L156.702 164.455L151.574 165.465C151.574 165.465 151.56 165.475 151.552 165.48C151.536 165.482 151.521 165.492 151.51 165.498C151.498 165.504 151.492 165.513 151.485 165.522C151.474 165.531 151.463 165.541 151.456 165.55C151.449 165.559 151.446 165.568 151.44 165.581C151.433 165.594 151.426 165.603 151.425 165.619C151.422 165.632 151.42 165.644 151.421 165.657C151.422 165.665 151.416 165.674 151.417 165.682L151.858 174.919L150.077 177.103L146.057 177.852L145.563 173.174L147.772 172.807C147.772 172.807 147.803 172.795 147.818 172.789C147.826 172.788 147.834 172.787 147.838 172.782C147.857 172.772 147.871 172.758 147.885 172.744C147.885 172.744 147.893 172.738 147.896 172.734C147.907 172.72 147.913 172.703 147.919 172.69C147.922 172.682 147.929 172.673 147.932 172.664C147.934 172.652 147.936 172.635 147.934 172.623C147.933 172.611 147.94 172.602 147.938 172.59L146.609 161.033L166.624 156.795L157.203 168.358ZM146.215 161.118L147.518 172.446L145.522 172.776L144.334 161.518L146.215 161.118ZM144.293 161.112L143.233 151.064L145.03 150.834L146.17 160.716L144.293 161.112ZM167.031 156.293L151.122 159.665L150.789 157.272L169.211 153.62L167.031 156.293ZM161.872 141.804L172.019 150.126L169.584 153.069C169.563 153.064 150.515 156.827 150.515 156.827C150.503 156.829 150.501 156.878 150.489 156.879C150.477 156.881 150.465 156.907 150.454 156.917C150.442 156.922 150.437 156.943 150.426 156.953C150.415 156.963 150.409 156.976 150.398 156.985C150.391 156.994 150.389 157.011 150.382 157.02C150.376 157.033 150.369 157.046 150.367 157.059C150.365 157.071 150.367 157.087 150.364 157.1C150.366 157.112 150.359 157.121 150.361 157.133L150.727 159.745L146.551 160.629L145.386 150.583C145.386 150.583 145.387 150.554 145.381 150.543C145.379 150.531 145.377 150.515 145.376 150.503C145.37 150.491 145.361 150.484 145.355 150.473C145.346 150.462 145.34 150.45 145.331 150.443C145.322 150.436 145.31 150.434 145.301 150.427C145.288 150.421 145.279 150.414 145.266 150.407C145.253 150.405 145.247 150.45 145.235 150.452C145.223 150.454 145.216 150.491 145.2 150.493L142.985 150.787L142.978 150.735C142.978 150.735 142.932 150.721 142.909 150.732C142.901 150.733 142.901 150.733 142.893 150.734C142.878 150.744 142.866 150.746 142.856 150.759C142.849 150.768 142.85 150.772 142.843 150.781C142.836 150.794 142.826 150.808 142.82 150.825C142.821 150.833 142.823 150.845 142.816 150.854C142.818 150.87 142.812 150.883 142.81 150.9L143.893 161.185L139.504 162.113C139.394 162.136 139.327 162.243 139.35 162.354C139.373 162.465 139.483 162.532 139.589 162.509L143.938 161.587L144.545 167.326L142.497 167.687C142.497 167.687 142.473 167.694 142.466 167.699C142.454 167.701 142.439 167.707 142.427 167.712C142.416 167.718 142.409 167.727 142.398 167.737C142.387 167.746 142.38 167.751 142.369 167.765C142.362 167.774 142.36 167.787 142.354 167.8C142.347 167.813 142.34 167.822 142.338 167.834C142.336 167.847 142.337 167.859 142.335 167.871C142.336 167.883 142.33 167.897 142.332 167.909L143.662 178.283L133.21 180.231L130.903 167.932L139.386 166.514C139.553 166.488 139.699 166.395 139.795 166.26C139.883 166.13 139.919 165.979 139.891 165.823L138.9 160.058C138.846 159.743 138.545 159.526 138.219 159.569L122.636 162.168C122.525 162.183 122.426 162.233 122.342 162.301L121.191 156.125C121.153 155.93 120.977 155.798 120.79 155.823L118.478 156.24C118.284 156.277 118.159 156.465 118.194 156.668L119.359 162.916C119.397 163.111 119.572 163.239 119.775 163.212L122.067 162.798C122.067 162.798 122.102 162.785 122.121 162.779C122.125 162.803 122.124 162.827 122.127 162.855L123.128 168.664C123.183 168.983 123.489 169.244 123.84 169.198L130.512 168.036L131.765 174.705L116.731 177.557L115.209 164.18L115.208 164.172C115.208 164.172 115.208 164.168 115.207 164.164C115.205 164.152 115.2 164.14 115.194 164.129C115.193 164.117 115.191 164.105 115.182 164.094C115.176 164.082 115.162 164.072 115.153 164.061C115.144 164.054 115.138 164.042 115.129 164.035C115.116 164.025 115.103 164.022 115.09 164.016C115.082 164.013 115.073 164.006 115.06 164.004C115.043 163.998 102.033 166.183 102.033 166.183L99.628 148.924L123.356 145.914L132.066 153.094C132.066 153.094 132.068 153.102 132.072 153.105C132.158 153.175 132.283 153.167 132.356 153.08L137.405 146.885C137.405 146.885 137.423 146.866 137.433 146.852L139.469 144.353L161.877 141.779L161.872 141.804ZM138.123 160.01L138.096 159.81L138.187 160.001L138.163 160.005C138.51 159.967 138.417 160.057 138.43 160.153L139.457 165.918C139.465 165.978 139.463 166.019 139.446 166.045C139.411 166.091 139.371 166.121 139.311 166.133L123.749 168.729C123.634 168.744 123.535 168.676 123.517 168.572L122.526 162.806C122.518 162.746 122.536 162.699 122.557 162.672C122.592 162.627 122.64 162.596 122.704 162.583L138.162 160.001C138.162 160.001 138.138 160.004 138.126 160.005L138.123 160.01ZM121.955 162.438L119.75 162.836L118.598 156.656L120.803 156.257L121.955 162.438ZM137.405 146.269L133.319 113.45L135.397 113.256L139.155 144.122L137.409 146.269L137.405 146.269ZM144.957 137.003L139.507 143.692L135.774 113.014C135.774 113.014 135.767 112.991 135.761 112.979C135.76 112.967 135.758 112.955 135.749 112.944C135.743 112.933 135.734 112.926 135.724 112.915C135.715 112.904 135.709 112.892 135.7 112.885C135.691 112.878 135.678 112.872 135.665 112.866C135.652 112.859 135.643 112.852 135.631 112.85C135.618 112.847 135.602 112.845 135.59 112.847C135.578 112.849 135.559 112.798 135.547 112.8L133.113 113.029L132.835 113.106C132.877 113.423 137.018 146.716 137.018 146.716L132.157 152.703L123.901 145.895L125.044 145.743C125.685 145.773 126.322 145.692 126.938 145.504C128.053 145.169 129.036 144.513 129.779 143.604C130.633 142.553 131.102 141.232 131.1 139.871C131.099 139.435 131.051 139.005 130.959 138.59L127.999 112.251L130.87 108.863L141.391 107.987L144.962 137.011L144.957 137.003ZM162.772 125.868C162.23 125.94 161.74 126.213 161.391 126.638C161.024 127.086 160.856 127.65 160.916 128.229C160.939 128.426 160.992 128.614 161.061 128.797L155.578 124.283C155.533 124.248 155.478 124.231 155.426 124.238C155.378 124.244 155.329 124.271 155.298 124.312L145.305 136.574L141.822 108.239L163.205 125.86C163.062 125.85 162.916 125.853 162.773 125.872L162.772 125.868ZM164.178 126.656C164.933 127.277 165.045 128.395 164.435 129.144C164.152 129.492 163.752 129.716 163.314 129.774C162.824 129.839 162.344 129.699 161.961 129.383C161.597 129.08 161.367 128.659 161.32 128.188C161.27 127.718 161.408 127.259 161.704 126.894C161.987 126.547 162.387 126.327 162.829 126.268C163.311 126.204 163.805 126.347 164.182 126.655L164.178 126.656ZM166.757 134.004L145.643 136.794L155.482 124.719L165.342 132.843L166.753 134.005L166.757 134.004ZM170.787 125.845L165.443 132.406L162.721 130.162C162.933 130.199 163.148 130.203 163.367 130.174C163.909 130.103 164.4 129.83 164.748 129.4C165.502 128.477 165.36 127.106 164.437 126.344L141.693 107.604C141.684 107.597 141.671 107.591 141.658 107.588C141.645 107.582 141.636 107.575 141.624 107.573C141.624 107.573 141.624 107.573 141.62 107.573C141.611 107.57 141.6 107.576 141.587 107.569C141.587 107.569 141.587 107.569 141.583 107.57C141.571 107.571 141.554 107.533 141.542 107.535L130.877 108.394L130.88 108.418C130.88 108.418 130.811 108.443 130.807 108.444C130.783 108.447 130.725 108.467 130.706 108.478C130.694 108.483 130.672 108.498 130.661 108.504C130.65 108.514 130.63 108.52 130.623 108.529L117.194 124.438L117.197 124.462L117.174 124.465L117.194 124.438L117.182 124.346L115.817 115.207C115.817 115.207 115.831 115.193 115.841 115.179L129.661 98.2115L136.888 104.17C136.929 104.205 136.984 104.218 137.032 104.216C137.08 104.213 137.134 104.186 137.169 104.145L140.087 100.563L148.327 107.349C148.327 107.349 148.327 107.349 148.328 107.353C148.328 107.353 148.328 107.353 148.332 107.352L150.803 109.388L170.783 125.846L170.787 125.845ZM142.033 97.8435L134.802 91.8858L144.836 79.5688L152.003 85.4698L153.227 101.01L148.426 106.903L140.34 100.24L142.066 98.1243C142.136 98.0377 142.123 97.909 142.036 97.8389L142.033 97.8435ZM141.623 98.0241L136.979 103.726L129.904 97.8982L134.548 92.2007L141.624 98.0281L141.623 98.0241ZM154.624 77.1673L156.854 101.642L150.902 108.947L148.736 107.16L153.579 101.22C153.601 101.197 153.617 101.17 153.625 101.137C153.627 101.124 153.63 101.111 153.628 101.099C153.627 101.087 153.709 101.064 153.711 101.052L152.548 85.3363C152.548 85.3363 152.464 85.3108 152.457 85.2913C152.456 85.2833 152.415 85.2806 152.41 85.2731C152.41 85.2691 152.385 85.2683 152.381 85.2648C152.37 85.2458 152.348 85.2324 152.33 85.2185L152.326 85.219L145.091 79.2619L149.937 73.3095L154.624 77.1713L154.624 77.1673ZM156.312 70.4515L155.248 71.7579L148.669 66.3376L148.094 63.6872L156.312 70.4515ZM153.412 56.038L147.623 63.0325C147.623 63.0325 147.62 63.041 147.616 63.0416C147.609 63.0547 147.602 63.0637 147.596 63.0768C147.593 63.0853 147.586 63.0904 147.583 63.0989C147.583 63.0989 147.584 63.1069 147.584 63.1109C147.582 63.1235 147.583 63.1355 147.581 63.148C147.582 63.156 147.576 63.1691 147.577 63.1771C147.577 63.1811 147.578 63.1851 147.578 63.1891C147.578 63.1891 147.579 63.1972 147.58 63.2012L148.168 65.9231L138.138 57.6588L153.412 56.038ZM137.583 57.7242L148.308 66.5565L149.594 72.4951L132.389 58.3229L137.587 57.7196L137.583 57.7242ZM131.831 58.3928L149.627 73.053L144.652 79.1572L134.367 91.7805L115.714 114.674L110.61 79.8949L128.093 58.8189L131.834 58.3843L131.831 58.3928ZM127.885 58.443L108.103 60.7346L120.749 45.2146L126.815 50.214C126.815 50.214 126.832 50.2239 126.841 50.2269C126.854 50.2333 126.863 50.2442 126.876 50.2467C126.889 50.2531 126.905 50.251 126.921 50.2529C126.929 50.2518 126.938 50.2588 126.95 50.2572L134.949 49.9307L127.886 58.447L127.885 58.443ZM135.295 49.5099L127.01 49.8499L121.003 44.8997L134.286 28.5943L145.194 37.5776L135.295 49.5099ZM152.425 28.8597L150.164 31.5883L149.106 22.0414L151.569 21.7272L152.43 28.8632L152.425 28.8597ZM151.514 21.3106L148.854 21.6388L148.85 21.6393C148.822 21.643 148.8 21.6662 148.778 21.6774C148.77 21.6784 148.768 21.6949 148.764 21.6955C148.749 21.7056 148.735 21.7197 148.721 21.7379C148.713 21.7429 148.715 21.7549 148.708 21.764C148.698 21.7776 148.692 21.7947 148.686 21.8118C148.683 21.8203 148.685 21.8323 148.682 21.8449C148.684 21.8609 148.678 21.8739 148.68 21.89L149.804 32.0192L145.448 37.2668L134.541 28.2794L143.87 16.826L150.871 15.9675L151.513 21.3066L151.514 21.3106ZM154.379 21.367L154.879 25.9019L152.778 28.434L151.963 21.6749L154.379 21.367ZM156.028 14.9336L151.008 15.5988L144.232 16.4031L148.432 11.2372L155.677 10.6071L156.028 14.9336ZM155.644 10.204L148.79 10.7904L150.62 8.54272L155.459 7.97895L155.644 10.204ZM155.425 7.5758L150.987 8.09479L155.048 3.10622L155.421 7.57633L155.425 7.5758Z" fill="white"/>
</svg>