<svg width="12" height="12" viewBox="0 0 12 12" fill="none" xmlns="http://www.w3.org/2000/svg">
<g id="Frame" clip-path="url(#clip0_4504_64296)">
<g id="Group">
<path id="Vector" d="M10.125 1.5H9.75V1.125C9.75 1.02554 9.71049 0.930161 9.64017 0.859835C9.56984 0.789509 9.47446 0.75 9.375 0.75C9.27554 0.75 9.18016 0.789509 9.10983 0.859835C9.03951 0.930161 9 1.02554 9 1.125V1.5H3V1.125C3 1.02554 2.96049 0.930161 2.89016 0.859835C2.81984 0.789509 2.72446 0.75 2.625 0.75C2.52554 0.75 2.43016 0.789509 2.35984 0.859835C2.28951 0.930161 2.25 1.02554 2.25 1.125V1.5H1.875C1.57663 1.5 1.29048 1.61853 1.0795 1.8295C0.868526 2.04048 0.75 2.32663 0.75 2.625V10.125C0.75 10.4234 0.868526 10.7095 1.0795 10.9205C1.29048 11.1315 1.57663 11.25 1.875 11.25H10.125C10.4234 11.25 10.7095 11.1315 10.9205 10.9205C11.1315 10.7095 11.25 10.4234 11.25 10.125V2.625C11.25 2.32663 11.1315 2.04048 10.9205 1.8295C10.7095 1.61853 10.4234 1.5 10.125 1.5ZM10.5 10.125C10.5 10.2245 10.4605 10.3198 10.3902 10.3902C10.3198 10.4605 10.2245 10.5 10.125 10.5H1.875C1.77554 10.5 1.68016 10.4605 1.60984 10.3902C1.53951 10.3198 1.5 10.2245 1.5 10.125V4.5H10.5V10.125ZM10.5 3.75H1.5V2.625C1.5 2.52554 1.53951 2.43016 1.60984 2.35984C1.68016 2.28951 1.77554 2.25 1.875 2.25H10.125C10.2245 2.25 10.3198 2.28951 10.3902 2.35984C10.4605 2.43016 10.5 2.52554 10.5 2.625V3.75ZM7.875 9C7.875 8.90054 7.91451 8.80516 7.98483 8.73483C8.05516 8.66451 8.15054 8.625 8.25 8.625H9C9.09946 8.625 9.19484 8.66451 9.26517 8.73483C9.33549 8.80516 9.375 8.90054 9.375 9C9.375 9.09946 9.33549 9.19484 9.26517 9.26517C9.19484 9.33549 9.09946 9.375 9 9.375H8.25C8.15054 9.375 8.05516 9.33549 7.98483 9.26517C7.91451 9.19484 7.875 9.09946 7.875 9ZM5.25 6C5.25 5.90054 5.28951 5.80516 5.35984 5.73484C5.43016 5.66451 5.52554 5.625 5.625 5.625H6.375C6.47446 5.625 6.56984 5.66451 6.64017 5.73484C6.71049 5.80516 6.75 5.90054 6.75 6C6.75 6.09946 6.71049 6.19484 6.64017 6.26517C6.56984 6.33549 6.47446 6.375 6.375 6.375H5.625C5.52554 6.375 5.43016 6.33549 5.35984 6.26517C5.28951 6.19484 5.25 6.09946 5.25 6ZM7.875 6C7.875 5.90054 7.91451 5.80516 7.98483 5.73484C8.05516 5.66451 8.15054 5.625 8.25 5.625H9C9.09946 5.625 9.19484 5.66451 9.26517 5.73484C9.33549 5.80516 9.375 5.90054 9.375 6C9.375 6.09946 9.33549 6.19484 9.26517 6.26517C9.19484 6.33549 9.09946 6.375 9 6.375H8.25C8.15054 6.375 8.05516 6.33549 7.98483 6.26517C7.91451 6.19484 7.875 6.09946 7.875 6ZM5.25 7.5C5.25 7.40054 5.28951 7.30516 5.35984 7.23483C5.43016 7.16451 5.52554 7.125 5.625 7.125H6.375C6.47446 7.125 6.56984 7.16451 6.64017 7.23483C6.71049 7.30516 6.75 7.40054 6.75 7.5C6.75 7.59946 6.71049 7.69484 6.64017 7.76517C6.56984 7.83549 6.47446 7.875 6.375 7.875H5.625C5.52554 7.875 5.43016 7.83549 5.35984 7.76517C5.28951 7.69484 5.25 7.59946 5.25 7.5ZM7.875 7.5C7.875 7.40054 7.91451 7.30516 7.98483 7.23483C8.05516 7.16451 8.15054 7.125 8.25 7.125H9C9.09946 7.125 9.19484 7.16451 9.26517 7.23483C9.33549 7.30516 9.375 7.40054 9.375 7.5C9.375 7.59946 9.33549 7.69484 9.26517 7.76517C9.19484 7.83549 9.09946 7.875 9 7.875H8.25C8.15054 7.875 8.05516 7.83549 7.98483 7.76517C7.91451 7.69484 7.875 7.59946 7.875 7.5ZM2.625 7.5C2.625 7.40054 2.66451 7.30516 2.73484 7.23483C2.80516 7.16451 2.90054 7.125 3 7.125H3.75C3.84946 7.125 3.94484 7.16451 4.01516 7.23483C4.08549 7.30516 4.125 7.40054 4.125 7.5C4.125 7.59946 4.08549 7.69484 4.01516 7.76517C3.94484 7.83549 3.84946 7.875 3.75 7.875H3C2.90054 7.875 2.80516 7.83549 2.73484 7.76517C2.66451 7.69484 2.625 7.59946 2.625 7.5ZM2.625 9C2.625 8.90054 2.66451 8.80516 2.73484 8.73483C2.80516 8.66451 2.90054 8.625 3 8.625H3.75C3.84946 8.625 3.94484 8.66451 4.01516 8.73483C4.08549 8.80516 4.125 8.90054 4.125 9C4.125 9.09946 4.08549 9.19484 4.01516 9.26517C3.94484 9.33549 3.84946 9.375 3.75 9.375H3C2.90054 9.375 2.80516 9.33549 2.73484 9.26517C2.66451 9.19484 2.625 9.09946 2.625 9ZM2.625 6C2.625 5.90054 2.66451 5.80516 2.73484 5.73484C2.80516 5.66451 2.90054 5.625 3 5.625H3.75C3.84946 5.625 3.94484 5.66451 4.01516 5.73484C4.08549 5.80516 4.125 5.90054 4.125 6C4.125 6.09946 4.08549 6.19484 4.01516 6.26517C3.94484 6.33549 3.84946 6.375 3.75 6.375H3C2.90054 6.375 2.80516 6.33549 2.73484 6.26517C2.66451 6.19484 2.625 6.09946 2.625 6ZM5.25 9C5.25 8.90054 5.28951 8.80516 5.35984 8.73483C5.43016 8.66451 5.52554 8.625 5.625 8.625H6.375C6.47446 8.625 6.56984 8.66451 6.64017 8.73483C6.71049 8.80516 6.75 8.90054 6.75 9C6.75 9.09946 6.71049 9.19484 6.64017 9.26517C6.56984 9.33549 6.47446 9.375 6.375 9.375H5.625C5.52554 9.375 5.43016 9.33549 5.35984 9.26517C5.28951 9.19484 5.25 9.09946 5.25 9Z" fill="white"/>
</g>
</g>
<defs>
<clipPath id="clip0_4504_64296">
<rect width="12" height="12" fill="white"/>
</clipPath>
</defs>
</svg>
