<svg xmlns="http://www.w3.org/2000/svg" width="276" height="37" viewBox="0 0 276 37" fill="none">
  <path d="M20.7145 9.97798V2.57252C20.7145 2.57252 10.2803 1.33985 5.80007 3.37643C1.31986 5.41301 0.31979 9.38844 0.635602 12.6608C0.951415 15.9332 1.84622 20.0127 6.64223 21.031C11.4383 22.0493 13.0452 21.5196 13.2619 23.5531C13.4786 25.5865 11.3856 25.8671 9.38857 25.8671H0.793508V33.4806C0.793508 33.4806 13.1783 34.2057 15.9711 32.084C18.7639 29.9623 20.3182 27.6042 20.7145 24.8393C21.1108 22.0745 19.5039 17.623 17.5006 16.362C15.4974 15.101 15.0515 14.483 12.2835 14.2687C9.51551 14.0543 7.75067 14.2687 7.80331 12.0682C7.85595 9.86764 9.77869 9.9496 11.7045 9.9496C13.6304 9.9496 20.7176 9.97798 20.7176 9.97798H20.7145Z" fill="#011A44"/>
  <path d="M67.9254 17.6577L52.3484 0.312104C52.3484 0.312104 52.3607 0.31841 52.3638 0.321562C52.3638 0.321562 52.3669 0.324715 52.37 0.324715L52.4474 0.409835L67.9254 17.6483V17.6577Z" fill="#011A44"/>
  <path d="M59.6307 32.5411C59.6399 33.2316 59.4542 33.6067 59.0114 33.7454H57.2125C55.3393 33.6603 53.4568 33.6572 51.5991 33.6729V15.0442C51.6579 14.9213 51.757 14.8267 51.9335 14.7699L59.5192 23.2189C59.6337 23.7107 59.6368 24.2372 59.6276 24.7857C59.5935 27.3709 59.5873 29.956 59.6276 32.5411H59.6307Z" fill="#011A44"/>
  <path d="M93.7384 18.4616L93.7291 18.4805L93.7384 18.4995V32.9762C93.6362 33.4554 93.404 33.6635 92.9024 33.7454H86.6791C86.1837 33.6887 85.8679 33.55 85.6728 33.2662C85.5149 33.0487 85.4344 32.7461 85.391 32.3268V20.1073L85.874 19.2246L95.0605 2.3676L95.1255 2.25096H102.148C102.253 2.30771 102.352 2.38652 102.445 2.4874L93.7446 18.4616H93.7384Z" fill="#011A44"/>
  <path d="M88.3665 8.63813L84.552 15.6369C84.3445 15.7977 84.134 15.7725 83.877 15.5612L76.6257 2.24781H84.8833L85.0969 2.63873L85.391 3.17467L88.3665 8.63497V8.63813Z" fill="#011A44"/>
  <path d="M50.9427 33.6761C48.9797 33.6918 47.0043 33.6729 45.032 33.7454H43.2424C43.2208 33.7423 43.2022 33.736 43.1805 33.7297L37.3442 20.9585L41.2361 12.4339L50.9396 33.6761H50.9427Z" fill="#011A44"/>
  <path d="M39.7871 9.25288L36.3534 16.7687L35.8921 17.7744L28.5974 33.7391H20.634C20.4978 33.6855 20.377 33.591 20.2903 33.4207L35.4338 0.280581L35.5608 0L35.6537 0.198614L39.7902 9.25288H39.7871Z" fill="#011A44"/>
  <path d="M51.5991 10.019L73.3282 34.2278C73.3282 34.2278 73.3375 34.2373 73.3406 34.2436L73.4149 34.3287H73.418" fill="#011A44"/>
  <path d="M115.517 2.28564C106.987 2.28564 100.07 9.32539 100.07 18.014C100.07 26.7025 106.987 33.7454 115.517 33.7454C124.047 33.7454 130.967 26.7025 130.967 18.014C130.967 9.32539 124.05 2.28564 115.517 2.28564ZM115.396 25.5865C111.291 25.5865 107.959 22.1975 107.959 18.014C107.959 13.8305 111.288 10.4446 115.396 10.4446C119.505 10.4446 122.83 13.8336 122.83 18.014C122.83 22.1943 119.502 25.5865 115.396 25.5865Z" fill="#011A44"/>
  <path d="M74.4986 2.32977C72.5759 2.3077 70.6531 2.3077 68.7304 2.32346C68.427 2.32346 68.1359 2.41173 67.9316 2.57252V17.6609L67.9254 17.6546V17.6609L52.3484 0.312104C52.2988 0.271121 52.24 0.239592 52.175 0.226982C52.1409 0.217524 52.1038 0.211219 52.0666 0.211219C51.8096 0.211219 51.5991 0.425596 51.5991 0.687262C51.5991 0.712482 51.5991 0.734551 51.6053 0.759771V10.019L67.9223 28.1969L67.9285 28.2032L71.0061 31.63L75.4522 36.835V2.75537C75.2696 2.4874 74.9692 2.33292 74.4955 2.32661L74.4986 2.32977Z" fill="#011A44"/>
  <path d="M209.657 10.0915V2.68601C209.657 2.68601 199.223 1.45334 194.743 3.48992C190.263 5.5265 189.262 9.49878 189.578 12.7743C189.894 16.0499 190.789 20.1262 195.585 21.1445C200.381 22.1628 201.988 21.6331 202.205 23.6666C202.421 25.7 200.328 25.9806 198.331 25.9806H189.733V33.5941C189.733 33.5941 202.118 34.3192 204.911 32.1975C207.703 30.0758 209.258 27.7177 209.654 24.9528C210.05 22.188 208.443 17.7365 206.44 16.4755C204.437 15.2144 203.991 14.5965 201.223 14.3822C198.455 14.1678 196.69 14.3822 196.743 12.1816C196.795 9.98112 198.718 10.0631 200.644 10.0631C202.57 10.0631 209.657 10.0915 209.657 10.0915Z" fill="#011A44"/>
  <path d="M155.861 18.4774L155.851 18.4963L155.861 18.5152V32.992C155.758 33.4712 155.526 33.6792 155.025 33.7612H148.801C148.306 33.7045 147.99 33.5657 147.795 33.282C147.637 33.0645 147.557 32.7618 147.513 32.3425V20.1231L147.996 19.2403L157.183 2.38337L157.248 2.26672H164.27C164.375 2.32347 164.474 2.40228 164.567 2.50317L155.867 18.4774H155.861Z" fill="#011A44"/>
  <path d="M150.489 8.65704L146.674 15.6558C146.467 15.8166 146.256 15.7914 145.999 15.5802L138.748 2.26672H147.005L147.219 2.65764L147.513 3.19359L150.489 8.65389V8.65704Z" fill="#011A44"/>
  <path d="M226.816 1.92939C218.286 1.92939 211.369 8.96915 211.369 17.6577C211.369 26.3463 218.286 33.3892 226.816 33.3892C235.346 33.3892 242.266 26.3463 242.266 17.6577C242.266 8.96915 235.349 1.92939 226.816 1.92939ZM226.696 25.2303C222.59 25.2303 219.258 21.8412 219.258 17.6577C219.258 13.4742 222.587 10.0883 226.696 10.0883C230.804 10.0883 234.13 13.4774 234.13 17.6577C234.13 21.8381 230.801 25.2303 226.696 25.2303Z" fill="#011A44"/>
  <path d="M165.326 20.1956V2.26041H172.332V19.7164C172.332 22.9825 173.537 25.8986 176.203 25.8986C178.503 25.8986 180.218 23.6792 180.218 19.7164V2.26041H187.191V20.1956C187.191 28.2946 183.321 33.6036 176.206 33.6036C169.71 33.6036 165.329 28.903 165.329 20.1956H165.326Z" fill="#011A44"/>
  <path d="M252.496 2.53784H245.164V36.876H246.133L269.361 2.53784H260.611L252.468 13.9503L252.496 2.53784Z" fill="#011A44"/>
  <path d="M260.692 20.577L256.264 27.0966L260.692 33.3892H267.649L267.754 30.6654L260.692 20.577Z" fill="#011A44"/>
  <path d="M275.999 2.53784H270.519V33.3892H275.999V2.53784Z" fill="#011A44"/>
</svg>