<svg xmlns="http://www.w3.org/2000/svg" width="60" height="61" viewBox="0 0 60 61" fill="none">
  <path d="M54.218 32.702C53.3641 31.848 52.5232 30.774 51.5788 29.8035C53.5711 27.8367 55.4859 26.2063 57.3489 24.3171C60.7385 20.8752 60.7773 16.2169 57.4006 12.775C53.9981 9.32008 50.5438 5.91696 47.0636 2.53971C43.7645 -0.656373 39.2752 -0.630494 35.9502 2.53971C34.2683 4.15717 32.5606 5.74874 30.9693 7.45677C30.1801 8.29785 29.7531 8.16845 29.0286 7.40501C27.3856 5.69698 25.6778 4.05365 23.9571 2.4362C20.7227 -0.630494 16.104 -0.591675 12.8955 2.5009C11.4983 3.84662 10.101 5.1794 8.72962 6.551C6.42674 8.86719 4.04623 11.1316 1.87272 13.5643C-0.637161 16.3592 -0.611286 20.5905 1.87272 23.4372C3.33466 25.1194 4.95186 26.6592 6.53024 28.2249C7.11243 28.7942 7.81105 29.2471 8.50968 29.7906C7.9663 30.3858 7.74637 30.6446 7.48761 30.9034C5.93511 32.4561 4.3826 34.0089 2.84304 35.5616C-0.934725 39.353 -0.90885 43.9465 2.89479 47.7249C6.12917 50.9469 9.35062 54.1688 12.585 57.4037C16.1299 60.9492 20.7874 60.9751 24.3452 57.4296C26.1953 55.5792 28.0195 53.6901 29.9213 51.7491C30.2577 52.0338 30.4259 52.1632 30.5811 52.3185C32.4183 54.1429 34.2166 56.0063 36.0796 57.7919C39.2622 60.8327 43.8939 60.8069 47.0377 57.7272C50.5438 54.2723 54.0239 50.7916 57.4783 47.2849C60.5833 44.1406 60.7515 39.7541 57.8664 36.3898C56.7408 35.0829 55.46 33.9312 54.2439 32.702H54.218ZM33.5826 9.77297C35.174 8.16845 36.7653 6.56394 38.3695 4.95942C40.0514 3.27727 42.9235 3.23845 44.6054 4.90767C48.0468 8.32373 51.4882 11.7398 54.8908 15.1947C56.909 17.2391 56.8961 19.7365 54.9166 21.7939C53.0536 23.7348 51.1777 25.6499 49.2112 27.6685C46.973 25.2746 44.8512 23.1267 41.4745 23.1396C38.1496 23.1525 36.0537 25.2876 33.9837 27.5003C33.3886 27.0215 32.9487 26.6592 32.4183 26.2192C34.8505 24.0195 36.9335 21.8327 36.9205 18.4813C36.9076 15.1817 34.8893 12.9949 32.5347 10.8987C32.9358 10.4717 33.2592 10.0965 33.5956 9.76003L33.5826 9.77297ZM46.4684 29.8035C43.3764 33.8536 40.4137 34.7723 36.5583 29.8035C39.7409 25.3005 42.9623 25.1194 46.4684 29.8035ZM30.0377 13.4737C34.2554 16.6568 34.7729 19.8271 30.0377 23.5148C26.1177 20.7587 24.8757 17.5367 30.0377 13.4737ZM31.6938 30.1141L29.9601 31.7444L28.33 30.1141L29.9601 28.5225L31.6938 30.1141ZM5.00361 21.7809C3.0371 19.7753 2.99829 17.2779 4.96479 15.2723C8.41912 11.7657 11.8993 8.29785 15.3925 4.83003C16.8415 3.39373 19.636 3.1867 21.2402 4.59712C23.4267 6.51218 25.419 8.62134 27.6055 10.7564C25.2638 12.9949 23.1032 15.1041 23.1032 18.4684C23.1032 21.8456 25.212 23.9807 27.4891 26.1287C27.0233 26.6204 26.6352 27.0215 26.1435 27.552C25.4837 26.918 24.8757 26.3357 24.2676 25.7405C20.7227 22.2468 16.1299 22.2597 12.5979 25.7663C12.0416 26.3227 11.5629 26.9568 10.9549 27.6814C10.3339 27.0862 9.90693 26.6721 9.48 26.258C7.97924 24.77 6.46555 23.2819 4.97773 21.768L5.00361 21.7809ZM22.0682 31.6539C19.5842 34.0995 17.2813 34.0865 14.8103 31.6151C13.7839 30.5885 13.7839 29.5533 14.8103 28.5095C16.1687 27.125 17.1131 26.6592 18.6915 26.6851C20.1017 26.6851 21.072 27.4744 22.0553 28.4707C23.6466 30.0882 23.6595 30.0752 22.0553 31.6539H22.0682ZM20.9685 55.7086C19.3902 57.1579 16.945 56.7956 15.2243 55.1005C12.3521 52.2796 9.53175 49.42 6.69842 46.5733C6.03861 45.9133 5.36586 45.2664 4.74486 44.5676C3.17941 42.8208 3.05004 40.4916 4.61548 38.7965C6.56905 36.7003 8.67787 34.7464 10.8384 32.6114C11.3948 33.1549 11.9769 33.7113 12.5462 34.2806C16.1428 37.839 20.7227 37.8649 24.3064 34.3324C24.8627 33.776 25.3544 33.1549 25.9624 32.4691C26.5575 33.0125 26.9845 33.4007 27.5408 33.9183C25.3155 36.0792 23.1291 38.1625 23.1162 41.5268C23.1032 44.917 25.1732 47.052 27.3856 49.0965C25.1732 51.3868 23.1679 53.6512 20.9556 55.6828L20.9685 55.7086ZM30.0377 46.6768C25.4967 43.2866 25.5484 40.0905 30.0377 36.5839C34.0354 39.5859 35.0446 42.7173 30.0377 46.6768ZM55.0848 44.697C51.5788 48.2942 48.0209 51.8397 44.4243 55.3593C42.8847 56.8603 40.543 57.0802 39.0293 55.6828C36.817 53.6512 34.8117 51.3868 32.6253 49.1224C34.7858 47.1297 36.9076 44.9688 36.9076 41.6303C36.9076 38.279 34.8376 36.0922 32.4312 33.9442C32.9875 33.4654 33.4403 33.0902 33.9966 32.6114C36.0278 34.8111 38.1496 36.9591 41.5263 36.9462C44.8642 36.9332 46.973 34.85 49.3017 32.3009C49.8451 32.9996 50.285 33.6466 50.8284 34.203C52.1998 35.6263 53.6229 36.985 54.9943 38.4084C56.8314 40.3234 56.922 42.782 55.0848 44.6711V44.697Z" fill="#C82D2C"/>
</svg>