<svg xmlns="http://www.w3.org/2000/svg" width="276" height="19" viewBox="0 0 276 19" fill="none">
  <path d="M7.04021 4.02292H17.7914V5.33102H7.04021V4.02292ZM9.97065 7.83509H15.6076V9.10582H9.728L9.97065 7.83509ZM15.2529 7.83509H15.4956L15.7382 7.77903L16.5782 8.04065C15.6636 13.4226 12.9944 16.4872 9.48536 18.0009C9.31737 17.6645 8.96273 17.1413 8.68275 16.861C11.8932 15.6463 14.4503 12.6938 15.2529 8.07803V7.83509ZM10.4746 8.95632C11.6879 12.6751 14.2637 15.7211 18.034 16.861C17.7167 17.16 17.3248 17.7019 17.1194 18.0757C13.1997 16.7115 10.6613 13.4599 9.33603 9.25532L10.4746 8.95632ZM0.582031 10.825C2.18724 10.3952 4.61373 9.62906 6.90955 8.90026L7.11487 10.1523C4.98703 10.8998 2.72853 11.666 0.992667 12.2639L0.582031 10.825ZM0.82468 4.49009H6.79756V5.79819H0.82468V4.49009ZM3.36315 0.808726H4.74438V16.3377C4.74438 17.1226 4.55773 17.515 4.07243 17.7393C3.58714 17.9448 2.82186 17.9822 1.57129 17.9635C1.53396 17.6272 1.32864 17.0479 1.16065 16.6928C2.00059 16.7115 2.78453 16.7115 3.00851 16.6928C3.26983 16.6928 3.36315 16.6181 3.36315 16.3377V0.808726ZM9.56002 0.827413H10.9226C10.8853 6.82599 10.7546 14.1887 6.2376 17.9262C6.01362 17.6085 5.56565 17.1974 5.21101 16.9918C9.54135 13.5347 9.52269 6.48962 9.56002 0.827413Z" fill="#484F57"/>
  <path d="M32.935 4.45272H40.6064V5.74213H32.935V4.45272ZM33.1963 8.28359H40.2891V9.59169H33.1963V8.28359ZM32.5057 12.3013H41.0358V13.6281H32.5057V12.3013ZM33.1777 1.33197L34.2789 0.958223C34.9136 1.89258 35.4735 3.14462 35.6602 3.98554L34.4469 4.45272C34.2789 3.59311 33.7563 2.3037 33.1777 1.33197ZM38.9079 0.790039L40.2705 1.12641C39.7478 2.24764 39.1879 3.53705 38.7026 4.37797L37.5453 4.06029C38.012 3.18199 38.6279 1.78046 38.9079 0.790039ZM36.0148 5.0694H37.3774V18.0196H36.0148V5.0694ZM23.8451 4.84515H32.7297V6.05981H23.8451V4.84515ZM24.8157 1.76177H31.6285V9.12451H24.7037V7.90984H30.3219V2.97643H24.8157V1.76177ZM25.8049 11.068H27.0928V18.0196H25.8049V11.068ZM26.3275 11.068H31.8898V17.0105H26.3275V15.7584H30.5085V12.3013H26.3275V11.068ZM27.1301 2.19157L28.474 2.26632C28.0821 7.74166 27.1675 11.9463 24.4983 14.6746C24.3304 14.3943 23.8451 13.8337 23.5464 13.572C26.0476 11.2175 26.8128 7.18104 27.1301 2.19157Z" fill="#484F57"/>
  <path d="M56.6274 3.7613C56.3847 5.70476 56.0114 7.89116 55.4328 9.89068C54.2942 13.7215 52.801 15.7024 51.0838 15.7024C49.4039 15.7024 47.7427 13.7963 47.7427 10.6942C47.7427 6.63912 51.3451 3.10725 55.9181 3.10725C60.2857 3.10725 63.0669 6.19062 63.0669 9.98412C63.0669 13.8897 60.4911 16.5059 56.0487 17.0852L55.1901 15.7024C55.7874 15.6463 56.3474 15.5716 56.7953 15.4781C59.1845 14.9362 61.5363 13.1422 61.5363 9.90937C61.5363 6.91942 59.4645 4.45272 55.8807 4.45272C51.7744 4.45272 49.2173 7.83509 49.2173 10.5821C49.2173 12.9367 50.2812 13.9832 51.1211 13.9832C51.9984 13.9832 53.0063 12.7124 53.9582 9.55431C54.4995 7.77903 54.8915 5.66738 55.0781 3.72392L56.6274 3.7613Z" fill="#484F57"/>
  <path d="M74.8134 2.95775V6.50831H82.2795V2.95775H74.8134ZM73.4509 1.61227H83.6981V7.85378H73.4509V1.61227ZM70.7444 9.83462H77.3892V17.8514H75.9893V11.1801H72.0696V18.0009H70.7444V9.83462ZM79.4238 9.83462H86.4419V17.8888H85.042V11.1801H80.7676V18.0009H79.4238V9.83462ZM71.3417 15.6463H76.5493V16.9918H71.3417V15.6463ZM80.1144 15.6463H85.6579V16.9918H80.1144V15.6463Z" fill="#484F57"/>
  <path d="M100.074 0.864788L101.026 1.7244C99.495 2.17289 97.2365 2.47188 95.3513 2.60269C95.2953 2.35976 95.146 1.94864 94.9967 1.70571C96.7886 1.51884 98.9164 1.20116 100.074 0.864788ZM108.1 0.883475L109.033 1.76177C107.409 2.21026 105.001 2.49057 102.985 2.60269C102.929 2.34107 102.78 1.96733 102.649 1.70571C104.553 1.53752 106.83 1.23853 108.1 0.883475ZM94.6234 1.31328L96.2473 1.76177C96.2286 1.89258 96.1353 1.96733 95.8926 2.0047V3.23805C95.8926 4.60222 95.5566 6.56437 94.0261 8.00328C93.8208 7.70428 93.3728 7.27448 93.0742 7.10629C94.4181 5.87294 94.6234 4.37797 94.6234 3.18199V1.31328ZM102.276 1.36934L103.881 1.76177C103.863 1.89258 103.769 1.96733 103.527 2.0047V3.08856C103.527 4.32191 103.135 6.00375 101.343 7.21842C101.175 6.91942 100.764 6.47093 100.466 6.28406C101.996 5.29364 102.276 4.09766 102.276 3.0325V1.36934ZM95.202 3.51836H101.511V4.6209H95.202V3.51836ZM102.836 3.51836H109.948V4.6209H102.836V3.51836ZM98.0578 3.92948H99.327V6.9568H98.0578V3.92948ZM105.897 3.92948H107.166V7.01286H105.897V3.92948ZM96.9566 10.5074V11.8155H106.401V10.5074H96.9566ZM96.9566 12.7124V14.0579H106.401V12.7124H96.9566ZM96.9566 8.28359V9.59169H106.401V8.28359H96.9566ZM95.594 7.34923H107.801V15.011H95.594V7.34923ZM103.153 15.964L104.292 15.2539C106.345 15.8893 108.604 16.7115 109.948 17.3469L108.398 18.057C107.222 17.4403 105.188 16.6367 103.153 15.964ZM98.7671 15.2165L100.036 15.7958C98.5244 16.6928 96.1539 17.5524 94.2874 18.0757C94.0634 17.7953 93.5781 17.2534 93.2608 17.0105C95.1833 16.5994 97.4232 15.9453 98.7671 15.2165Z" fill="#484F57"/>
  <path d="M123.934 1.74308C123.766 2.47188 123.561 3.49968 123.075 4.75171C122.609 5.89163 121.918 7.14367 121.172 8.1154C121.899 7.6856 122.963 7.42398 123.785 7.42398C125.222 7.42398 126.342 8.28359 126.342 9.79724C126.342 10.769 126.379 12.918 126.398 14.0766H124.961C125.035 13.0862 125.054 11.1614 125.035 10.1897C125.017 9.10582 124.27 8.60127 123.299 8.60127C122.105 8.60127 120.929 9.19926 120.07 9.96543C119.529 10.4887 119.006 11.1614 118.39 11.9276L117.102 10.9745C119.79 8.39571 121.041 6.228 121.675 4.63959C122.086 3.6118 122.347 2.49057 122.403 1.61227L123.934 1.74308ZM117.532 3.7613C118.54 3.89211 119.828 3.94817 120.686 3.94817C123.206 3.94817 126.435 3.79867 129.067 3.33149V4.71434C126.454 5.10677 122.982 5.27495 120.612 5.27495C119.809 5.27495 118.577 5.23758 117.532 5.16283V3.7613ZM131.792 8.2649C131.325 8.4144 130.653 8.67601 130.149 8.86289C128.824 9.38613 127.051 10.0962 125.241 11.0306C123.393 12.0023 122.086 13.0114 122.086 14.3008C122.086 15.7584 123.523 15.9827 125.446 15.9827C126.902 15.9827 128.918 15.8145 130.56 15.5155L130.504 17.0292C129.086 17.1974 127.014 17.3469 125.39 17.3469C122.739 17.3469 120.593 16.7676 120.593 14.5064C120.593 12.2266 122.907 10.825 125.129 9.68512C126.902 8.76945 128.414 8.19015 129.646 7.61085C130.205 7.34923 130.672 7.14367 131.195 6.88205L131.792 8.2649Z" fill="#484F57"/>
  <path d="M147.346 4.97596V6.47093H153.58V4.97596H147.346ZM147.346 2.49057V3.98554H153.58V2.49057H147.346ZM146.058 1.4254H154.924V7.55479H146.058V1.4254ZM145.2 8.90026H155.951V10.0776H145.2V8.90026ZM149.791 9.47956H151.098V17.1226L149.791 16.5807V9.47956ZM147.29 12.918C148.242 16.0201 150.295 16.4872 152.89 16.4872C153.357 16.4872 155.876 16.4872 156.53 16.4686C156.343 16.7676 156.156 17.3655 156.119 17.7206H152.834C149.717 17.7206 147.57 17.0479 146.432 13.2357L147.29 12.918ZM150.687 12.2639H155.018V13.4226H150.687V12.2639ZM146.432 10.9558L147.701 11.1053C147.328 14.1887 146.357 16.5059 144.677 18.0009C144.453 17.7767 143.912 17.3655 143.632 17.16C145.293 15.8332 146.133 13.7215 146.432 10.9558ZM138.947 10.7503C140.403 10.3579 142.568 9.68512 144.659 9.01238L144.864 10.3018C142.923 10.9372 140.888 11.6099 139.302 12.1145L138.947 10.7503ZM139.152 4.58353H144.845V5.89163H139.152V4.58353ZM141.467 0.827413H142.773V16.263C142.773 17.0292 142.605 17.4029 142.139 17.6272C141.709 17.8514 140.981 17.8888 139.806 17.8888C139.75 17.5524 139.582 16.9731 139.395 16.5807C140.216 16.5994 140.925 16.5994 141.149 16.5994C141.392 16.5994 141.467 16.5246 141.467 16.2443V0.827413Z" fill="#484F57"/>
  <path d="M166.503 0.864788L167.828 1.2759C166.615 4.43403 164.692 7.61085 162.677 9.70381C162.527 9.38613 162.135 8.63864 161.874 8.32096C163.703 6.50831 165.458 3.70523 166.503 0.864788ZM164.524 5.70476L165.887 4.3406L165.906 4.35928V17.9822H164.524V5.70476ZM167.735 4.80778H179.195V6.15325H167.735V4.80778ZM167.268 10.769H179.419V12.1518H167.268V10.769ZM170.143 1.01428H171.524V11.5165H170.143V1.01428ZM175.164 0.995597H176.526V11.5351H175.164V0.995597ZM170.535 13.1983L171.86 13.6094C170.945 15.2352 169.527 16.8984 168.276 17.9635C168.015 17.7206 167.474 17.2721 167.156 17.0852C168.444 16.1135 169.732 14.6372 170.535 13.1983ZM174.772 13.871L175.873 13.2357C177.161 14.469 178.542 16.1322 179.214 17.2721L178.038 18.0196C177.403 16.861 176.022 15.1231 174.772 13.871Z" fill="#484F57"/>
  <path d="M196.28 1.70571C196.243 1.92995 196.187 2.65875 196.187 2.883C196.131 4.09766 196.168 7.70428 196.187 9.19925L194.768 8.47046C194.768 7.64822 194.75 3.92948 194.694 2.90169C194.656 2.39713 194.6 1.87389 194.563 1.70571H196.28ZM186.35 4.32191C188.889 4.28454 193.555 4.11635 196.429 4.11635C198.707 4.11635 201.021 4.11635 201.898 4.13504L201.88 5.51789C200.834 5.46183 199.155 5.42445 196.411 5.42445C193.2 5.42445 189.206 5.55526 186.388 5.76082L186.35 4.32191ZM196.15 9.74118C196.15 12.2453 194.992 13.4973 193.294 13.4973C191.726 13.4973 190.214 12.3948 190.214 10.3579C190.214 8.50783 191.745 7.12498 193.518 7.12498C195.683 7.12498 196.784 8.73208 196.784 10.8811C196.784 13.4226 195.552 16.2256 191.222 17.515L189.971 16.3004C193.368 15.4968 195.347 13.8337 195.347 10.7503C195.347 9.06845 194.526 8.35833 193.518 8.35833C192.528 8.35833 191.614 9.12451 191.614 10.3392C191.614 11.5165 192.491 12.1892 193.518 12.1892C194.675 12.1892 195.422 11.2175 195.123 9.21794L196.15 9.74118Z" fill="#484F57"/>
  <path d="M207.685 2.75219C208.095 2.78956 208.618 2.80825 208.991 2.80825C209.98 2.80825 214.404 2.67744 215.393 2.584C215.953 2.52794 216.215 2.49057 216.42 2.41582L217.279 3.51836C216.943 3.74261 216.569 3.98554 216.215 4.26585C215.3 4.97596 212.762 7.16236 211.306 8.35833C212.164 8.07803 213.06 7.98459 213.9 7.98459C216.999 7.98459 219.22 9.83462 219.22 12.3574C219.22 15.366 216.737 17.3282 212.78 17.3282C210.242 17.3282 208.693 16.2256 208.693 14.6559C208.693 13.3852 209.85 12.2266 211.567 12.2266C214.049 12.2266 215.3 13.9832 215.431 15.8706L214.087 16.0948C213.975 14.5064 213.06 13.3665 211.567 13.3665C210.708 13.3665 210.055 13.8897 210.055 14.5438C210.055 15.4594 211.082 16.0014 212.556 16.0014C215.729 16.0014 217.727 14.6933 217.727 12.3574C217.727 10.5074 215.972 9.14319 213.527 9.14319C210.428 9.14319 208.749 10.4513 206.397 12.8619L205.314 11.7781C206.863 10.5074 209.271 8.48914 210.335 7.57347C211.38 6.71386 213.732 4.75171 214.665 3.91079C213.676 3.96685 209.943 4.11635 208.973 4.17241C208.543 4.20979 208.133 4.22847 207.722 4.28454L207.685 2.75219Z" fill="#484F57"/>
  <path d="M230.158 1.81783C230.046 2.22895 229.915 2.93906 229.84 3.29412C229.56 4.63959 229.168 6.75124 228.646 8.61995C227.974 11.2735 226.723 15.1418 225.734 17.1787L224.11 16.6367C225.23 14.6933 226.537 10.8998 227.246 8.2649C227.694 6.54568 228.179 4.1911 228.31 3.21937C228.384 2.69613 228.422 2.06076 228.384 1.66833L230.158 1.81783ZM226.033 4.93859C228.086 4.93859 230.83 4.60222 233.144 4.02292V5.48051C230.83 6.00375 228.011 6.32143 225.995 6.32143C225.174 6.32143 224.521 6.30275 223.83 6.24669L223.793 4.78909C224.67 4.90121 225.342 4.93859 226.033 4.93859ZM231.931 7.49873C232.901 7.40529 234.152 7.34923 235.347 7.34923C236.429 7.34923 237.568 7.3866 238.576 7.49873L238.538 8.91895C237.568 8.80683 236.485 8.6947 235.384 8.6947C234.227 8.6947 233.069 8.76945 231.931 8.90026V7.49873ZM232.304 12.0397C232.155 12.6564 232.043 13.2357 232.043 13.7215C232.043 14.5998 232.547 15.4594 235.197 15.4594C236.429 15.4594 237.698 15.3286 238.856 15.1044L238.8 16.5994C237.792 16.7489 236.541 16.861 235.179 16.861C232.248 16.861 230.643 15.964 230.643 14.114C230.643 13.4039 230.755 12.6938 230.923 11.9089L232.304 12.0397Z" fill="#484F57"/>
  <path d="M253.06 2.04208C252.929 2.50926 252.817 3.16331 252.724 3.51836C252.052 6.60174 250.745 10.5074 249.252 12.5629C247.834 14.5438 246.471 15.9453 244.772 15.9453C243.354 15.9453 242.159 14.768 242.159 12.5816C242.159 10.227 243.597 7.74166 245.575 6.41487C247.423 5.16283 249.252 4.67697 251.175 4.67697C254.833 4.67697 257.484 7.14367 257.484 10.7877C257.484 14.5251 254.814 16.7862 250.801 17.3469L249.943 16.0201C253.844 15.665 255.99 13.6281 255.99 10.7316C255.99 7.98459 254.012 5.96638 251.007 5.96638C249.196 5.96638 247.572 6.58305 246.116 7.66691C244.53 8.80682 243.522 10.8064 243.522 12.4882C243.522 13.7215 244.063 14.469 244.903 14.469C246.116 14.469 247.423 12.8806 248.375 11.367C249.607 9.46088 250.857 6.04113 251.324 3.3128C251.399 2.93906 251.455 2.32238 251.436 1.89258L253.06 2.04208ZM245.407 2.90169C245.5 3.40624 245.65 4.02292 245.799 4.54616C246.284 6.3775 247.33 9.25532 248.114 10.5634C248.748 11.6473 249.625 12.8806 250.521 13.7402L249.345 14.6933C248.599 13.871 247.908 12.9554 247.199 11.7407C246.284 10.2831 245.202 7.42398 244.492 5.08808C244.306 4.49009 244.101 3.87342 243.858 3.38755L245.407 2.90169Z" fill="#484F57"/>
  <path d="M267.731 3.89211C269.765 4.24716 273.554 4.17241 275.402 3.89211V5.40576C273.405 5.63001 269.784 5.63001 267.749 5.40576L267.731 3.89211ZM268.459 11.5165C268.291 12.1892 268.197 12.7124 268.197 13.217C268.197 14.0766 268.795 14.9175 271.352 14.9175C273.013 14.9175 274.469 14.768 275.962 14.413L275.999 15.9827C274.842 16.2256 273.274 16.3751 271.333 16.3751C268.216 16.3751 266.816 15.3286 266.816 13.572C266.816 12.9554 266.909 12.2826 267.115 11.3857L268.459 11.5165ZM264.184 2.45319C264.072 2.77088 263.923 3.36887 263.848 3.70523C263.494 5.44314 262.915 8.76945 262.915 10.8811C262.915 11.7781 262.971 12.5629 263.083 13.4786C263.4 12.6377 263.83 11.5165 264.147 10.7503L264.931 11.367C264.464 12.6938 263.774 14.6559 263.606 15.5529C263.55 15.8145 263.512 16.1696 263.512 16.3938C263.531 16.5807 263.55 16.8423 263.568 17.0479L262.243 17.1413C261.87 15.8145 261.553 13.6655 261.553 11.124C261.553 8.37702 262.169 5.18152 262.392 3.63049C262.448 3.20068 262.504 2.7335 262.523 2.32238L264.184 2.45319Z" fill="#484F57"/>
</svg>