<svg width="16" height="14" viewBox="0 0 16 14" fill="none" xmlns="http://www.w3.org/2000/svg">
<g clip-path="url(#clip0_4504_100663)">
<path d="M7.89913 12.7688C7.91244 12.7818 7.92677 12.7944 7.94132 12.8061C7.94799 12.8115 7.95504 12.8161 7.96189 12.8212C7.97007 12.8272 7.97809 12.8334 7.98659 12.839C7.9948 12.8443 8.0033 12.849 8.01172 12.8539C8.01945 12.8584 8.02698 12.8631 8.03491 12.8672C8.0435 12.8717 8.05233 12.8755 8.0611 12.8796C8.06936 12.8834 8.07751 12.8874 8.08599 12.8909C8.09449 12.8943 8.10318 12.8971 8.11182 12.9001C8.12092 12.9033 8.12988 12.9067 8.13917 12.9095C8.14781 12.912 8.15658 12.9139 8.16533 12.916C8.1748 12.9184 8.18417 12.921 8.19383 12.9228C8.20396 12.9248 8.21416 12.9259 8.22434 12.9274C8.23273 12.9285 8.24102 12.9301 8.24952 12.9309C8.28732 12.9346 8.32541 12.9346 8.3632 12.9309C8.3717 12.9301 8.37999 12.9286 8.38839 12.9274C8.39856 12.9259 8.40877 12.9248 8.41889 12.9228C8.42856 12.921 8.43792 12.9184 8.4474 12.916C8.45612 12.9139 8.46492 12.912 8.47356 12.9095C8.48284 12.9067 8.49183 12.9033 8.5009 12.9001C8.50954 12.8971 8.51823 12.8943 8.52674 12.8909C8.53521 12.8874 8.54336 12.8834 8.55162 12.8796C8.5604 12.8755 8.56923 12.8717 8.57781 12.8672C8.58575 12.8631 8.59328 12.8584 8.601 12.8539C8.60942 12.849 8.61792 12.8443 8.62613 12.839C8.63463 12.8334 8.64265 12.8272 8.65083 12.8212C8.65769 12.8162 8.66473 12.8115 8.6714 12.8061C8.68596 12.7945 8.69994 12.7821 8.71327 12.7691L12.7448 8.82719C12.9697 8.60729 12.9697 8.25075 12.7448 8.03085C12.5199 7.81095 12.1553 7.81095 11.9304 8.03085L8.88223 11.0112V2.23496C8.88223 1.92397 8.6244 1.67188 8.30635 1.67188C7.98829 1.67188 7.73046 1.92397 7.73046 2.23496V11.0112L4.68233 8.03085C4.45743 7.81095 4.09279 7.81095 3.86789 8.03085C3.64299 8.25075 3.64299 8.60729 3.86789 8.82719L7.89913 12.7688Z" fill="white"/>
</g>
<defs>
<clipPath id="clip0_4504_100663">
<rect width="15.3571" height="13.5143" fill="white" transform="translate(0.628906 0.445312)"/>
</clipPath>
</defs>
</svg>
